G75*
%MOIN*%
%OFA0B0*%
%FSLAX24Y24*%
%IPPOS*%
%LPD*%
%AMOC8*
5,1,8,0,0,1.08239X$1,22.5*
%
%ADD10C,0.0160*%
%ADD11C,0.0531*%
%ADD12C,0.0000*%
%ADD13OC8,0.0480*%
%ADD14C,0.0480*%
%ADD15C,0.0600*%
%ADD16C,0.0780*%
%ADD17C,0.0705*%
%ADD18C,0.0787*%
%ADD19C,0.0540*%
%ADD20OC8,0.0540*%
%ADD21C,0.0740*%
%ADD22C,0.1266*%
%ADD23C,0.0886*%
%ADD24C,0.0860*%
%ADD25R,0.0472X0.0472*%
%ADD26C,0.0060*%
%ADD27C,0.0100*%
%ADD28C,0.0400*%
%ADD29C,0.1660*%
D10*
X005898Y000275D02*
X005898Y032021D01*
X045268Y032021D01*
X045268Y000275D01*
X005898Y000275D01*
D11*
X014273Y006775D03*
X015273Y007275D03*
X014273Y007775D03*
X015273Y008275D03*
X014273Y008775D03*
X015273Y009275D03*
X014273Y009775D03*
X015273Y006275D03*
X031648Y025400D03*
X032648Y025400D03*
X033648Y025400D03*
X034648Y025400D03*
X035148Y026400D03*
X034148Y026400D03*
X033148Y026400D03*
X032148Y026400D03*
X039523Y025400D03*
X040523Y025400D03*
X041523Y025400D03*
X042523Y025400D03*
X043023Y026400D03*
X042023Y026400D03*
X041023Y026400D03*
X040023Y026400D03*
X009297Y030275D03*
X008510Y030275D03*
X007723Y030275D03*
X006935Y030275D03*
D12*
X006892Y026536D02*
X006894Y026565D01*
X006900Y026593D01*
X006909Y026621D01*
X006922Y026647D01*
X006939Y026670D01*
X006958Y026692D01*
X006980Y026711D01*
X007005Y026726D01*
X007031Y026739D01*
X007059Y026747D01*
X007087Y026752D01*
X007116Y026753D01*
X007145Y026750D01*
X007173Y026743D01*
X007200Y026733D01*
X007226Y026719D01*
X007249Y026702D01*
X007270Y026682D01*
X007288Y026659D01*
X007303Y026634D01*
X007314Y026607D01*
X007322Y026579D01*
X007326Y026550D01*
X007326Y026522D01*
X007322Y026493D01*
X007314Y026465D01*
X007303Y026438D01*
X007288Y026413D01*
X007270Y026390D01*
X007249Y026370D01*
X007226Y026353D01*
X007200Y026339D01*
X007173Y026329D01*
X007145Y026322D01*
X007116Y026319D01*
X007087Y026320D01*
X007059Y026325D01*
X007031Y026333D01*
X007005Y026346D01*
X006980Y026361D01*
X006958Y026380D01*
X006939Y026402D01*
X006922Y026425D01*
X006909Y026451D01*
X006900Y026479D01*
X006894Y026507D01*
X006892Y026536D01*
X006892Y024764D02*
X006894Y024793D01*
X006900Y024821D01*
X006909Y024849D01*
X006922Y024875D01*
X006939Y024898D01*
X006958Y024920D01*
X006980Y024939D01*
X007005Y024954D01*
X007031Y024967D01*
X007059Y024975D01*
X007087Y024980D01*
X007116Y024981D01*
X007145Y024978D01*
X007173Y024971D01*
X007200Y024961D01*
X007226Y024947D01*
X007249Y024930D01*
X007270Y024910D01*
X007288Y024887D01*
X007303Y024862D01*
X007314Y024835D01*
X007322Y024807D01*
X007326Y024778D01*
X007326Y024750D01*
X007322Y024721D01*
X007314Y024693D01*
X007303Y024666D01*
X007288Y024641D01*
X007270Y024618D01*
X007249Y024598D01*
X007226Y024581D01*
X007200Y024567D01*
X007173Y024557D01*
X007145Y024550D01*
X007116Y024547D01*
X007087Y024548D01*
X007059Y024553D01*
X007031Y024561D01*
X007005Y024574D01*
X006980Y024589D01*
X006958Y024608D01*
X006939Y024630D01*
X006922Y024653D01*
X006909Y024679D01*
X006900Y024707D01*
X006894Y024735D01*
X006892Y024764D01*
X017149Y010275D02*
X017151Y010325D01*
X017157Y010374D01*
X017167Y010422D01*
X017180Y010470D01*
X017198Y010517D01*
X017219Y010562D01*
X017243Y010605D01*
X017271Y010646D01*
X017302Y010684D01*
X017336Y010721D01*
X017373Y010754D01*
X017412Y010784D01*
X017454Y010811D01*
X017497Y010835D01*
X017543Y010855D01*
X017590Y010871D01*
X017638Y010884D01*
X017686Y010893D01*
X017736Y010898D01*
X017785Y010899D01*
X017835Y010896D01*
X017884Y010889D01*
X017933Y010878D01*
X017980Y010864D01*
X018026Y010845D01*
X018071Y010823D01*
X018113Y010798D01*
X018154Y010769D01*
X018192Y010738D01*
X018227Y010703D01*
X018260Y010665D01*
X018289Y010626D01*
X018315Y010583D01*
X018338Y010539D01*
X018357Y010494D01*
X018373Y010446D01*
X018385Y010398D01*
X018393Y010349D01*
X018397Y010300D01*
X018397Y010250D01*
X018393Y010201D01*
X018385Y010152D01*
X018373Y010104D01*
X018357Y010056D01*
X018338Y010011D01*
X018315Y009967D01*
X018289Y009924D01*
X018260Y009885D01*
X018227Y009847D01*
X018192Y009812D01*
X018154Y009781D01*
X018113Y009752D01*
X018071Y009727D01*
X018026Y009705D01*
X017980Y009686D01*
X017933Y009672D01*
X017884Y009661D01*
X017835Y009654D01*
X017785Y009651D01*
X017736Y009652D01*
X017686Y009657D01*
X017638Y009666D01*
X017590Y009679D01*
X017543Y009695D01*
X017497Y009715D01*
X017454Y009739D01*
X017412Y009766D01*
X017373Y009796D01*
X017336Y009829D01*
X017302Y009866D01*
X017271Y009904D01*
X017243Y009945D01*
X017219Y009988D01*
X017198Y010033D01*
X017180Y010080D01*
X017167Y010128D01*
X017157Y010176D01*
X017151Y010225D01*
X017149Y010275D01*
X017149Y005775D02*
X017151Y005825D01*
X017157Y005874D01*
X017167Y005922D01*
X017180Y005970D01*
X017198Y006017D01*
X017219Y006062D01*
X017243Y006105D01*
X017271Y006146D01*
X017302Y006184D01*
X017336Y006221D01*
X017373Y006254D01*
X017412Y006284D01*
X017454Y006311D01*
X017497Y006335D01*
X017543Y006355D01*
X017590Y006371D01*
X017638Y006384D01*
X017686Y006393D01*
X017736Y006398D01*
X017785Y006399D01*
X017835Y006396D01*
X017884Y006389D01*
X017933Y006378D01*
X017980Y006364D01*
X018026Y006345D01*
X018071Y006323D01*
X018113Y006298D01*
X018154Y006269D01*
X018192Y006238D01*
X018227Y006203D01*
X018260Y006165D01*
X018289Y006126D01*
X018315Y006083D01*
X018338Y006039D01*
X018357Y005994D01*
X018373Y005946D01*
X018385Y005898D01*
X018393Y005849D01*
X018397Y005800D01*
X018397Y005750D01*
X018393Y005701D01*
X018385Y005652D01*
X018373Y005604D01*
X018357Y005556D01*
X018338Y005511D01*
X018315Y005467D01*
X018289Y005424D01*
X018260Y005385D01*
X018227Y005347D01*
X018192Y005312D01*
X018154Y005281D01*
X018113Y005252D01*
X018071Y005227D01*
X018026Y005205D01*
X017980Y005186D01*
X017933Y005172D01*
X017884Y005161D01*
X017835Y005154D01*
X017785Y005151D01*
X017736Y005152D01*
X017686Y005157D01*
X017638Y005166D01*
X017590Y005179D01*
X017543Y005195D01*
X017497Y005215D01*
X017454Y005239D01*
X017412Y005266D01*
X017373Y005296D01*
X017336Y005329D01*
X017302Y005366D01*
X017271Y005404D01*
X017243Y005445D01*
X017219Y005488D01*
X017198Y005533D01*
X017180Y005580D01*
X017167Y005628D01*
X017157Y005676D01*
X017151Y005725D01*
X017149Y005775D01*
X030524Y028900D02*
X030526Y028950D01*
X030532Y028999D01*
X030542Y029047D01*
X030555Y029095D01*
X030573Y029142D01*
X030594Y029187D01*
X030618Y029230D01*
X030646Y029271D01*
X030677Y029309D01*
X030711Y029346D01*
X030748Y029379D01*
X030787Y029409D01*
X030829Y029436D01*
X030872Y029460D01*
X030918Y029480D01*
X030965Y029496D01*
X031013Y029509D01*
X031061Y029518D01*
X031111Y029523D01*
X031160Y029524D01*
X031210Y029521D01*
X031259Y029514D01*
X031308Y029503D01*
X031355Y029489D01*
X031401Y029470D01*
X031446Y029448D01*
X031488Y029423D01*
X031529Y029394D01*
X031567Y029363D01*
X031602Y029328D01*
X031635Y029290D01*
X031664Y029251D01*
X031690Y029208D01*
X031713Y029164D01*
X031732Y029119D01*
X031748Y029071D01*
X031760Y029023D01*
X031768Y028974D01*
X031772Y028925D01*
X031772Y028875D01*
X031768Y028826D01*
X031760Y028777D01*
X031748Y028729D01*
X031732Y028681D01*
X031713Y028636D01*
X031690Y028592D01*
X031664Y028549D01*
X031635Y028510D01*
X031602Y028472D01*
X031567Y028437D01*
X031529Y028406D01*
X031488Y028377D01*
X031446Y028352D01*
X031401Y028330D01*
X031355Y028311D01*
X031308Y028297D01*
X031259Y028286D01*
X031210Y028279D01*
X031160Y028276D01*
X031111Y028277D01*
X031061Y028282D01*
X031013Y028291D01*
X030965Y028304D01*
X030918Y028320D01*
X030872Y028340D01*
X030829Y028364D01*
X030787Y028391D01*
X030748Y028421D01*
X030711Y028454D01*
X030677Y028491D01*
X030646Y028529D01*
X030618Y028570D01*
X030594Y028613D01*
X030573Y028658D01*
X030555Y028705D01*
X030542Y028753D01*
X030532Y028801D01*
X030526Y028850D01*
X030524Y028900D01*
X035024Y028900D02*
X035026Y028950D01*
X035032Y028999D01*
X035042Y029047D01*
X035055Y029095D01*
X035073Y029142D01*
X035094Y029187D01*
X035118Y029230D01*
X035146Y029271D01*
X035177Y029309D01*
X035211Y029346D01*
X035248Y029379D01*
X035287Y029409D01*
X035329Y029436D01*
X035372Y029460D01*
X035418Y029480D01*
X035465Y029496D01*
X035513Y029509D01*
X035561Y029518D01*
X035611Y029523D01*
X035660Y029524D01*
X035710Y029521D01*
X035759Y029514D01*
X035808Y029503D01*
X035855Y029489D01*
X035901Y029470D01*
X035946Y029448D01*
X035988Y029423D01*
X036029Y029394D01*
X036067Y029363D01*
X036102Y029328D01*
X036135Y029290D01*
X036164Y029251D01*
X036190Y029208D01*
X036213Y029164D01*
X036232Y029119D01*
X036248Y029071D01*
X036260Y029023D01*
X036268Y028974D01*
X036272Y028925D01*
X036272Y028875D01*
X036268Y028826D01*
X036260Y028777D01*
X036248Y028729D01*
X036232Y028681D01*
X036213Y028636D01*
X036190Y028592D01*
X036164Y028549D01*
X036135Y028510D01*
X036102Y028472D01*
X036067Y028437D01*
X036029Y028406D01*
X035988Y028377D01*
X035946Y028352D01*
X035901Y028330D01*
X035855Y028311D01*
X035808Y028297D01*
X035759Y028286D01*
X035710Y028279D01*
X035660Y028276D01*
X035611Y028277D01*
X035561Y028282D01*
X035513Y028291D01*
X035465Y028304D01*
X035418Y028320D01*
X035372Y028340D01*
X035329Y028364D01*
X035287Y028391D01*
X035248Y028421D01*
X035211Y028454D01*
X035177Y028491D01*
X035146Y028529D01*
X035118Y028570D01*
X035094Y028613D01*
X035073Y028658D01*
X035055Y028705D01*
X035042Y028753D01*
X035032Y028801D01*
X035026Y028850D01*
X035024Y028900D01*
X038399Y028900D02*
X038401Y028950D01*
X038407Y028999D01*
X038417Y029047D01*
X038430Y029095D01*
X038448Y029142D01*
X038469Y029187D01*
X038493Y029230D01*
X038521Y029271D01*
X038552Y029309D01*
X038586Y029346D01*
X038623Y029379D01*
X038662Y029409D01*
X038704Y029436D01*
X038747Y029460D01*
X038793Y029480D01*
X038840Y029496D01*
X038888Y029509D01*
X038936Y029518D01*
X038986Y029523D01*
X039035Y029524D01*
X039085Y029521D01*
X039134Y029514D01*
X039183Y029503D01*
X039230Y029489D01*
X039276Y029470D01*
X039321Y029448D01*
X039363Y029423D01*
X039404Y029394D01*
X039442Y029363D01*
X039477Y029328D01*
X039510Y029290D01*
X039539Y029251D01*
X039565Y029208D01*
X039588Y029164D01*
X039607Y029119D01*
X039623Y029071D01*
X039635Y029023D01*
X039643Y028974D01*
X039647Y028925D01*
X039647Y028875D01*
X039643Y028826D01*
X039635Y028777D01*
X039623Y028729D01*
X039607Y028681D01*
X039588Y028636D01*
X039565Y028592D01*
X039539Y028549D01*
X039510Y028510D01*
X039477Y028472D01*
X039442Y028437D01*
X039404Y028406D01*
X039363Y028377D01*
X039321Y028352D01*
X039276Y028330D01*
X039230Y028311D01*
X039183Y028297D01*
X039134Y028286D01*
X039085Y028279D01*
X039035Y028276D01*
X038986Y028277D01*
X038936Y028282D01*
X038888Y028291D01*
X038840Y028304D01*
X038793Y028320D01*
X038747Y028340D01*
X038704Y028364D01*
X038662Y028391D01*
X038623Y028421D01*
X038586Y028454D01*
X038552Y028491D01*
X038521Y028529D01*
X038493Y028570D01*
X038469Y028613D01*
X038448Y028658D01*
X038430Y028705D01*
X038417Y028753D01*
X038407Y028801D01*
X038401Y028850D01*
X038399Y028900D01*
X042899Y028900D02*
X042901Y028950D01*
X042907Y028999D01*
X042917Y029047D01*
X042930Y029095D01*
X042948Y029142D01*
X042969Y029187D01*
X042993Y029230D01*
X043021Y029271D01*
X043052Y029309D01*
X043086Y029346D01*
X043123Y029379D01*
X043162Y029409D01*
X043204Y029436D01*
X043247Y029460D01*
X043293Y029480D01*
X043340Y029496D01*
X043388Y029509D01*
X043436Y029518D01*
X043486Y029523D01*
X043535Y029524D01*
X043585Y029521D01*
X043634Y029514D01*
X043683Y029503D01*
X043730Y029489D01*
X043776Y029470D01*
X043821Y029448D01*
X043863Y029423D01*
X043904Y029394D01*
X043942Y029363D01*
X043977Y029328D01*
X044010Y029290D01*
X044039Y029251D01*
X044065Y029208D01*
X044088Y029164D01*
X044107Y029119D01*
X044123Y029071D01*
X044135Y029023D01*
X044143Y028974D01*
X044147Y028925D01*
X044147Y028875D01*
X044143Y028826D01*
X044135Y028777D01*
X044123Y028729D01*
X044107Y028681D01*
X044088Y028636D01*
X044065Y028592D01*
X044039Y028549D01*
X044010Y028510D01*
X043977Y028472D01*
X043942Y028437D01*
X043904Y028406D01*
X043863Y028377D01*
X043821Y028352D01*
X043776Y028330D01*
X043730Y028311D01*
X043683Y028297D01*
X043634Y028286D01*
X043585Y028279D01*
X043535Y028276D01*
X043486Y028277D01*
X043436Y028282D01*
X043388Y028291D01*
X043340Y028304D01*
X043293Y028320D01*
X043247Y028340D01*
X043204Y028364D01*
X043162Y028391D01*
X043123Y028421D01*
X043086Y028454D01*
X043052Y028491D01*
X043021Y028529D01*
X042993Y028570D01*
X042969Y028613D01*
X042948Y028658D01*
X042930Y028705D01*
X042917Y028753D01*
X042907Y028801D01*
X042901Y028850D01*
X042899Y028900D01*
D13*
X037273Y026025D03*
X037273Y025025D03*
X035148Y023025D03*
X034148Y023025D03*
X033148Y023025D03*
X032773Y020400D03*
X033773Y020400D03*
X030898Y020400D03*
X029898Y020400D03*
X029273Y026900D03*
X028773Y027650D03*
X028273Y026900D03*
X026773Y026775D03*
X026273Y027525D03*
X025773Y026775D03*
X016523Y015400D03*
X016023Y014650D03*
X015523Y015400D03*
X015523Y012650D03*
X018523Y012650D03*
X012148Y010400D03*
X012148Y006400D03*
D14*
X015158Y013775D02*
X015638Y013775D01*
X019158Y013775D02*
X019638Y013775D01*
X029898Y013765D02*
X029898Y013285D01*
X029898Y012640D02*
X029898Y012160D01*
X030898Y012160D02*
X030898Y012640D01*
X030898Y013285D02*
X030898Y013765D01*
X031898Y013765D02*
X031898Y013285D01*
X031898Y012640D02*
X031898Y012160D01*
X032898Y012160D02*
X032898Y012640D01*
X032898Y013285D02*
X032898Y013765D01*
X033898Y013765D02*
X033898Y013285D01*
X033898Y012640D02*
X033898Y012160D01*
X033898Y010640D02*
X033898Y010160D01*
X032898Y010160D02*
X032898Y010640D01*
X031898Y010640D02*
X031898Y010160D01*
X030898Y010160D02*
X030898Y010640D01*
X029898Y010640D02*
X029898Y010160D01*
X029898Y015285D02*
X029898Y015765D01*
X029898Y016410D02*
X029898Y016890D01*
X030898Y016890D02*
X030898Y016410D01*
X030898Y015765D02*
X030898Y015285D01*
X031898Y015285D02*
X031898Y015765D01*
X031898Y016410D02*
X031898Y016890D01*
X032898Y016890D02*
X032898Y016410D01*
X032898Y015765D02*
X032898Y015285D01*
X033898Y015285D02*
X033898Y015765D01*
X033898Y016410D02*
X033898Y016890D01*
X033898Y018410D02*
X033898Y018890D01*
X032898Y018890D02*
X032898Y018410D01*
X031898Y018410D02*
X031898Y018890D01*
X030898Y018890D02*
X030898Y018410D01*
X029898Y018410D02*
X029898Y018890D01*
X037023Y018515D02*
X037023Y018035D01*
X037023Y017265D02*
X037023Y016785D01*
X038023Y016785D02*
X038023Y017265D01*
X038023Y018035D02*
X038023Y018515D01*
X039023Y018515D02*
X039023Y018035D01*
X039023Y017265D02*
X039023Y016785D01*
X040023Y016785D02*
X040023Y017265D01*
X040023Y018035D02*
X040023Y018515D01*
X041023Y018515D02*
X041023Y018035D01*
X041023Y017265D02*
X041023Y016785D01*
X042023Y016785D02*
X042023Y017265D01*
X042023Y018035D02*
X042023Y018515D01*
X043023Y018515D02*
X043023Y018035D01*
X043023Y017265D02*
X043023Y016785D01*
X044023Y016785D02*
X044023Y017265D01*
X044023Y018035D02*
X044023Y018515D01*
X044023Y019285D02*
X044023Y019765D01*
X043023Y019765D02*
X043023Y019285D01*
X042023Y019285D02*
X042023Y019765D01*
X041023Y019765D02*
X041023Y019285D01*
X040023Y019285D02*
X040023Y019765D01*
X039023Y019765D02*
X039023Y019285D01*
X038023Y019285D02*
X038023Y019765D01*
X037023Y019765D02*
X037023Y019285D01*
X037023Y022285D02*
X037023Y022765D01*
X038023Y022765D02*
X038023Y022285D01*
X039023Y022285D02*
X039023Y022765D01*
X040023Y022765D02*
X040023Y022285D01*
X041023Y022285D02*
X041023Y022765D01*
X042023Y022765D02*
X042023Y022285D01*
X043023Y022285D02*
X043023Y022765D01*
X044023Y022765D02*
X044023Y022285D01*
X044023Y015640D02*
X044023Y015160D01*
X043023Y015160D02*
X043023Y015640D01*
X042023Y015640D02*
X042023Y015160D01*
X041023Y015160D02*
X041023Y015640D01*
X040023Y015640D02*
X040023Y015160D01*
X039023Y015160D02*
X039023Y015640D01*
X038023Y015640D02*
X038023Y015160D01*
X037023Y015160D02*
X037023Y015640D01*
X037023Y012640D02*
X037023Y012160D01*
X037023Y011390D02*
X037023Y010910D01*
X037023Y010140D02*
X037023Y009660D01*
X038023Y009660D02*
X038023Y010140D01*
X038023Y010910D02*
X038023Y011390D01*
X038023Y012160D02*
X038023Y012640D01*
X039023Y012640D02*
X039023Y012160D01*
X039023Y011390D02*
X039023Y010910D01*
X039023Y010140D02*
X039023Y009660D01*
X040023Y009660D02*
X040023Y010140D01*
X040023Y010910D02*
X040023Y011390D01*
X040023Y012160D02*
X040023Y012640D01*
X041023Y012640D02*
X041023Y012160D01*
X041023Y011390D02*
X041023Y010910D01*
X041023Y010140D02*
X041023Y009660D01*
X042023Y009660D02*
X042023Y010140D01*
X042023Y010910D02*
X042023Y011390D01*
X042023Y012160D02*
X042023Y012640D01*
X043023Y012640D02*
X043023Y012160D01*
X043023Y011390D02*
X043023Y010910D01*
X043023Y010140D02*
X043023Y009660D01*
X044023Y009660D02*
X044023Y010140D01*
X044023Y010910D02*
X044023Y011390D01*
X044023Y012160D02*
X044023Y012640D01*
X044023Y007890D02*
X044023Y007410D01*
X043023Y007410D02*
X043023Y007890D01*
X042023Y007890D02*
X042023Y007410D01*
X041023Y007410D02*
X041023Y007890D01*
X040023Y007890D02*
X040023Y007410D01*
X039023Y007410D02*
X039023Y007890D01*
X038023Y007890D02*
X038023Y007410D01*
X037023Y007410D02*
X037023Y007890D01*
X037023Y004890D02*
X037023Y004410D01*
X037023Y003515D02*
X037023Y003035D01*
X037023Y002390D02*
X037023Y001910D01*
X038023Y001910D02*
X038023Y002390D01*
X038023Y003035D02*
X038023Y003515D01*
X038023Y004410D02*
X038023Y004890D01*
X039023Y004890D02*
X039023Y004410D01*
X039023Y003515D02*
X039023Y003035D01*
X039023Y002390D02*
X039023Y001910D01*
X040023Y001910D02*
X040023Y002390D01*
X040023Y003035D02*
X040023Y003515D01*
X040023Y004410D02*
X040023Y004890D01*
X041023Y004890D02*
X041023Y004410D01*
X041023Y003515D02*
X041023Y003035D01*
X041023Y002390D02*
X041023Y001910D01*
X042023Y001910D02*
X042023Y002390D01*
X042023Y003035D02*
X042023Y003515D01*
X042023Y004410D02*
X042023Y004890D01*
X043023Y004890D02*
X043023Y004410D01*
X043023Y003515D02*
X043023Y003035D01*
X043023Y002390D02*
X043023Y001910D01*
X044023Y001910D02*
X044023Y002390D01*
X044023Y003035D02*
X044023Y003515D01*
X044023Y004410D02*
X044023Y004890D01*
X012513Y024275D02*
X012033Y024275D01*
X011263Y024275D02*
X010783Y024275D01*
X010783Y025275D02*
X011263Y025275D01*
X012033Y025275D02*
X012513Y025275D01*
X012513Y026275D02*
X012033Y026275D01*
X011263Y026275D02*
X010783Y026275D01*
X010783Y027275D02*
X011263Y027275D01*
X012033Y027275D02*
X012513Y027275D01*
X012513Y028275D02*
X012033Y028275D01*
X011263Y028275D02*
X010783Y028275D01*
X010783Y029275D02*
X011263Y029275D01*
X012033Y029275D02*
X012513Y029275D01*
X012513Y030275D02*
X012033Y030275D01*
X011263Y030275D02*
X010783Y030275D01*
X010783Y031275D02*
X011263Y031275D01*
X012033Y031275D02*
X012513Y031275D01*
D15*
X013973Y030775D02*
X014573Y030775D01*
X014573Y029775D02*
X013973Y029775D01*
X013973Y028775D02*
X014573Y028775D01*
X014573Y027775D02*
X013973Y027775D01*
X013973Y026775D02*
X014573Y026775D01*
X014573Y025775D02*
X013973Y025775D01*
X007523Y021950D02*
X007523Y021350D01*
X006523Y021350D02*
X006523Y021950D01*
X006773Y015700D02*
X006773Y015100D01*
X007773Y015100D02*
X007773Y015700D01*
X008773Y015700D02*
X008773Y015100D01*
X009773Y015100D02*
X009773Y015700D01*
X010773Y015700D02*
X010773Y015100D01*
X011773Y015100D02*
X011773Y015700D01*
X012773Y015700D02*
X012773Y015100D01*
X013773Y015100D02*
X013773Y015700D01*
X018023Y015700D02*
X018023Y015100D01*
X019023Y015100D02*
X019023Y015700D01*
X023471Y021570D02*
X024071Y021570D01*
X024071Y022570D02*
X023471Y022570D01*
X027523Y022350D02*
X027523Y022950D01*
X028523Y022950D02*
X028523Y022350D01*
X029523Y022350D02*
X029523Y022950D01*
X029398Y024975D02*
X029398Y025575D01*
X028398Y025575D02*
X028398Y024975D01*
X027398Y024975D02*
X027398Y025575D01*
X007198Y010775D02*
X006598Y010775D01*
X006598Y009775D02*
X007198Y009775D01*
X007198Y008775D02*
X006598Y008775D01*
X006598Y007775D02*
X007198Y007775D01*
X007198Y006775D02*
X006598Y006775D01*
X006598Y005775D02*
X007198Y005775D01*
D16*
X019444Y019741D02*
X019444Y020521D01*
X017094Y020541D02*
X017094Y021321D01*
X021794Y021321D02*
X021794Y020541D01*
X021794Y025341D02*
X021794Y026121D01*
X017094Y026121D02*
X017094Y025341D01*
D17*
X017302Y029544D02*
X017302Y030249D01*
X019302Y030249D02*
X019302Y029544D01*
X021302Y029544D02*
X021302Y030249D01*
X023302Y030249D02*
X023302Y029544D01*
D18*
X025508Y029631D02*
X025508Y030419D01*
X027004Y031206D02*
X027792Y031206D01*
X027792Y028805D02*
X027004Y028805D01*
D19*
X019023Y002650D03*
D20*
X018023Y002650D03*
X017023Y002650D03*
X016023Y002650D03*
X015023Y002650D03*
X015023Y001650D03*
X016023Y001650D03*
X017023Y001650D03*
X018023Y001650D03*
X019023Y001650D03*
X014023Y001650D03*
X013023Y001650D03*
X012023Y001650D03*
X011023Y001650D03*
X010023Y001650D03*
X010023Y002650D03*
X011023Y002650D03*
X012023Y002650D03*
X013023Y002650D03*
X014023Y002650D03*
X009023Y002650D03*
X008023Y002650D03*
X007023Y002650D03*
X007023Y001650D03*
X008023Y001650D03*
X009023Y001650D03*
D21*
X008093Y024272D03*
X008093Y025206D03*
X008093Y026094D03*
X008093Y027028D03*
D22*
X007148Y027933D03*
X007148Y023367D03*
D23*
X006648Y029204D03*
X006648Y031346D03*
X009404Y031346D03*
X009404Y029204D03*
D24*
X009365Y020525D03*
X007681Y019525D03*
D25*
X010898Y020525D03*
X011898Y020525D03*
X013648Y020525D03*
X014648Y020525D03*
X013273Y018650D03*
X012273Y018650D03*
X012273Y022400D03*
X013273Y022400D03*
D26*
X013898Y022900D02*
X013898Y021025D01*
X014148Y020775D01*
X014148Y019525D01*
X013273Y018650D01*
X013648Y020525D02*
X012898Y021275D01*
X012898Y025525D01*
X012773Y025650D01*
X012773Y025900D01*
X012648Y025900D01*
X012273Y026275D01*
X013273Y025150D02*
X013273Y023525D01*
X013898Y022900D01*
X012273Y022400D02*
X012273Y024275D01*
X013273Y025150D02*
X013523Y025400D01*
X013523Y027900D01*
X013148Y028275D01*
X012273Y028275D01*
X011648Y030150D02*
X011648Y020775D01*
X011898Y020525D01*
X011648Y030150D02*
X011773Y030275D01*
X012273Y030275D01*
X026273Y029275D02*
X026273Y027525D01*
X026523Y028275D02*
X026398Y028400D01*
X026398Y029150D01*
X026648Y029400D01*
X029273Y029400D01*
X031523Y027150D01*
X032273Y027150D01*
X032648Y026775D01*
X032648Y026150D01*
X032773Y026025D01*
X033773Y026025D01*
X034148Y026400D01*
X034148Y025775D02*
X030398Y025775D01*
X029273Y026900D01*
X028773Y027650D02*
X028773Y025775D01*
X028898Y025650D01*
X028898Y023150D01*
X029023Y023025D01*
X029023Y021525D01*
X029210Y021338D01*
X029273Y021400D01*
X034273Y021400D01*
X036773Y023900D01*
X036148Y023900D01*
X036773Y023900D02*
X040398Y023900D01*
X041099Y024468D01*
X041591Y024468D01*
X042523Y025400D01*
X042773Y026025D02*
X042773Y026150D01*
X043023Y026400D01*
X042773Y026025D02*
X039773Y026025D01*
X039398Y026400D01*
X037273Y026400D01*
X037273Y026025D01*
X037273Y026400D02*
X035148Y026400D01*
X035148Y024025D01*
X034148Y023025D01*
X034898Y023275D02*
X035148Y023025D01*
X035148Y022650D01*
X035023Y022525D01*
X029648Y022525D01*
X029523Y022650D01*
X028523Y022650D02*
X027898Y023275D01*
X027898Y025525D01*
X027898Y026400D01*
X027898Y028025D01*
X028023Y028150D01*
X029523Y028150D01*
X031273Y026400D01*
X032148Y026400D01*
X033148Y026400D02*
X033148Y027025D01*
X033398Y027275D01*
X040148Y027275D01*
X041023Y026400D01*
X042023Y026400D02*
X042148Y026525D01*
X042148Y027025D01*
X042273Y027150D01*
X042523Y027150D01*
X039773Y029900D01*
X031023Y029900D01*
X030773Y029900D01*
X026898Y029900D01*
X026273Y029275D01*
X026398Y029650D02*
X026398Y030400D01*
X027204Y031206D01*
X027398Y031206D01*
X027398Y029150D02*
X027398Y028805D01*
X027398Y025275D01*
X028273Y025400D02*
X028398Y025275D01*
X028585Y025088D01*
X028273Y025400D02*
X028273Y026900D01*
X026773Y026775D02*
X026773Y028150D01*
X026648Y028275D01*
X026523Y028275D01*
X031648Y025400D02*
X031773Y025275D01*
X031773Y023900D01*
X032648Y023025D01*
X033148Y023025D01*
X034398Y021150D02*
X036648Y023400D01*
X036898Y023400D01*
X037148Y023650D01*
X041398Y023650D01*
X041773Y023650D01*
X043273Y025150D01*
X043273Y025525D01*
X043648Y025900D01*
X043648Y026900D01*
X043398Y027150D01*
X042523Y027150D01*
X041398Y023650D02*
X041398Y022650D01*
X041273Y022525D01*
X041023Y022525D01*
X041773Y022775D02*
X042023Y022525D01*
X042023Y021900D01*
X041898Y021775D01*
X040523Y021775D01*
X040398Y021900D01*
X040398Y022900D01*
X040148Y023150D01*
X039773Y023150D01*
X039648Y023025D01*
X039648Y021650D01*
X039773Y021525D01*
X042023Y021525D01*
X042148Y021400D01*
X042148Y021150D01*
X043398Y019900D01*
X043398Y019400D01*
X043898Y018900D01*
X044273Y018900D01*
X044648Y018525D01*
X044648Y016275D01*
X044523Y016150D01*
X042773Y016150D01*
X042023Y015400D01*
X041023Y015400D02*
X041023Y015775D01*
X040648Y016150D01*
X039773Y016150D01*
X039648Y016025D01*
X039648Y014525D01*
X040398Y013775D01*
X042398Y013775D01*
X042849Y013324D01*
X043572Y013324D01*
X043572Y008824D01*
X042197Y008824D01*
X041023Y007650D01*
X040273Y008400D01*
X039648Y008400D01*
X039523Y008275D01*
X039523Y007025D01*
X040148Y006400D01*
X043523Y006400D01*
X043523Y004150D01*
X043773Y003900D01*
X044523Y003900D01*
X044773Y003650D01*
X044773Y000900D01*
X033648Y000900D01*
X028648Y005900D01*
X028648Y020400D01*
X029398Y021150D01*
X034398Y021150D01*
X033898Y020400D02*
X036648Y023150D01*
X038398Y023150D01*
X038398Y021400D01*
X039148Y020650D01*
X042023Y020650D01*
X042398Y020275D01*
X042398Y018900D01*
X043023Y018275D01*
X044023Y018275D02*
X044023Y018525D01*
X043023Y019525D01*
X044023Y019525D02*
X042523Y021025D01*
X042523Y021650D01*
X040023Y021650D01*
X040023Y022525D01*
X038023Y022525D02*
X038023Y021650D01*
X036523Y020150D01*
X036523Y019025D01*
X036648Y018900D01*
X037273Y018900D01*
X037398Y018775D01*
X037398Y017650D01*
X038023Y017025D01*
X037773Y017650D02*
X037648Y017775D01*
X037648Y019025D01*
X037148Y019525D01*
X037023Y019525D01*
X038023Y019525D02*
X038773Y020400D01*
X041648Y020400D01*
X041648Y017025D01*
X042023Y017025D01*
X041523Y016400D02*
X043898Y016400D01*
X044023Y016525D01*
X044023Y017025D01*
X042023Y018275D02*
X042023Y019525D01*
X041523Y020150D02*
X041523Y016400D01*
X040023Y017025D02*
X039648Y017400D01*
X039648Y017525D01*
X039523Y017650D01*
X037773Y017650D01*
X038023Y018275D02*
X038648Y018900D01*
X039523Y018900D01*
X040023Y019400D01*
X040023Y019525D01*
X039148Y019650D02*
X039148Y020150D01*
X039273Y020275D01*
X041398Y020275D01*
X041523Y020150D01*
X041023Y019525D02*
X040023Y018525D01*
X040023Y018275D01*
X039023Y019525D02*
X039148Y019650D01*
X037023Y018275D02*
X035773Y019525D01*
X033648Y019525D01*
X033273Y019150D01*
X033273Y018025D01*
X032648Y018025D01*
X032398Y018275D01*
X032398Y019150D01*
X031898Y019650D01*
X030023Y019650D01*
X029773Y019400D01*
X029773Y018525D01*
X029898Y018650D01*
X029398Y019400D02*
X029398Y014900D01*
X029773Y014525D01*
X030773Y014525D01*
X031273Y014025D01*
X031273Y006400D01*
X036273Y001400D01*
X042148Y001400D01*
X042398Y001650D01*
X042398Y002650D01*
X043023Y003275D01*
X043398Y003775D02*
X043273Y003900D01*
X042398Y003900D01*
X042398Y005275D01*
X041898Y005775D01*
X037648Y005775D01*
X037648Y003900D01*
X037773Y004025D01*
X038398Y004025D01*
X039023Y004650D01*
X038523Y003900D02*
X039773Y003900D01*
X040023Y004150D01*
X040023Y004650D01*
X041023Y004650D02*
X041023Y004400D01*
X040023Y003275D01*
X040023Y002150D02*
X039148Y001525D01*
X037648Y001525D01*
X037398Y001775D01*
X037398Y004150D01*
X037023Y004525D01*
X037023Y004650D01*
X038023Y004650D02*
X038023Y005650D01*
X041273Y005650D01*
X041523Y005400D01*
X041523Y002900D01*
X042023Y002150D01*
X043023Y002150D02*
X043023Y001775D01*
X042523Y001275D01*
X035898Y001275D01*
X030898Y006275D01*
X030898Y009400D01*
X030523Y009775D01*
X030523Y012025D01*
X030898Y012400D01*
X031898Y013525D02*
X032773Y014400D01*
X034148Y014400D01*
X034523Y014025D01*
X034523Y013650D01*
X035023Y013150D01*
X040398Y013150D01*
X040648Y012900D01*
X040648Y011525D01*
X041023Y011150D01*
X042398Y010525D02*
X043023Y009900D01*
X043398Y009400D02*
X043398Y010400D01*
X043273Y010400D01*
X043148Y010525D01*
X042773Y010525D01*
X042773Y010650D01*
X042648Y010775D01*
X042648Y013025D01*
X042148Y013525D01*
X035773Y013525D01*
X034523Y014775D01*
X031898Y014775D01*
X031898Y015525D01*
X032898Y015525D02*
X032898Y014900D01*
X034648Y014900D01*
X035898Y013650D01*
X042273Y013650D01*
X042773Y013150D01*
X043023Y013150D01*
X043398Y012775D01*
X043398Y011775D01*
X043023Y011400D01*
X043023Y011150D01*
X042398Y010525D02*
X042398Y012775D01*
X042273Y012900D01*
X042273Y013150D01*
X042023Y013400D01*
X035648Y013400D01*
X034398Y014650D01*
X031648Y014650D01*
X030898Y015400D01*
X030898Y015525D01*
X032898Y016650D02*
X032898Y016900D01*
X033273Y017275D01*
X036773Y017275D01*
X037023Y017025D01*
X039023Y017025D02*
X039023Y016025D01*
X035273Y016025D01*
X034648Y016650D01*
X033898Y016650D01*
X034148Y014150D02*
X032898Y014150D01*
X032898Y013525D01*
X033898Y013525D02*
X033898Y013275D01*
X034398Y012775D01*
X034398Y012400D01*
X035398Y011400D01*
X035398Y010275D01*
X036523Y009150D01*
X039023Y009150D01*
X039023Y009900D01*
X039773Y008275D02*
X039648Y008150D01*
X039648Y007150D01*
X040273Y006525D01*
X043648Y006525D01*
X043648Y004275D01*
X043898Y004025D01*
X044648Y004025D01*
X044898Y003775D01*
X044898Y000775D01*
X033523Y000775D01*
X028523Y005775D01*
X028523Y020650D01*
X029210Y021338D01*
X028398Y022525D02*
X028398Y005650D01*
X033398Y000650D01*
X045023Y000650D01*
X045023Y004025D01*
X044398Y004650D01*
X044023Y004650D01*
X044023Y006775D01*
X040523Y006775D01*
X040023Y007275D01*
X040023Y007650D01*
X040398Y007275D02*
X040398Y008025D01*
X040148Y008275D01*
X039773Y008275D01*
X040398Y007275D02*
X040648Y007025D01*
X041898Y007025D01*
X041898Y007525D01*
X042023Y007650D01*
X041523Y009150D02*
X043148Y009150D01*
X043398Y009400D01*
X041523Y009150D02*
X041023Y009650D01*
X041023Y009900D01*
X038023Y007650D02*
X038023Y007025D01*
X037523Y006650D01*
X037523Y002775D01*
X038023Y002150D01*
X038023Y003275D02*
X038523Y003900D01*
X042023Y003275D02*
X042023Y004650D01*
X043023Y004650D02*
X043023Y004400D01*
X044023Y003275D01*
X043398Y003775D02*
X043398Y002400D01*
X043773Y002400D01*
X044023Y002150D01*
X044023Y004650D02*
X044148Y004650D01*
X044773Y005275D01*
X044773Y011650D01*
X044023Y012400D01*
X044023Y013525D01*
X043898Y013650D01*
X043773Y013650D01*
X042773Y014650D01*
X040773Y014650D01*
X040023Y015400D01*
X044023Y012400D02*
X044898Y013275D01*
X044898Y018650D01*
X044023Y019525D01*
X034648Y025400D02*
X034523Y025400D01*
X034148Y025775D01*
X028523Y022650D02*
X028398Y022525D01*
X030398Y020400D02*
X029398Y019400D01*
X030398Y020400D02*
X030898Y020400D01*
X033773Y020400D02*
X033898Y020400D01*
X034148Y014150D02*
X034273Y014025D01*
X034273Y013275D01*
X034648Y012900D01*
X034648Y012400D01*
X037023Y010025D01*
X037023Y009900D01*
X037023Y007650D02*
X036523Y007150D01*
X033773Y007150D01*
X033398Y007525D01*
X033398Y010650D01*
X033898Y011150D01*
X033898Y012400D01*
X018648Y006650D02*
X018648Y003025D01*
X019023Y002650D01*
X015023Y002650D02*
X014648Y003025D01*
X010648Y003025D01*
X010398Y002775D01*
X010398Y002400D01*
X010023Y002025D01*
X009898Y001900D01*
X009898Y001150D01*
X009843Y001095D01*
X006663Y001095D01*
X006663Y001833D01*
X007023Y002193D01*
X007023Y002650D01*
X010023Y002025D02*
X010023Y001650D01*
X015078Y006875D02*
X014773Y007207D01*
X014773Y007400D01*
X014648Y007525D01*
X014648Y008150D01*
X013773Y008150D01*
X013773Y009400D01*
X014148Y009775D01*
X014273Y009775D01*
X015078Y006875D02*
X018525Y006875D01*
X018574Y006826D01*
X018574Y006724D01*
X018648Y006650D01*
D27*
X018898Y007275D02*
X019773Y006400D01*
X019773Y001275D01*
X019273Y000775D01*
X011898Y000775D01*
X011023Y001650D01*
X010523Y001150D02*
X010523Y002150D01*
X017523Y002150D01*
X018023Y002650D01*
X018523Y002900D02*
X018523Y001275D01*
X018398Y001150D01*
X012523Y001150D01*
X012023Y001650D01*
X010523Y001150D02*
X010148Y000900D01*
X006398Y000900D01*
X006398Y003150D01*
X006648Y003275D01*
X007398Y003275D01*
X007773Y003650D01*
X007773Y007025D01*
X007023Y007775D01*
X006898Y007775D01*
X007148Y008775D02*
X008023Y007900D01*
X008023Y003525D01*
X007523Y003025D01*
X007523Y001400D01*
X007773Y001248D01*
X009273Y001248D01*
X009523Y001400D01*
X009523Y003025D01*
X009773Y003525D01*
X016648Y003525D01*
X016648Y003025D01*
X017023Y002650D01*
X018523Y002900D02*
X017023Y004650D01*
X015773Y006275D01*
X015523Y006650D01*
X014273Y006775D01*
X015273Y007275D02*
X018898Y007275D01*
X018523Y008775D02*
X014273Y008775D01*
X015273Y009275D02*
X015273Y011525D01*
X016523Y012775D01*
X016523Y015400D01*
X016773Y015775D02*
X015898Y015775D01*
X015523Y015400D01*
X016773Y015775D02*
X017148Y015400D01*
X018023Y015400D01*
X019398Y013775D02*
X019398Y009650D01*
X018523Y008775D01*
X015273Y006275D02*
X012648Y006275D01*
X012523Y006400D01*
X012148Y006400D01*
X011023Y007775D02*
X008523Y005275D01*
X008523Y002150D01*
X009023Y001650D01*
X011023Y007775D02*
X014273Y007775D01*
X014273Y009775D02*
X013648Y010400D01*
X012148Y010400D01*
X011523Y009775D01*
X006898Y009775D01*
X006898Y008775D02*
X007148Y008775D01*
X009365Y020525D02*
X008240Y021650D01*
X007523Y021650D01*
X008023Y022275D01*
X008023Y023400D01*
X009398Y024775D01*
X009398Y028150D01*
X008773Y028775D01*
X008773Y029750D01*
X009297Y030275D01*
X008093Y027028D02*
X006840Y027025D01*
X006523Y026775D01*
X006398Y026650D01*
X006398Y021775D01*
X006523Y021650D01*
X025898Y027275D02*
X026273Y026900D01*
X026273Y023900D01*
X027523Y022650D01*
X025898Y027275D02*
X025898Y029275D01*
X026273Y029650D01*
X026398Y029650D01*
D28*
X023690Y022650D02*
X017023Y022650D01*
X017094Y022579D01*
X017094Y020931D01*
X021794Y020931D02*
X023133Y020931D01*
X023771Y021570D01*
X023771Y022570D02*
X023690Y022650D01*
D29*
X023773Y025150D03*
X023773Y019525D03*
X026148Y012400D03*
X035398Y005775D03*
X035547Y020605D03*
X014273Y024150D03*
X009023Y022650D03*
M02*
