G75*
%MOIN*%
%OFA0B0*%
%FSLAX24Y24*%
%IPPOS*%
%LPD*%
%AMOC8*
5,1,8,0,0,1.08239X$1,22.5*
%
%ADD10C,0.0100*%
%ADD11C,0.0160*%
%ADD12C,0.0050*%
%ADD13C,0.0030*%
%ADD14C,0.0060*%
%ADD15C,0.0010*%
%ADD16C,0.0020*%
%ADD17C,0.0000*%
%ADD18C,0.0040*%
%ADD19C,0.0070*%
%ADD20C,0.0080*%
%ADD21C,0.0320*%
%ADD22C,0.0240*%
%ADD23C,0.0200*%
D10*
X006023Y000400D02*
X006023Y016525D01*
X006028Y016521D02*
X020023Y016521D01*
X020023Y000400D01*
X006023Y000400D01*
X024773Y000400D02*
X024773Y031900D01*
X019074Y025861D02*
X019194Y025731D01*
X019444Y025481D01*
X019194Y022631D02*
X019194Y022131D01*
X019194Y021631D01*
X019694Y021631D02*
X019694Y022131D01*
X019694Y022631D01*
X019194Y022631D01*
X029703Y020003D02*
X029733Y019955D01*
X029766Y019910D01*
X029802Y019867D01*
X029840Y019826D01*
X029882Y019789D01*
X029926Y019754D01*
X029972Y019723D01*
X030021Y019694D01*
X030071Y019670D01*
X030123Y019649D01*
X030177Y019631D01*
X030231Y019618D01*
X030286Y019608D01*
X030342Y019602D01*
X030398Y019600D01*
X029692Y020776D02*
X029719Y020823D01*
X029749Y020868D01*
X029782Y020911D01*
X029818Y020951D01*
X029857Y020989D01*
X029898Y021024D01*
X029941Y021057D01*
X029986Y021086D01*
X030034Y021112D01*
X030083Y021135D01*
X030133Y021155D01*
X030184Y021171D01*
X030237Y021184D01*
X030290Y021193D01*
X030344Y021198D01*
X030398Y021200D01*
X031009Y019883D02*
X030973Y019844D01*
X030934Y019806D01*
X030894Y019772D01*
X030851Y019740D01*
X030806Y019712D01*
X030759Y019686D01*
X030710Y019663D01*
X030660Y019644D01*
X030609Y019628D01*
X030557Y019616D01*
X030505Y019607D01*
X030451Y019602D01*
X030398Y019600D01*
X031013Y020912D02*
X030977Y020952D01*
X030938Y020990D01*
X030897Y021025D01*
X030854Y021057D01*
X030809Y021087D01*
X030762Y021113D01*
X030713Y021135D01*
X030662Y021155D01*
X030611Y021171D01*
X030559Y021184D01*
X030505Y021193D01*
X030452Y021198D01*
X030398Y021200D01*
X032578Y020003D02*
X032608Y019955D01*
X032641Y019910D01*
X032677Y019867D01*
X032715Y019826D01*
X032757Y019789D01*
X032801Y019754D01*
X032847Y019723D01*
X032896Y019694D01*
X032946Y019670D01*
X032998Y019649D01*
X033052Y019631D01*
X033106Y019618D01*
X033161Y019608D01*
X033217Y019602D01*
X033273Y019600D01*
X032567Y020776D02*
X032594Y020823D01*
X032624Y020868D01*
X032657Y020911D01*
X032693Y020951D01*
X032732Y020989D01*
X032773Y021024D01*
X032816Y021057D01*
X032861Y021086D01*
X032909Y021112D01*
X032958Y021135D01*
X033008Y021155D01*
X033059Y021171D01*
X033112Y021184D01*
X033165Y021193D01*
X033219Y021198D01*
X033273Y021200D01*
X033884Y019883D02*
X033848Y019844D01*
X033809Y019806D01*
X033769Y019772D01*
X033726Y019740D01*
X033681Y019712D01*
X033634Y019686D01*
X033585Y019663D01*
X033535Y019644D01*
X033484Y019628D01*
X033432Y019616D01*
X033380Y019607D01*
X033326Y019602D01*
X033273Y019600D01*
X033888Y020912D02*
X033852Y020952D01*
X033813Y020990D01*
X033772Y021025D01*
X033729Y021057D01*
X033684Y021087D01*
X033637Y021113D01*
X033588Y021135D01*
X033537Y021155D01*
X033486Y021171D01*
X033434Y021184D01*
X033380Y021193D01*
X033327Y021198D01*
X033273Y021200D01*
D11*
X005898Y032021D02*
X005898Y000275D01*
X045268Y000275D01*
X045268Y032021D01*
X005898Y032021D01*
X005898Y032025D02*
X005898Y022775D01*
X005898Y018650D02*
X010148Y018650D01*
X010148Y017150D01*
X015523Y017150D01*
X015523Y018400D01*
X024773Y018400D01*
X024773Y018650D01*
X015523Y018400D02*
X015523Y031900D01*
X010148Y031900D02*
X010148Y018650D01*
X005898Y032025D02*
X024648Y032025D01*
D12*
X030148Y032998D02*
X036648Y032998D01*
X036648Y024900D01*
X030148Y024900D01*
X030148Y032998D01*
X030198Y027625D02*
X030198Y027175D01*
X030508Y027175D02*
X030809Y027175D01*
X030658Y027175D02*
X030658Y027625D01*
X030508Y027475D01*
X030348Y027625D02*
X030048Y027625D01*
X029818Y026800D02*
X029660Y026800D01*
X029450Y026400D02*
X029300Y026400D01*
X029225Y026325D01*
X029225Y026250D01*
X029300Y026175D01*
X029450Y026175D01*
X029525Y026100D01*
X029525Y026025D01*
X029450Y025950D01*
X029300Y025950D01*
X029225Y026025D01*
X029065Y026025D02*
X029065Y026100D01*
X028990Y026175D01*
X028840Y026175D01*
X028764Y026250D01*
X028764Y026325D01*
X028840Y026400D01*
X028990Y026400D01*
X029065Y026325D01*
X029065Y026025D02*
X028990Y025950D01*
X028840Y025950D01*
X028764Y026025D01*
X028604Y025950D02*
X028604Y026250D01*
X028454Y026400D01*
X028304Y026250D01*
X028304Y025950D01*
X028304Y026175D02*
X028604Y026175D01*
X028144Y026175D02*
X028069Y026100D01*
X027844Y026100D01*
X027844Y025950D02*
X027844Y026400D01*
X028069Y026400D01*
X028144Y026325D01*
X028144Y026175D01*
X027948Y026250D02*
X029597Y026250D01*
X029525Y026325D02*
X029450Y026400D01*
X028886Y026800D02*
X028660Y026800D01*
X027948Y026250D02*
X027913Y026298D01*
X027880Y026348D01*
X027849Y026400D01*
X027822Y026454D01*
X027798Y026509D01*
X027778Y026566D01*
X027760Y026623D01*
X027746Y026681D01*
X027735Y026740D01*
X027728Y026800D01*
X027886Y026800D01*
X027698Y027050D02*
X027698Y027500D01*
X027548Y027500D02*
X027848Y027500D01*
X028008Y027425D02*
X028083Y027500D01*
X028233Y027500D01*
X028309Y027425D01*
X028309Y027350D01*
X028233Y027275D01*
X028309Y027200D01*
X028309Y027125D01*
X028233Y027050D01*
X028083Y027050D01*
X028008Y027125D01*
X028158Y027275D02*
X028233Y027275D01*
X028463Y027903D02*
X028404Y027883D01*
X028347Y027860D01*
X028290Y027833D01*
X028236Y027802D01*
X028183Y027769D01*
X028133Y027732D01*
X028084Y027693D01*
X028039Y027650D01*
X027995Y027605D01*
X027955Y027558D01*
X027917Y027508D01*
X027882Y027456D01*
X027851Y027402D01*
X027823Y027347D01*
X027798Y027290D01*
X027777Y027231D01*
X027759Y027171D01*
X027744Y027110D01*
X027734Y027049D01*
X027727Y026987D01*
X027723Y026925D01*
X027724Y026862D01*
X027728Y026800D01*
X027318Y026675D02*
X027160Y026675D01*
X027148Y026400D02*
X026923Y026400D01*
X026923Y025950D01*
X027148Y025950D01*
X027223Y026025D01*
X027223Y026325D01*
X027148Y026400D01*
X027383Y026400D02*
X027383Y025950D01*
X027608Y025950D01*
X027684Y026025D01*
X027684Y026100D01*
X027608Y026175D01*
X027383Y026175D01*
X027383Y026400D02*
X027608Y026400D01*
X027684Y026325D01*
X027684Y026250D01*
X027608Y026175D01*
X027097Y026125D02*
X025448Y026125D01*
X025386Y026675D02*
X025228Y026675D01*
X026160Y026675D02*
X026386Y026675D01*
X025448Y026125D02*
X025413Y026173D01*
X025380Y026223D01*
X025349Y026275D01*
X025322Y026329D01*
X025298Y026384D01*
X025278Y026441D01*
X025260Y026498D01*
X025246Y026556D01*
X025235Y026615D01*
X025228Y026675D01*
X025224Y026737D01*
X025223Y026800D01*
X025227Y026862D01*
X025234Y026924D01*
X025244Y026985D01*
X025259Y027046D01*
X025277Y027106D01*
X025298Y027165D01*
X025323Y027222D01*
X025351Y027277D01*
X025382Y027331D01*
X025417Y027383D01*
X025455Y027433D01*
X025495Y027480D01*
X025539Y027525D01*
X025584Y027568D01*
X025633Y027607D01*
X025683Y027644D01*
X025736Y027677D01*
X025790Y027708D01*
X025847Y027735D01*
X025904Y027758D01*
X025963Y027778D01*
X026583Y027778D02*
X026643Y027758D01*
X026702Y027734D01*
X026759Y027706D01*
X026814Y027675D01*
X026868Y027640D01*
X026919Y027603D01*
X026968Y027562D01*
X027014Y027518D01*
X027058Y027472D01*
X027099Y027423D01*
X027137Y027372D01*
X027171Y027319D01*
X027203Y027263D01*
X027230Y027206D01*
X027255Y027147D01*
X027275Y027087D01*
X027293Y027026D01*
X027306Y026964D01*
X027315Y026901D01*
X027321Y026838D01*
X027323Y026774D01*
X027321Y026710D01*
X027315Y026647D01*
X027306Y026584D01*
X027292Y026522D01*
X027275Y026461D01*
X027254Y026401D01*
X027230Y026342D01*
X027202Y026285D01*
X027170Y026229D01*
X027135Y026176D01*
X027098Y026125D01*
X026573Y025500D02*
X026573Y025050D01*
X026423Y025050D02*
X026723Y025050D01*
X026423Y025350D02*
X026573Y025500D01*
X027123Y023775D02*
X027048Y023700D01*
X027048Y023400D01*
X027123Y023325D01*
X027273Y023325D01*
X027348Y023400D01*
X027348Y023550D01*
X027198Y023550D01*
X027348Y023700D02*
X027273Y023775D01*
X027123Y023775D01*
X027508Y023775D02*
X027733Y023775D01*
X027809Y023700D01*
X027809Y023625D01*
X027733Y023550D01*
X027508Y023550D01*
X027508Y023325D02*
X027733Y023325D01*
X027809Y023400D01*
X027809Y023475D01*
X027733Y023550D01*
X027969Y023475D02*
X028194Y023475D01*
X028269Y023550D01*
X028269Y023700D01*
X028194Y023775D01*
X027969Y023775D01*
X027969Y023325D01*
X028429Y023325D02*
X028429Y023625D01*
X028579Y023775D01*
X028729Y023625D01*
X028729Y023325D01*
X028889Y023400D02*
X028965Y023325D01*
X029115Y023325D01*
X029190Y023400D01*
X029190Y023475D01*
X029115Y023550D01*
X028965Y023550D01*
X028889Y023625D01*
X028889Y023700D01*
X028965Y023775D01*
X029115Y023775D01*
X029190Y023700D01*
X029350Y023700D02*
X029350Y023625D01*
X029425Y023550D01*
X029575Y023550D01*
X029650Y023475D01*
X029650Y023400D01*
X029575Y023325D01*
X029425Y023325D01*
X029350Y023400D01*
X029350Y023700D02*
X029425Y023775D01*
X029575Y023775D01*
X029650Y023700D01*
X028729Y023550D02*
X028429Y023550D01*
X027508Y023325D02*
X027508Y023775D01*
X026698Y022875D02*
X026698Y022425D01*
X026548Y022425D02*
X026848Y022425D01*
X026548Y022725D02*
X026698Y022875D01*
X023026Y022211D02*
X023026Y022060D01*
X022951Y021985D01*
X022801Y022135D02*
X022801Y022211D01*
X022876Y022286D01*
X022951Y022286D01*
X023026Y022211D01*
X022801Y022211D02*
X022726Y022286D01*
X022650Y022286D01*
X022575Y022211D01*
X022575Y022060D01*
X022650Y021985D01*
X022650Y021825D02*
X022801Y021825D01*
X022876Y021750D01*
X022876Y021525D01*
X023026Y021525D02*
X022575Y021525D01*
X022575Y021750D01*
X022650Y021825D01*
X022575Y021365D02*
X022575Y021215D01*
X022575Y021290D02*
X022951Y021290D01*
X023026Y021215D01*
X023026Y021140D01*
X022951Y021065D01*
X023022Y017568D02*
X023633Y017161D01*
X023633Y016960D02*
X023328Y016960D01*
X023226Y016859D01*
X023226Y016655D01*
X023328Y016553D01*
X023226Y016353D02*
X023226Y016047D01*
X023328Y015946D01*
X023531Y015946D01*
X023633Y016047D01*
X023633Y016353D01*
X023633Y016553D02*
X023022Y016553D01*
X023022Y015642D02*
X022921Y015642D01*
X023226Y015642D02*
X023633Y015642D01*
X023633Y015540D02*
X023633Y015744D01*
X023531Y015340D02*
X023633Y015238D01*
X023633Y014933D01*
X023836Y014933D02*
X023226Y014933D01*
X023226Y015238D01*
X023328Y015340D01*
X023531Y015340D01*
X023226Y015540D02*
X023226Y015642D01*
X023022Y014732D02*
X023633Y014325D01*
X023531Y014124D02*
X023633Y014023D01*
X023633Y013819D01*
X023531Y013717D01*
X023328Y013717D01*
X023226Y013819D01*
X023226Y014023D01*
X023328Y014124D01*
X023531Y014124D01*
X023633Y013516D02*
X023633Y013312D01*
X023633Y013414D02*
X023226Y013414D01*
X023226Y013312D01*
X023022Y013414D02*
X022921Y013414D01*
X023531Y013110D02*
X023633Y013110D01*
X023633Y013008D01*
X023531Y013008D01*
X023531Y013110D01*
X023531Y012808D02*
X023328Y012808D01*
X023226Y012706D01*
X023226Y012401D01*
X023226Y012200D02*
X023633Y012200D01*
X023633Y011895D01*
X023531Y011793D01*
X023226Y011793D01*
X023328Y011592D02*
X023633Y011592D01*
X023328Y011592D02*
X023226Y011490D01*
X023226Y011287D01*
X023328Y011185D01*
X023226Y010983D02*
X023226Y010780D01*
X023124Y010882D02*
X023531Y010882D01*
X023633Y010983D01*
X023633Y011185D02*
X023022Y011185D01*
X023022Y010477D02*
X022921Y010477D01*
X023226Y010477D02*
X023633Y010477D01*
X023633Y010578D02*
X023633Y010375D01*
X023633Y010174D02*
X023633Y009869D01*
X023531Y009767D01*
X023328Y009767D01*
X023226Y009869D01*
X023226Y010174D01*
X023735Y010174D01*
X023836Y010072D01*
X023836Y009971D01*
X023226Y010375D02*
X023226Y010477D01*
X023531Y009565D02*
X023633Y009565D01*
X023633Y009463D01*
X023531Y009463D01*
X023531Y009565D01*
X023633Y009263D02*
X023328Y009263D01*
X023226Y009161D01*
X023226Y008855D01*
X023633Y008855D01*
X023429Y008655D02*
X023429Y008248D01*
X023328Y008248D02*
X023226Y008350D01*
X023226Y008553D01*
X023328Y008655D01*
X023429Y008655D01*
X023633Y008553D02*
X023633Y008350D01*
X023531Y008248D01*
X023328Y008248D01*
X023328Y008047D02*
X023429Y008047D01*
X023429Y007640D01*
X023328Y007640D02*
X023226Y007742D01*
X023226Y007945D01*
X023328Y008047D01*
X023633Y007945D02*
X023633Y007742D01*
X023531Y007640D01*
X023328Y007640D01*
X023226Y007439D02*
X023226Y007337D01*
X023429Y007134D01*
X023226Y007134D02*
X023633Y007134D01*
X023633Y006933D02*
X023633Y006628D01*
X023531Y006526D01*
X023328Y006526D01*
X023226Y006628D01*
X023226Y006933D01*
X023735Y006933D01*
X023836Y006831D01*
X023836Y006729D01*
X024012Y006831D02*
X024623Y006831D01*
X024623Y007034D02*
X024623Y006627D01*
X024521Y006426D02*
X024623Y006325D01*
X024623Y006121D01*
X024521Y006019D01*
X024114Y006426D01*
X024521Y006426D01*
X024216Y006627D02*
X024012Y006831D01*
X024114Y006426D02*
X024012Y006325D01*
X024012Y006121D01*
X024114Y006019D01*
X024521Y006019D01*
X024623Y005819D02*
X024623Y005412D01*
X024216Y005819D01*
X024114Y005819D01*
X024012Y005717D01*
X024012Y005514D01*
X024114Y005412D01*
X023633Y005514D02*
X023226Y005717D01*
X023328Y005918D02*
X023226Y006020D01*
X023226Y006223D01*
X023328Y006325D01*
X023429Y006325D01*
X023429Y005918D01*
X023328Y005918D02*
X023531Y005918D01*
X023633Y006020D01*
X023633Y006223D01*
X023633Y005514D02*
X023226Y005310D01*
X023328Y005110D02*
X023633Y005110D01*
X023633Y004804D01*
X023531Y004703D01*
X023429Y004804D01*
X023429Y005110D01*
X023328Y005110D02*
X023226Y005008D01*
X023226Y004804D01*
X023226Y004502D02*
X023226Y004197D01*
X023328Y004095D01*
X023531Y004095D01*
X023633Y004197D01*
X023633Y004502D01*
X023022Y004502D01*
X022643Y004601D02*
X022643Y004703D01*
X022541Y004703D01*
X022541Y004601D01*
X022643Y004601D01*
X022643Y004401D02*
X022643Y003994D01*
X022643Y004197D02*
X022032Y004197D01*
X022236Y003994D01*
X022236Y003793D02*
X022643Y003590D01*
X022236Y003386D01*
X023022Y003287D02*
X023633Y002880D01*
X023633Y002677D02*
X023531Y002677D01*
X023531Y002576D01*
X023633Y002576D01*
X023633Y002677D01*
X023328Y002677D02*
X023328Y002576D01*
X023226Y002576D01*
X023226Y002677D01*
X023328Y002677D01*
X023328Y002375D02*
X023531Y002375D01*
X023633Y002273D01*
X023633Y001968D01*
X023633Y001766D02*
X023531Y001665D01*
X023124Y001665D01*
X023226Y001766D02*
X023226Y001563D01*
X023226Y001361D02*
X023226Y001158D01*
X023124Y001259D02*
X023531Y001259D01*
X023633Y001361D01*
X023633Y000957D02*
X023328Y000957D01*
X023226Y000855D01*
X023226Y000652D01*
X023328Y000550D01*
X023633Y000550D02*
X023022Y000550D01*
X022643Y000550D02*
X022032Y000550D01*
X022032Y000855D01*
X022134Y000957D01*
X022338Y000957D01*
X022439Y000855D01*
X022439Y000550D01*
X022236Y001158D02*
X022236Y001259D01*
X022643Y001259D01*
X022643Y001158D02*
X022643Y001361D01*
X022541Y001563D02*
X022134Y001563D01*
X022032Y001665D01*
X022032Y001868D01*
X022134Y001970D01*
X022032Y002171D02*
X022643Y002171D01*
X022541Y001970D02*
X022643Y001868D01*
X022643Y001665D01*
X022541Y001563D01*
X022032Y001259D02*
X021931Y001259D01*
X022338Y002171D02*
X022338Y002578D01*
X022643Y002578D02*
X022032Y002578D01*
X023226Y002273D02*
X023226Y001968D01*
X023836Y001968D01*
X024216Y001766D02*
X024012Y001563D01*
X024216Y001362D02*
X024216Y001057D01*
X024318Y000955D01*
X024521Y000955D01*
X024623Y001057D01*
X024623Y001362D01*
X024623Y001563D02*
X024419Y001766D01*
X024216Y001766D01*
X024419Y002576D02*
X024419Y002881D01*
X024318Y002983D01*
X024114Y002983D01*
X024012Y002881D01*
X024012Y002576D01*
X024623Y002576D01*
X024623Y003183D02*
X024623Y003387D01*
X024623Y003285D02*
X024216Y003285D01*
X024216Y003183D01*
X024012Y003285D02*
X023911Y003285D01*
X023633Y003487D02*
X023022Y003894D01*
X024012Y003894D02*
X024012Y003690D01*
X024114Y003589D01*
X024521Y003589D01*
X024623Y003690D01*
X024623Y003894D01*
X024521Y003996D01*
X024623Y004196D02*
X024012Y004196D01*
X024114Y003996D02*
X024012Y003894D01*
X024318Y004196D02*
X024318Y004603D01*
X024623Y004603D02*
X024012Y004603D01*
X022643Y005007D02*
X022541Y004905D01*
X022134Y005312D01*
X022541Y005312D01*
X022643Y005211D01*
X022643Y005007D01*
X022541Y004905D02*
X022134Y004905D01*
X022032Y005007D01*
X022032Y005211D01*
X022134Y005312D01*
X022541Y005513D02*
X022541Y005615D01*
X022643Y005615D01*
X022643Y005513D01*
X022541Y005513D01*
X022541Y005817D02*
X022643Y005919D01*
X022643Y006122D01*
X022541Y006224D01*
X022439Y006224D01*
X022338Y006122D01*
X022338Y006020D01*
X022338Y006122D02*
X022236Y006224D01*
X022134Y006224D01*
X022032Y006122D01*
X022032Y005919D01*
X022134Y005817D01*
X021871Y004775D02*
X013773Y004775D01*
X013773Y011275D01*
X021871Y011275D01*
X021871Y004775D01*
X023328Y002375D02*
X023226Y002273D01*
X024012Y000754D02*
X024216Y000550D01*
X024419Y000550D01*
X024623Y000754D01*
X024521Y007235D02*
X024623Y007337D01*
X024623Y007540D01*
X024521Y007642D01*
X024419Y007642D01*
X024318Y007540D01*
X024318Y007438D01*
X024318Y007540D02*
X024216Y007642D01*
X024114Y007642D01*
X024012Y007540D01*
X024012Y007337D01*
X024114Y007235D01*
X023633Y012401D02*
X023022Y012401D01*
X023531Y012808D02*
X023633Y012706D01*
X023633Y012401D01*
X019785Y014270D02*
X019484Y014270D01*
X019484Y014720D01*
X019785Y014720D01*
X019635Y014495D02*
X019484Y014495D01*
X019324Y014495D02*
X019024Y014495D01*
X018864Y014645D02*
X018864Y014720D01*
X018864Y014645D02*
X018714Y014495D01*
X018714Y014270D01*
X018714Y014495D02*
X018564Y014645D01*
X018564Y014720D01*
X019024Y014720D02*
X019024Y014270D01*
X019324Y014270D02*
X019324Y014720D01*
X018404Y014270D02*
X018103Y014270D01*
X018103Y014720D01*
X017943Y014645D02*
X017943Y014495D01*
X017868Y014420D01*
X017643Y014420D01*
X017643Y014270D02*
X017643Y014720D01*
X017868Y014720D01*
X017943Y014645D01*
X017793Y014420D02*
X017943Y014270D01*
X013838Y016075D02*
X013537Y016075D01*
X013688Y016075D02*
X013688Y016525D01*
X013537Y016375D01*
X011763Y014600D02*
X011763Y014525D01*
X011613Y014375D01*
X011613Y014150D01*
X011613Y014375D02*
X011462Y014525D01*
X011462Y014600D01*
X011302Y014450D02*
X011302Y014150D01*
X011302Y014375D02*
X011002Y014375D01*
X011002Y014450D02*
X011002Y014150D01*
X010842Y014150D02*
X010542Y014150D01*
X010542Y014600D01*
X010382Y014525D02*
X010382Y014375D01*
X010306Y014300D01*
X010081Y014300D01*
X010081Y014150D02*
X010081Y014600D01*
X010306Y014600D01*
X010382Y014525D01*
X009921Y014525D02*
X009846Y014600D01*
X009696Y014600D01*
X009621Y014525D01*
X009621Y014450D01*
X009696Y014375D01*
X009846Y014375D01*
X009921Y014300D01*
X009921Y014225D01*
X009846Y014150D01*
X009696Y014150D01*
X009621Y014225D01*
X009464Y014150D02*
X009314Y014150D01*
X009389Y014150D02*
X009389Y014600D01*
X009314Y014600D02*
X009464Y014600D01*
X009154Y014525D02*
X009079Y014600D01*
X008854Y014600D01*
X008854Y014150D01*
X009079Y014150D01*
X009154Y014225D01*
X009154Y014525D01*
X011002Y014450D02*
X011152Y014600D01*
X011302Y014450D01*
X006888Y014425D02*
X006888Y014350D01*
X006813Y014275D01*
X006663Y014275D01*
X006587Y014350D01*
X006587Y014425D01*
X006663Y014500D01*
X006813Y014500D01*
X006888Y014425D01*
X006813Y014500D02*
X006888Y014575D01*
X006888Y014650D01*
X006813Y014725D01*
X006663Y014725D01*
X006587Y014650D01*
X006587Y014575D01*
X006663Y014500D01*
X011655Y018650D02*
X011657Y018716D01*
X011663Y018782D01*
X011673Y018848D01*
X011686Y018913D01*
X011704Y018977D01*
X011725Y019039D01*
X011750Y019101D01*
X011778Y019161D01*
X011810Y019219D01*
X011846Y019275D01*
X011884Y019328D01*
X011926Y019380D01*
X011971Y019429D01*
X012018Y019475D01*
X012069Y019518D01*
X012121Y019558D01*
X012176Y019595D01*
X012233Y019629D01*
X012292Y019659D01*
X012353Y019686D01*
X012415Y019709D01*
X012478Y019728D01*
X012543Y019744D01*
X012608Y019756D01*
X012674Y019764D01*
X012740Y019768D01*
X012806Y019768D01*
X012872Y019764D01*
X012938Y019756D01*
X013003Y019744D01*
X013068Y019728D01*
X013131Y019709D01*
X013193Y019686D01*
X013254Y019659D01*
X013313Y019629D01*
X013370Y019595D01*
X013425Y019558D01*
X013477Y019518D01*
X013528Y019475D01*
X013575Y019429D01*
X013620Y019380D01*
X013662Y019328D01*
X013700Y019275D01*
X013736Y019219D01*
X013768Y019161D01*
X013796Y019101D01*
X013821Y019039D01*
X013842Y018977D01*
X013860Y018913D01*
X013873Y018848D01*
X013883Y018782D01*
X013889Y018716D01*
X013891Y018650D01*
X013889Y018584D01*
X013883Y018518D01*
X013873Y018452D01*
X013860Y018387D01*
X013842Y018323D01*
X013821Y018261D01*
X013796Y018199D01*
X013768Y018139D01*
X013736Y018081D01*
X013700Y018025D01*
X013662Y017972D01*
X013620Y017920D01*
X013575Y017871D01*
X013528Y017825D01*
X013477Y017782D01*
X013425Y017742D01*
X013370Y017705D01*
X013313Y017671D01*
X013254Y017641D01*
X013193Y017614D01*
X013131Y017591D01*
X013068Y017572D01*
X013003Y017556D01*
X012938Y017544D01*
X012872Y017536D01*
X012806Y017532D01*
X012740Y017532D01*
X012674Y017536D01*
X012608Y017544D01*
X012543Y017556D01*
X012478Y017572D01*
X012415Y017591D01*
X012353Y017614D01*
X012292Y017641D01*
X012233Y017671D01*
X012176Y017705D01*
X012121Y017742D01*
X012069Y017782D01*
X012018Y017825D01*
X011971Y017871D01*
X011926Y017920D01*
X011884Y017972D01*
X011846Y018025D01*
X011810Y018081D01*
X011778Y018139D01*
X011750Y018199D01*
X011725Y018261D01*
X011704Y018323D01*
X011686Y018387D01*
X011673Y018452D01*
X011663Y018518D01*
X011657Y018584D01*
X011655Y018650D01*
X010280Y020525D02*
X010282Y020591D01*
X010288Y020657D01*
X010298Y020723D01*
X010311Y020788D01*
X010329Y020852D01*
X010350Y020914D01*
X010375Y020976D01*
X010403Y021036D01*
X010435Y021094D01*
X010471Y021150D01*
X010509Y021203D01*
X010551Y021255D01*
X010596Y021304D01*
X010643Y021350D01*
X010694Y021393D01*
X010746Y021433D01*
X010801Y021470D01*
X010858Y021504D01*
X010917Y021534D01*
X010978Y021561D01*
X011040Y021584D01*
X011103Y021603D01*
X011168Y021619D01*
X011233Y021631D01*
X011299Y021639D01*
X011365Y021643D01*
X011431Y021643D01*
X011497Y021639D01*
X011563Y021631D01*
X011628Y021619D01*
X011693Y021603D01*
X011756Y021584D01*
X011818Y021561D01*
X011879Y021534D01*
X011938Y021504D01*
X011995Y021470D01*
X012050Y021433D01*
X012102Y021393D01*
X012153Y021350D01*
X012200Y021304D01*
X012245Y021255D01*
X012287Y021203D01*
X012325Y021150D01*
X012361Y021094D01*
X012393Y021036D01*
X012421Y020976D01*
X012446Y020914D01*
X012467Y020852D01*
X012485Y020788D01*
X012498Y020723D01*
X012508Y020657D01*
X012514Y020591D01*
X012516Y020525D01*
X012514Y020459D01*
X012508Y020393D01*
X012498Y020327D01*
X012485Y020262D01*
X012467Y020198D01*
X012446Y020136D01*
X012421Y020074D01*
X012393Y020014D01*
X012361Y019956D01*
X012325Y019900D01*
X012287Y019847D01*
X012245Y019795D01*
X012200Y019746D01*
X012153Y019700D01*
X012102Y019657D01*
X012050Y019617D01*
X011995Y019580D01*
X011938Y019546D01*
X011879Y019516D01*
X011818Y019489D01*
X011756Y019466D01*
X011693Y019447D01*
X011628Y019431D01*
X011563Y019419D01*
X011497Y019411D01*
X011431Y019407D01*
X011365Y019407D01*
X011299Y019411D01*
X011233Y019419D01*
X011168Y019431D01*
X011103Y019447D01*
X011040Y019466D01*
X010978Y019489D01*
X010917Y019516D01*
X010858Y019546D01*
X010801Y019580D01*
X010746Y019617D01*
X010694Y019657D01*
X010643Y019700D01*
X010596Y019746D01*
X010551Y019795D01*
X010509Y019847D01*
X010471Y019900D01*
X010435Y019956D01*
X010403Y020014D01*
X010375Y020074D01*
X010350Y020136D01*
X010329Y020198D01*
X010311Y020262D01*
X010298Y020327D01*
X010288Y020393D01*
X010282Y020459D01*
X010280Y020525D01*
X011655Y022400D02*
X011657Y022466D01*
X011663Y022532D01*
X011673Y022598D01*
X011686Y022663D01*
X011704Y022727D01*
X011725Y022789D01*
X011750Y022851D01*
X011778Y022911D01*
X011810Y022969D01*
X011846Y023025D01*
X011884Y023078D01*
X011926Y023130D01*
X011971Y023179D01*
X012018Y023225D01*
X012069Y023268D01*
X012121Y023308D01*
X012176Y023345D01*
X012233Y023379D01*
X012292Y023409D01*
X012353Y023436D01*
X012415Y023459D01*
X012478Y023478D01*
X012543Y023494D01*
X012608Y023506D01*
X012674Y023514D01*
X012740Y023518D01*
X012806Y023518D01*
X012872Y023514D01*
X012938Y023506D01*
X013003Y023494D01*
X013068Y023478D01*
X013131Y023459D01*
X013193Y023436D01*
X013254Y023409D01*
X013313Y023379D01*
X013370Y023345D01*
X013425Y023308D01*
X013477Y023268D01*
X013528Y023225D01*
X013575Y023179D01*
X013620Y023130D01*
X013662Y023078D01*
X013700Y023025D01*
X013736Y022969D01*
X013768Y022911D01*
X013796Y022851D01*
X013821Y022789D01*
X013842Y022727D01*
X013860Y022663D01*
X013873Y022598D01*
X013883Y022532D01*
X013889Y022466D01*
X013891Y022400D01*
X013889Y022334D01*
X013883Y022268D01*
X013873Y022202D01*
X013860Y022137D01*
X013842Y022073D01*
X013821Y022011D01*
X013796Y021949D01*
X013768Y021889D01*
X013736Y021831D01*
X013700Y021775D01*
X013662Y021722D01*
X013620Y021670D01*
X013575Y021621D01*
X013528Y021575D01*
X013477Y021532D01*
X013425Y021492D01*
X013370Y021455D01*
X013313Y021421D01*
X013254Y021391D01*
X013193Y021364D01*
X013131Y021341D01*
X013068Y021322D01*
X013003Y021306D01*
X012938Y021294D01*
X012872Y021286D01*
X012806Y021282D01*
X012740Y021282D01*
X012674Y021286D01*
X012608Y021294D01*
X012543Y021306D01*
X012478Y021322D01*
X012415Y021341D01*
X012353Y021364D01*
X012292Y021391D01*
X012233Y021421D01*
X012176Y021455D01*
X012121Y021492D01*
X012069Y021532D01*
X012018Y021575D01*
X011971Y021621D01*
X011926Y021670D01*
X011884Y021722D01*
X011846Y021775D01*
X011810Y021831D01*
X011778Y021889D01*
X011750Y021949D01*
X011725Y022011D01*
X011704Y022073D01*
X011686Y022137D01*
X011673Y022202D01*
X011663Y022268D01*
X011657Y022334D01*
X011655Y022400D01*
X013030Y020525D02*
X013032Y020591D01*
X013038Y020657D01*
X013048Y020723D01*
X013061Y020788D01*
X013079Y020852D01*
X013100Y020914D01*
X013125Y020976D01*
X013153Y021036D01*
X013185Y021094D01*
X013221Y021150D01*
X013259Y021203D01*
X013301Y021255D01*
X013346Y021304D01*
X013393Y021350D01*
X013444Y021393D01*
X013496Y021433D01*
X013551Y021470D01*
X013608Y021504D01*
X013667Y021534D01*
X013728Y021561D01*
X013790Y021584D01*
X013853Y021603D01*
X013918Y021619D01*
X013983Y021631D01*
X014049Y021639D01*
X014115Y021643D01*
X014181Y021643D01*
X014247Y021639D01*
X014313Y021631D01*
X014378Y021619D01*
X014443Y021603D01*
X014506Y021584D01*
X014568Y021561D01*
X014629Y021534D01*
X014688Y021504D01*
X014745Y021470D01*
X014800Y021433D01*
X014852Y021393D01*
X014903Y021350D01*
X014950Y021304D01*
X014995Y021255D01*
X015037Y021203D01*
X015075Y021150D01*
X015111Y021094D01*
X015143Y021036D01*
X015171Y020976D01*
X015196Y020914D01*
X015217Y020852D01*
X015235Y020788D01*
X015248Y020723D01*
X015258Y020657D01*
X015264Y020591D01*
X015266Y020525D01*
X015264Y020459D01*
X015258Y020393D01*
X015248Y020327D01*
X015235Y020262D01*
X015217Y020198D01*
X015196Y020136D01*
X015171Y020074D01*
X015143Y020014D01*
X015111Y019956D01*
X015075Y019900D01*
X015037Y019847D01*
X014995Y019795D01*
X014950Y019746D01*
X014903Y019700D01*
X014852Y019657D01*
X014800Y019617D01*
X014745Y019580D01*
X014688Y019546D01*
X014629Y019516D01*
X014568Y019489D01*
X014506Y019466D01*
X014443Y019447D01*
X014378Y019431D01*
X014313Y019419D01*
X014247Y019411D01*
X014181Y019407D01*
X014115Y019407D01*
X014049Y019411D01*
X013983Y019419D01*
X013918Y019431D01*
X013853Y019447D01*
X013790Y019466D01*
X013728Y019489D01*
X013667Y019516D01*
X013608Y019546D01*
X013551Y019580D01*
X013496Y019617D01*
X013444Y019657D01*
X013393Y019700D01*
X013346Y019746D01*
X013301Y019795D01*
X013259Y019847D01*
X013221Y019900D01*
X013185Y019956D01*
X013153Y020014D01*
X013125Y020074D01*
X013100Y020136D01*
X013079Y020198D01*
X013061Y020262D01*
X013048Y020327D01*
X013038Y020393D01*
X013032Y020459D01*
X013030Y020525D01*
X016827Y027471D02*
X017127Y027922D01*
X017287Y027846D02*
X017362Y027922D01*
X017512Y027922D01*
X017587Y027846D01*
X017587Y027771D01*
X017287Y027471D01*
X017587Y027471D01*
X017127Y027471D02*
X016827Y027922D01*
X012438Y031841D02*
X012438Y032068D01*
X012438Y031954D02*
X012098Y031954D01*
X012211Y031841D01*
X011188Y031841D02*
X011188Y032068D01*
X011188Y031954D02*
X010848Y031954D01*
X010961Y031841D01*
X009679Y031299D02*
X002081Y031299D01*
X002081Y029251D01*
X009679Y029251D01*
X009679Y031299D01*
X029083Y027903D02*
X029143Y027883D01*
X029202Y027859D01*
X029259Y027831D01*
X029314Y027800D01*
X029368Y027765D01*
X029419Y027728D01*
X029468Y027687D01*
X029514Y027643D01*
X029558Y027597D01*
X029599Y027548D01*
X029637Y027497D01*
X029671Y027444D01*
X029703Y027388D01*
X029730Y027331D01*
X029755Y027272D01*
X029775Y027212D01*
X029793Y027151D01*
X029806Y027089D01*
X029815Y027026D01*
X029821Y026963D01*
X029823Y026899D01*
X029821Y026835D01*
X029815Y026772D01*
X029806Y026709D01*
X029792Y026647D01*
X029775Y026586D01*
X029754Y026526D01*
X029730Y026467D01*
X029702Y026410D01*
X029670Y026354D01*
X029635Y026301D01*
X029598Y026250D01*
X033945Y021800D02*
X034095Y021800D01*
X034020Y021800D02*
X034020Y021350D01*
X033945Y021350D02*
X034095Y021350D01*
X034252Y021425D02*
X034327Y021350D01*
X034477Y021350D01*
X034552Y021425D01*
X034712Y021350D02*
X035013Y021350D01*
X034863Y021350D02*
X034863Y021800D01*
X034712Y021650D01*
X034552Y021725D02*
X034477Y021800D01*
X034327Y021800D01*
X034252Y021725D01*
X034252Y021425D01*
X034048Y021025D02*
X034048Y020575D01*
X034348Y020575D01*
X034508Y020575D02*
X034809Y020575D01*
X034969Y020575D02*
X035194Y020575D01*
X035269Y020650D01*
X035269Y020950D01*
X035194Y021025D01*
X034969Y021025D01*
X034969Y020575D01*
X034658Y020800D02*
X034508Y020800D01*
X034508Y021025D02*
X034508Y020575D01*
X034508Y021025D02*
X034809Y021025D01*
X035429Y020950D02*
X035504Y021025D01*
X035654Y021025D01*
X035729Y020950D01*
X035729Y020875D01*
X035429Y020575D01*
X035729Y020575D01*
X035897Y020586D02*
X035973Y020661D01*
X036123Y020661D01*
X036198Y020586D01*
X036198Y020360D01*
X036348Y020360D02*
X035897Y020360D01*
X035897Y020586D01*
X035897Y020821D02*
X035897Y021121D01*
X035973Y021121D01*
X036273Y020821D01*
X036348Y020821D01*
X036348Y020661D02*
X036198Y020511D01*
X036198Y020200D02*
X036273Y020200D01*
X036348Y020125D01*
X036348Y019975D01*
X036273Y019900D01*
X036123Y019975D02*
X036048Y019900D01*
X035973Y019900D01*
X035897Y019975D01*
X035897Y020125D01*
X035973Y020200D01*
X036123Y020125D02*
X036198Y020200D01*
X036123Y020125D02*
X036123Y019975D01*
X036048Y021281D02*
X036123Y021356D01*
X036123Y021506D01*
X036198Y021581D01*
X036273Y021581D01*
X036348Y021506D01*
X036348Y021356D01*
X036273Y021281D01*
X036048Y021281D02*
X035973Y021281D01*
X035897Y021356D01*
X035897Y021506D01*
X035973Y021581D01*
X035973Y021742D02*
X035897Y021817D01*
X035897Y021967D01*
X035973Y022042D01*
X036048Y022042D01*
X036123Y021967D01*
X036198Y022042D01*
X036273Y022042D01*
X036348Y021967D01*
X036348Y021817D01*
X036273Y021742D01*
X036123Y021892D02*
X036123Y021967D01*
X032854Y020575D02*
X032554Y020575D01*
X032704Y020575D02*
X032704Y021025D01*
X032554Y020875D01*
X032394Y020950D02*
X032394Y020650D01*
X032319Y020575D01*
X032094Y020575D01*
X032094Y021025D01*
X032319Y021025D01*
X032394Y020950D01*
X031934Y021025D02*
X031633Y021025D01*
X031633Y020575D01*
X031934Y020575D01*
X031783Y020800D02*
X031633Y020800D01*
X031473Y020575D02*
X031173Y020575D01*
X031173Y021025D01*
X036337Y024710D02*
X036337Y024935D01*
X036413Y025010D01*
X036563Y025010D01*
X036638Y024935D01*
X036638Y024710D01*
X036788Y024710D02*
X036337Y024710D01*
X036638Y024860D02*
X036788Y025010D01*
X036713Y025170D02*
X036788Y025245D01*
X036788Y025396D01*
X036713Y025471D01*
X036638Y025471D01*
X036563Y025396D01*
X036563Y025321D01*
X036563Y025396D02*
X036488Y025471D01*
X036413Y025471D01*
X036337Y025396D01*
X036337Y025245D01*
X036413Y025170D01*
X038023Y024900D02*
X044523Y024900D01*
X044523Y032998D01*
X038023Y032998D01*
X038023Y024900D01*
X044589Y018337D02*
X044702Y018450D01*
X044702Y018110D01*
X044589Y018110D02*
X044816Y018110D01*
X044388Y017750D02*
X044087Y017750D01*
X044087Y017525D01*
X044238Y017600D01*
X044313Y017600D01*
X044388Y017525D01*
X044388Y017375D01*
X044313Y017300D01*
X044163Y017300D01*
X044087Y017375D01*
X043927Y017300D02*
X043927Y017750D01*
X043627Y017750D02*
X043627Y017300D01*
X043467Y017300D02*
X043317Y017450D01*
X043392Y017450D02*
X043167Y017450D01*
X043167Y017300D02*
X043167Y017750D01*
X043392Y017750D01*
X043467Y017675D01*
X043467Y017525D01*
X043392Y017450D01*
X043627Y017750D02*
X043927Y017300D01*
X044589Y017087D02*
X044702Y017200D01*
X044702Y016860D01*
X044589Y016860D02*
X044816Y016860D01*
X044388Y016500D02*
X044238Y016425D01*
X044087Y016275D01*
X044313Y016275D01*
X044388Y016200D01*
X044388Y016125D01*
X044313Y016050D01*
X044163Y016050D01*
X044087Y016125D01*
X044087Y016275D01*
X043927Y016050D02*
X043927Y016500D01*
X043627Y016500D02*
X043927Y016050D01*
X043627Y016050D02*
X043627Y016500D01*
X043467Y016425D02*
X043392Y016500D01*
X043167Y016500D01*
X043167Y016050D01*
X043167Y016200D02*
X043392Y016200D01*
X043467Y016275D01*
X043467Y016425D01*
X043317Y016200D02*
X043467Y016050D01*
X044702Y011325D02*
X044702Y010985D01*
X044589Y010985D02*
X044816Y010985D01*
X044589Y011212D02*
X044702Y011325D01*
X044313Y010625D02*
X044388Y010550D01*
X044388Y010475D01*
X044313Y010400D01*
X044388Y010325D01*
X044388Y010250D01*
X044313Y010175D01*
X044163Y010175D01*
X044087Y010250D01*
X043927Y010175D02*
X043927Y010625D01*
X044087Y010550D02*
X044163Y010625D01*
X044313Y010625D01*
X044313Y010400D02*
X044238Y010400D01*
X043927Y010175D02*
X043627Y010625D01*
X043627Y010175D01*
X043467Y010175D02*
X043317Y010325D01*
X043392Y010325D02*
X043167Y010325D01*
X043167Y010175D02*
X043167Y010625D01*
X043392Y010625D01*
X043467Y010550D01*
X043467Y010400D01*
X043392Y010325D01*
X043392Y009375D02*
X043167Y009375D01*
X043167Y008925D01*
X043167Y009075D02*
X043392Y009075D01*
X043467Y009150D01*
X043467Y009300D01*
X043392Y009375D01*
X043627Y009375D02*
X043927Y008925D01*
X043927Y009375D01*
X044087Y009150D02*
X044388Y009150D01*
X044313Y008925D02*
X044313Y009375D01*
X044087Y009150D01*
X043627Y008925D02*
X043627Y009375D01*
X043317Y009075D02*
X043467Y008925D01*
X044589Y009735D02*
X044816Y009735D01*
X044702Y009735D02*
X044702Y010075D01*
X044589Y009962D01*
X044702Y003450D02*
X044702Y003110D01*
X044589Y003110D02*
X044816Y003110D01*
X044589Y003337D02*
X044702Y003450D01*
X044238Y002750D02*
X044238Y002300D01*
X044388Y002300D02*
X044087Y002300D01*
X043927Y002300D02*
X043927Y002750D01*
X044087Y002600D02*
X044238Y002750D01*
X043927Y002300D02*
X043627Y002750D01*
X043627Y002300D01*
X043467Y002300D02*
X043317Y002450D01*
X043392Y002450D02*
X043167Y002450D01*
X043167Y002300D02*
X043167Y002750D01*
X043392Y002750D01*
X043467Y002675D01*
X043467Y002525D01*
X043392Y002450D01*
X043392Y001625D02*
X043167Y001625D01*
X043167Y001175D01*
X043167Y001325D02*
X043392Y001325D01*
X043467Y001400D01*
X043467Y001550D01*
X043392Y001625D01*
X043627Y001625D02*
X043927Y001175D01*
X043927Y001625D01*
X044087Y001550D02*
X044163Y001625D01*
X044313Y001625D01*
X044388Y001550D01*
X044388Y001475D01*
X044087Y001175D01*
X044388Y001175D01*
X043627Y001175D02*
X043627Y001625D01*
X043317Y001325D02*
X043467Y001175D01*
X044589Y001985D02*
X044816Y001985D01*
X044702Y001985D02*
X044702Y002325D01*
X044589Y002212D01*
X036348Y005100D02*
X036273Y005025D01*
X036348Y005100D02*
X036348Y005250D01*
X036273Y005325D01*
X036198Y005325D01*
X036123Y005250D01*
X036123Y005100D01*
X036048Y005025D01*
X035973Y005025D01*
X035897Y005100D01*
X035897Y005250D01*
X035973Y005325D01*
X035897Y005485D02*
X036348Y005485D01*
X036198Y005485D02*
X036198Y005711D01*
X036123Y005786D01*
X035973Y005786D01*
X035897Y005711D01*
X035897Y005485D01*
X036198Y005636D02*
X036348Y005786D01*
X036348Y005946D02*
X036273Y005946D01*
X035973Y006246D01*
X035897Y006246D01*
X035897Y005946D01*
X035973Y006406D02*
X035897Y006481D01*
X035897Y006631D01*
X035973Y006706D01*
X036123Y006631D02*
X036198Y006706D01*
X036273Y006706D01*
X036348Y006631D01*
X036348Y006481D01*
X036273Y006406D01*
X036123Y006481D02*
X036123Y006631D01*
X036123Y006481D02*
X036048Y006406D01*
X035973Y006406D01*
X036048Y006867D02*
X035897Y007017D01*
X036348Y007017D01*
X036348Y006867D02*
X036348Y007167D01*
X036273Y012775D02*
X036348Y012850D01*
X036348Y013000D01*
X036273Y013075D01*
X036198Y013075D01*
X036123Y013000D01*
X036123Y012850D01*
X036048Y012775D01*
X035973Y012775D01*
X035897Y012850D01*
X035897Y013000D01*
X035973Y013075D01*
X035897Y013235D02*
X036348Y013235D01*
X036198Y013235D02*
X036198Y013461D01*
X036123Y013536D01*
X035973Y013536D01*
X035897Y013461D01*
X035897Y013235D01*
X036198Y013386D02*
X036348Y013536D01*
X036348Y013696D02*
X036273Y013696D01*
X035973Y013996D01*
X035897Y013996D01*
X035897Y013696D01*
X035973Y014156D02*
X035897Y014231D01*
X035897Y014381D01*
X035973Y014456D01*
X035973Y014617D02*
X035897Y014692D01*
X035897Y014842D01*
X035973Y014917D01*
X036048Y014917D01*
X036348Y014617D01*
X036348Y014917D01*
X036273Y014456D02*
X036348Y014381D01*
X036348Y014231D01*
X036273Y014156D01*
X036123Y014231D02*
X036123Y014381D01*
X036198Y014456D01*
X036273Y014456D01*
X036123Y014231D02*
X036048Y014156D01*
X035973Y014156D01*
D13*
X022562Y018768D02*
X022513Y018720D01*
X022417Y018720D01*
X022368Y018768D01*
X022267Y018720D02*
X022074Y018720D01*
X022170Y018720D02*
X022170Y019010D01*
X022074Y018913D01*
X021972Y018962D02*
X021779Y018768D01*
X021827Y018720D01*
X021924Y018720D01*
X021972Y018768D01*
X021972Y018962D01*
X021924Y019010D01*
X021827Y019010D01*
X021779Y018962D01*
X021779Y018768D01*
X021678Y018720D02*
X021484Y018720D01*
X021678Y018913D01*
X021678Y018962D01*
X021629Y019010D01*
X021533Y019010D01*
X021484Y018962D01*
X021088Y019010D02*
X021088Y018720D01*
X021088Y018865D02*
X020895Y018865D01*
X020794Y018768D02*
X020745Y018720D01*
X020649Y018720D01*
X020600Y018768D01*
X020600Y018962D01*
X020649Y019010D01*
X020745Y019010D01*
X020794Y018962D01*
X020895Y019010D02*
X020895Y018720D01*
X020501Y018720D02*
X020404Y018720D01*
X020452Y018720D02*
X020452Y018913D01*
X020404Y018913D01*
X020452Y019010D02*
X020452Y019059D01*
X020303Y018962D02*
X020303Y018865D01*
X020254Y018817D01*
X020109Y018817D01*
X020109Y018720D02*
X020109Y019010D01*
X020254Y019010D01*
X020303Y018962D01*
X019715Y018913D02*
X019715Y018817D01*
X019618Y018720D01*
X019517Y018720D02*
X019372Y018720D01*
X019323Y018768D01*
X019323Y018865D01*
X019372Y018913D01*
X019517Y018913D01*
X019618Y019010D02*
X019715Y018913D01*
X019224Y019010D02*
X019127Y018913D01*
X019127Y018817D01*
X019224Y018720D01*
X022368Y018962D02*
X022417Y019010D01*
X022513Y019010D01*
X022562Y018962D01*
X022562Y018913D01*
X022513Y018865D01*
X022562Y018817D01*
X022562Y018768D01*
X022513Y018865D02*
X022465Y018865D01*
X015258Y025012D02*
X015161Y024915D01*
X015064Y024915D01*
X014968Y025012D01*
X015113Y025111D02*
X015210Y025111D01*
X015258Y025160D01*
X015258Y025305D01*
X015258Y025406D02*
X015161Y025503D01*
X015064Y025503D01*
X014968Y025406D01*
X015064Y025305D02*
X015064Y025160D01*
X015113Y025111D01*
X015161Y025897D02*
X015161Y026042D01*
X015113Y026091D01*
X015016Y026091D01*
X014968Y026042D01*
X014968Y025897D01*
X015258Y025897D01*
X015258Y026192D02*
X015258Y026289D01*
X015258Y026240D02*
X015064Y026240D01*
X015064Y026192D01*
X014968Y026240D02*
X014919Y026240D01*
X015016Y026388D02*
X014968Y026437D01*
X014968Y026533D01*
X015016Y026582D01*
X014968Y026683D02*
X015258Y026683D01*
X015210Y026582D02*
X015258Y026533D01*
X015258Y026437D01*
X015210Y026388D01*
X015016Y026388D01*
X015113Y026683D02*
X015113Y026876D01*
X014968Y026876D02*
X015258Y026876D01*
X015258Y027272D02*
X015064Y027466D01*
X015016Y027466D01*
X014968Y027417D01*
X014968Y027321D01*
X015016Y027272D01*
X015258Y027272D02*
X015258Y027466D01*
X015210Y027567D02*
X015016Y027760D01*
X015210Y027760D01*
X015258Y027712D01*
X015258Y027615D01*
X015210Y027567D01*
X015016Y027567D01*
X014968Y027615D01*
X014968Y027712D01*
X015016Y027760D01*
X015064Y027862D02*
X014968Y027958D01*
X015258Y027958D01*
X015258Y027862D02*
X015258Y028055D01*
X015210Y028156D02*
X015258Y028205D01*
X015258Y028301D01*
X015210Y028350D01*
X015161Y028350D01*
X015113Y028301D01*
X015113Y028253D01*
X015113Y028301D02*
X015064Y028350D01*
X015016Y028350D01*
X014968Y028301D01*
X014968Y028205D01*
X015016Y028156D01*
X009383Y025269D02*
X009093Y025269D01*
X009238Y025269D02*
X009238Y025076D01*
X009335Y024975D02*
X009383Y024926D01*
X009383Y024829D01*
X009335Y024781D01*
X009141Y024781D01*
X009093Y024829D01*
X009093Y024926D01*
X009141Y024975D01*
X009093Y025076D02*
X009383Y025076D01*
X008883Y025272D02*
X008689Y025466D01*
X008641Y025466D01*
X008593Y025417D01*
X008593Y025321D01*
X008641Y025272D01*
X008883Y025272D02*
X008883Y025466D01*
X008835Y025567D02*
X008641Y025760D01*
X008835Y025760D01*
X008883Y025712D01*
X008883Y025615D01*
X008835Y025567D01*
X008641Y025567D01*
X008593Y025615D01*
X008593Y025712D01*
X008641Y025760D01*
X008689Y025861D02*
X008593Y025958D01*
X008883Y025958D01*
X008883Y025861D02*
X008883Y026055D01*
X008835Y026156D02*
X008883Y026205D01*
X008883Y026301D01*
X008835Y026350D01*
X008786Y026350D01*
X008738Y026301D01*
X008738Y026253D01*
X008738Y026301D02*
X008689Y026350D01*
X008641Y026350D01*
X008593Y026301D01*
X008593Y026205D01*
X008641Y026156D01*
X008689Y024878D02*
X008593Y024781D01*
X008689Y024878D02*
X008786Y024878D01*
X008883Y024781D01*
X008883Y024680D02*
X008883Y024535D01*
X008835Y024486D01*
X008738Y024486D01*
X008689Y024535D01*
X008689Y024680D01*
X008593Y024387D02*
X008689Y024290D01*
X008786Y024290D01*
X008883Y024387D01*
X009093Y024435D02*
X009093Y024290D01*
X009383Y024290D01*
X009286Y024290D02*
X009286Y024435D01*
X009238Y024483D01*
X009141Y024483D01*
X009093Y024435D01*
X009189Y024585D02*
X009189Y024633D01*
X009383Y024633D01*
X009383Y024585D02*
X009383Y024681D01*
X009093Y024633D02*
X009044Y024633D01*
D14*
X010623Y023975D02*
X010623Y031575D01*
X010673Y031625D02*
X010673Y030925D01*
X011373Y030925D01*
X011373Y031625D01*
X010673Y031625D01*
X010623Y031575D02*
X010625Y031601D01*
X010630Y031627D01*
X010638Y031652D01*
X010650Y031675D01*
X010664Y031697D01*
X010682Y031716D01*
X010701Y031734D01*
X010723Y031748D01*
X010746Y031760D01*
X010771Y031768D01*
X010797Y031773D01*
X010823Y031775D01*
X011223Y031775D01*
X011249Y031773D01*
X011275Y031768D01*
X011300Y031760D01*
X011323Y031748D01*
X011345Y031734D01*
X011364Y031716D01*
X011382Y031697D01*
X011396Y031675D01*
X011408Y031652D01*
X011416Y031627D01*
X011421Y031601D01*
X011423Y031575D01*
X011423Y023975D01*
X011421Y023949D01*
X011416Y023923D01*
X011408Y023898D01*
X011396Y023875D01*
X011382Y023853D01*
X011364Y023834D01*
X011345Y023816D01*
X011323Y023802D01*
X011300Y023790D01*
X011275Y023782D01*
X011249Y023777D01*
X011223Y023775D01*
X010823Y023775D01*
X010797Y023777D01*
X010771Y023782D01*
X010746Y023790D01*
X010723Y023802D01*
X010701Y023816D01*
X010682Y023834D01*
X010664Y023853D01*
X010650Y023875D01*
X010638Y023898D01*
X010630Y023923D01*
X010625Y023949D01*
X010623Y023975D01*
X011873Y023975D02*
X011873Y031575D01*
X011923Y031625D02*
X011923Y030925D01*
X012623Y030925D01*
X012623Y031625D01*
X011923Y031625D01*
X011873Y031575D02*
X011875Y031601D01*
X011880Y031627D01*
X011888Y031652D01*
X011900Y031675D01*
X011914Y031697D01*
X011932Y031716D01*
X011951Y031734D01*
X011973Y031748D01*
X011996Y031760D01*
X012021Y031768D01*
X012047Y031773D01*
X012073Y031775D01*
X012473Y031775D01*
X012499Y031773D01*
X012525Y031768D01*
X012550Y031760D01*
X012573Y031748D01*
X012595Y031734D01*
X012614Y031716D01*
X012632Y031697D01*
X012646Y031675D01*
X012658Y031652D01*
X012666Y031627D01*
X012671Y031601D01*
X012673Y031575D01*
X012673Y023975D01*
X012671Y023949D01*
X012666Y023923D01*
X012658Y023898D01*
X012646Y023875D01*
X012632Y023853D01*
X012614Y023834D01*
X012595Y023816D01*
X012573Y023802D01*
X012550Y023790D01*
X012525Y023782D01*
X012499Y023777D01*
X012473Y023775D01*
X012073Y023775D01*
X012047Y023777D01*
X012021Y023782D01*
X011996Y023790D01*
X011973Y023802D01*
X011951Y023816D01*
X011932Y023834D01*
X011914Y023853D01*
X011900Y023875D01*
X011888Y023898D01*
X011880Y023923D01*
X011875Y023949D01*
X011873Y023975D01*
X013773Y025525D02*
X014023Y025275D01*
X014523Y025275D01*
X014773Y025525D01*
X014773Y026025D01*
X014523Y026275D01*
X014773Y026525D01*
X014773Y027025D01*
X014523Y027275D01*
X014023Y027275D01*
X013773Y027025D01*
X013773Y026525D01*
X014023Y026275D01*
X014523Y026275D01*
X014023Y026275D02*
X013773Y026025D01*
X013773Y025525D01*
X014023Y027275D02*
X013773Y027525D01*
X013773Y028025D01*
X014023Y028275D01*
X013773Y028525D01*
X013773Y029025D01*
X014023Y029275D01*
X013773Y029525D01*
X013773Y030025D01*
X014023Y030275D01*
X013773Y030525D01*
X013773Y031025D01*
X014023Y031275D01*
X014523Y031275D01*
X014773Y031025D01*
X014773Y030525D01*
X014523Y030275D01*
X014773Y030025D01*
X014773Y029525D01*
X014523Y029275D01*
X014773Y029025D01*
X014773Y028525D01*
X014523Y028275D01*
X014773Y028025D01*
X014773Y027525D01*
X014523Y027275D01*
X014523Y028275D02*
X014023Y028275D01*
X014023Y029275D02*
X014523Y029275D01*
X014523Y030275D02*
X014023Y030275D01*
X016302Y029196D02*
X016952Y029196D01*
X017652Y029196D02*
X018952Y029196D01*
X019652Y029196D02*
X020302Y029196D01*
X020952Y029196D01*
X021652Y029196D02*
X022952Y029196D01*
X023652Y029196D02*
X024302Y029196D01*
X024302Y028246D01*
X016302Y028246D01*
X016302Y029196D01*
X016302Y031796D01*
X016302Y031896D01*
X020302Y031896D01*
X020302Y029196D01*
X022694Y028031D02*
X022694Y019131D01*
X016194Y019131D01*
X016194Y028031D01*
X022694Y028031D01*
X024302Y029196D02*
X024302Y031796D01*
X016302Y031796D01*
X017102Y031266D02*
X017104Y031294D01*
X017110Y031321D01*
X017119Y031347D01*
X017132Y031372D01*
X017149Y031395D01*
X017168Y031415D01*
X017190Y031432D01*
X017214Y031446D01*
X017240Y031456D01*
X017267Y031463D01*
X017295Y031466D01*
X017323Y031465D01*
X017350Y031460D01*
X017377Y031451D01*
X017402Y031439D01*
X017425Y031424D01*
X017446Y031405D01*
X017464Y031384D01*
X017479Y031360D01*
X017490Y031334D01*
X017498Y031308D01*
X017502Y031280D01*
X017502Y031252D01*
X017498Y031224D01*
X017490Y031198D01*
X017479Y031172D01*
X017464Y031148D01*
X017446Y031127D01*
X017425Y031108D01*
X017402Y031093D01*
X017377Y031081D01*
X017350Y031072D01*
X017323Y031067D01*
X017295Y031066D01*
X017267Y031069D01*
X017240Y031076D01*
X017214Y031086D01*
X017190Y031100D01*
X017168Y031117D01*
X017149Y031137D01*
X017132Y031160D01*
X017119Y031185D01*
X017110Y031211D01*
X017104Y031238D01*
X017102Y031266D01*
X019102Y031266D02*
X019104Y031294D01*
X019110Y031321D01*
X019119Y031347D01*
X019132Y031372D01*
X019149Y031395D01*
X019168Y031415D01*
X019190Y031432D01*
X019214Y031446D01*
X019240Y031456D01*
X019267Y031463D01*
X019295Y031466D01*
X019323Y031465D01*
X019350Y031460D01*
X019377Y031451D01*
X019402Y031439D01*
X019425Y031424D01*
X019446Y031405D01*
X019464Y031384D01*
X019479Y031360D01*
X019490Y031334D01*
X019498Y031308D01*
X019502Y031280D01*
X019502Y031252D01*
X019498Y031224D01*
X019490Y031198D01*
X019479Y031172D01*
X019464Y031148D01*
X019446Y031127D01*
X019425Y031108D01*
X019402Y031093D01*
X019377Y031081D01*
X019350Y031072D01*
X019323Y031067D01*
X019295Y031066D01*
X019267Y031069D01*
X019240Y031076D01*
X019214Y031086D01*
X019190Y031100D01*
X019168Y031117D01*
X019149Y031137D01*
X019132Y031160D01*
X019119Y031185D01*
X019110Y031211D01*
X019104Y031238D01*
X019102Y031266D01*
X020302Y031896D02*
X024302Y031896D01*
X024302Y031796D01*
X023102Y031266D02*
X023104Y031294D01*
X023110Y031321D01*
X023119Y031347D01*
X023132Y031372D01*
X023149Y031395D01*
X023168Y031415D01*
X023190Y031432D01*
X023214Y031446D01*
X023240Y031456D01*
X023267Y031463D01*
X023295Y031466D01*
X023323Y031465D01*
X023350Y031460D01*
X023377Y031451D01*
X023402Y031439D01*
X023425Y031424D01*
X023446Y031405D01*
X023464Y031384D01*
X023479Y031360D01*
X023490Y031334D01*
X023498Y031308D01*
X023502Y031280D01*
X023502Y031252D01*
X023498Y031224D01*
X023490Y031198D01*
X023479Y031172D01*
X023464Y031148D01*
X023446Y031127D01*
X023425Y031108D01*
X023402Y031093D01*
X023377Y031081D01*
X023350Y031072D01*
X023323Y031067D01*
X023295Y031066D01*
X023267Y031069D01*
X023240Y031076D01*
X023214Y031086D01*
X023190Y031100D01*
X023168Y031117D01*
X023149Y031137D01*
X023132Y031160D01*
X023119Y031185D01*
X023110Y031211D01*
X023104Y031238D01*
X023102Y031266D01*
X021102Y031266D02*
X021104Y031294D01*
X021110Y031321D01*
X021119Y031347D01*
X021132Y031372D01*
X021149Y031395D01*
X021168Y031415D01*
X021190Y031432D01*
X021214Y031446D01*
X021240Y031456D01*
X021267Y031463D01*
X021295Y031466D01*
X021323Y031465D01*
X021350Y031460D01*
X021377Y031451D01*
X021402Y031439D01*
X021425Y031424D01*
X021446Y031405D01*
X021464Y031384D01*
X021479Y031360D01*
X021490Y031334D01*
X021498Y031308D01*
X021502Y031280D01*
X021502Y031252D01*
X021498Y031224D01*
X021490Y031198D01*
X021479Y031172D01*
X021464Y031148D01*
X021446Y031127D01*
X021425Y031108D01*
X021402Y031093D01*
X021377Y031081D01*
X021350Y031072D01*
X021323Y031067D01*
X021295Y031066D01*
X021267Y031069D01*
X021240Y031076D01*
X021214Y031086D01*
X021190Y031100D01*
X021168Y031117D01*
X021149Y031137D01*
X021132Y031160D01*
X021119Y031185D01*
X021110Y031211D01*
X021104Y031238D01*
X021102Y031266D01*
X026898Y025525D02*
X027148Y025775D01*
X027648Y025775D01*
X027898Y025525D01*
X028148Y025775D01*
X028648Y025775D01*
X028898Y025525D01*
X029148Y025775D01*
X029648Y025775D01*
X029898Y025525D01*
X029898Y025025D01*
X029648Y024775D01*
X029148Y024775D01*
X028898Y025025D01*
X028648Y024775D01*
X028148Y024775D01*
X027898Y025025D01*
X027648Y024775D01*
X027148Y024775D01*
X026898Y025025D01*
X026898Y025525D01*
X027273Y023150D02*
X027023Y022900D01*
X027023Y022400D01*
X027273Y022150D01*
X027773Y022150D01*
X028023Y022400D01*
X028273Y022150D01*
X028773Y022150D01*
X029023Y022400D01*
X029273Y022150D01*
X029773Y022150D01*
X030023Y022400D01*
X030023Y022900D01*
X029773Y023150D01*
X029273Y023150D01*
X029023Y022900D01*
X028773Y023150D01*
X028273Y023150D01*
X028023Y022900D01*
X027773Y023150D01*
X027273Y023150D01*
X024271Y022820D02*
X024271Y022320D01*
X024021Y022070D01*
X024271Y021820D01*
X024271Y021320D01*
X024021Y021070D01*
X023521Y021070D01*
X023271Y021320D01*
X023271Y021820D01*
X023521Y022070D01*
X023271Y022320D01*
X023271Y022820D01*
X023521Y023070D01*
X024021Y023070D01*
X024271Y022820D01*
X024021Y022070D02*
X023521Y022070D01*
X021794Y022131D02*
X021794Y021881D01*
X021794Y022131D02*
X019694Y022131D01*
X019694Y021631D02*
X019194Y021631D01*
X019444Y021381D02*
X019444Y020981D01*
X019694Y021631D02*
X019194Y022631D01*
X019444Y022881D02*
X019444Y025481D01*
X019194Y025731D02*
X017974Y025731D01*
X019694Y025731D02*
X020924Y025731D01*
X019194Y022131D02*
X017094Y022131D01*
X017094Y021881D01*
X017773Y015900D02*
X017523Y015650D01*
X017523Y015150D01*
X017773Y014900D01*
X018273Y014900D01*
X018523Y015150D01*
X018773Y014900D01*
X019273Y014900D01*
X019523Y015150D01*
X019523Y015650D01*
X019273Y015900D01*
X018773Y015900D01*
X018523Y015650D01*
X018523Y015150D01*
X018523Y015650D02*
X018273Y015900D01*
X017773Y015900D01*
X014273Y015650D02*
X014273Y015150D01*
X014023Y014900D01*
X013523Y014900D01*
X013273Y015150D01*
X013023Y014900D01*
X012523Y014900D01*
X012273Y015150D01*
X012023Y014900D01*
X011523Y014900D01*
X011273Y015150D01*
X011023Y014900D01*
X010523Y014900D01*
X010273Y015150D01*
X010023Y014900D01*
X009523Y014900D01*
X009273Y015150D01*
X009023Y014900D01*
X008523Y014900D01*
X008273Y015150D01*
X008023Y014900D01*
X007523Y014900D01*
X007273Y015150D01*
X007023Y014900D01*
X006523Y014900D01*
X006273Y015150D01*
X006273Y015650D01*
X006523Y015900D01*
X007023Y015900D01*
X007273Y015650D01*
X007523Y015900D01*
X008023Y015900D01*
X008273Y015650D01*
X008523Y015900D01*
X009023Y015900D01*
X009273Y015650D01*
X009523Y015900D01*
X010023Y015900D01*
X010273Y015650D01*
X010523Y015900D01*
X011023Y015900D01*
X011273Y015650D01*
X011523Y015900D01*
X012023Y015900D01*
X012273Y015650D01*
X012523Y015900D01*
X013023Y015900D01*
X013273Y015650D01*
X013523Y015900D01*
X014023Y015900D01*
X014273Y015650D01*
X007398Y011025D02*
X007398Y010525D01*
X007148Y010275D01*
X007398Y010025D01*
X007398Y009525D01*
X007148Y009275D01*
X006648Y009275D01*
X006398Y009525D01*
X006398Y010025D01*
X006648Y010275D01*
X006398Y010525D01*
X006398Y011025D01*
X006648Y011275D01*
X007148Y011275D01*
X007398Y011025D01*
X007148Y010275D02*
X006648Y010275D01*
X006648Y009275D02*
X006398Y009025D01*
X006398Y008525D01*
X006648Y008275D01*
X006398Y008025D01*
X006398Y007525D01*
X006648Y007275D01*
X006398Y007025D01*
X006398Y006525D01*
X006648Y006275D01*
X006398Y006025D01*
X006398Y005525D01*
X006648Y005275D01*
X007148Y005275D01*
X007398Y005525D01*
X007398Y006025D01*
X007148Y006275D01*
X006648Y006275D01*
X007148Y006275D02*
X007398Y006525D01*
X007398Y007025D01*
X007148Y007275D01*
X006648Y007275D01*
X007148Y007275D02*
X007398Y007525D01*
X007398Y008025D01*
X007148Y008275D01*
X006648Y008275D01*
X007148Y008275D02*
X007398Y008525D01*
X007398Y009025D01*
X007148Y009275D01*
X009078Y004552D02*
X009078Y004446D01*
X009078Y004232D02*
X009078Y003805D01*
X009184Y003805D02*
X008971Y003805D01*
X008753Y004125D02*
X008647Y004019D01*
X008326Y004019D01*
X008326Y003805D02*
X008326Y004446D01*
X008647Y004446D01*
X008753Y004339D01*
X008753Y004125D01*
X008971Y004232D02*
X009078Y004232D01*
X009401Y004339D02*
X009401Y003912D01*
X009507Y003805D01*
X009721Y003805D01*
X009828Y003912D01*
X010045Y003805D02*
X010045Y004446D01*
X009828Y004339D02*
X009721Y004446D01*
X009507Y004446D01*
X009401Y004339D01*
X010045Y004125D02*
X010472Y004125D01*
X010472Y003805D02*
X010472Y004446D01*
X011334Y004339D02*
X011441Y004446D01*
X011655Y004446D01*
X011761Y004339D01*
X011761Y004232D01*
X011334Y003805D01*
X011761Y003805D01*
X011979Y003912D02*
X011979Y004339D01*
X012086Y004446D01*
X012299Y004446D01*
X012406Y004339D01*
X011979Y003912D01*
X012086Y003805D01*
X012299Y003805D01*
X012406Y003912D01*
X012406Y004339D01*
X012623Y004232D02*
X012837Y004446D01*
X012837Y003805D01*
X013050Y003805D02*
X012623Y003805D01*
X013268Y003912D02*
X013375Y003805D01*
X013588Y003805D01*
X013695Y003912D01*
X013695Y004019D01*
X013588Y004125D01*
X013481Y004125D01*
X013588Y004125D02*
X013695Y004232D01*
X013695Y004339D01*
X013588Y004446D01*
X013375Y004446D01*
X013268Y004339D01*
X007466Y004232D02*
X007466Y004019D01*
X007252Y003805D01*
X007035Y003805D02*
X006714Y003805D01*
X006608Y003912D01*
X006608Y004125D01*
X006714Y004232D01*
X007035Y004232D01*
X007252Y004446D02*
X007466Y004232D01*
X006391Y004446D02*
X006178Y004232D01*
X006178Y004019D01*
X006391Y003805D01*
X027102Y006894D02*
X027316Y006680D01*
X027529Y006680D01*
X027743Y006894D01*
X027636Y007110D02*
X027743Y007216D01*
X027743Y007537D01*
X027743Y007754D02*
X027529Y007968D01*
X027316Y007968D01*
X027102Y007754D01*
X027316Y007537D02*
X027316Y007216D01*
X027423Y007110D01*
X027636Y007110D01*
X027529Y008828D02*
X027529Y009149D01*
X027423Y009256D01*
X027209Y009256D01*
X027102Y009149D01*
X027102Y008828D01*
X027743Y008828D01*
X027743Y009473D02*
X027743Y009687D01*
X027743Y009580D02*
X027316Y009580D01*
X027316Y009473D01*
X027102Y009580D02*
X026996Y009580D01*
X027209Y009903D02*
X027636Y009903D01*
X027743Y010010D01*
X027743Y010223D01*
X027636Y010330D01*
X027743Y010547D02*
X027102Y010547D01*
X027209Y010330D02*
X027102Y010223D01*
X027102Y010010D01*
X027209Y009903D01*
X027423Y010547D02*
X027423Y010974D01*
X027743Y010974D02*
X027102Y010974D01*
X027209Y011836D02*
X027102Y011943D01*
X027102Y012157D01*
X027209Y012263D01*
X027316Y012263D01*
X027743Y011836D01*
X027743Y012263D01*
X027636Y012481D02*
X027209Y012908D01*
X027636Y012908D01*
X027743Y012801D01*
X027743Y012588D01*
X027636Y012481D01*
X027209Y012481D01*
X027102Y012588D01*
X027102Y012801D01*
X027209Y012908D01*
X027316Y013125D02*
X027102Y013339D01*
X027743Y013339D01*
X027743Y013125D02*
X027743Y013553D01*
X027636Y013770D02*
X027743Y013877D01*
X027743Y014090D01*
X027636Y014197D01*
X027529Y014197D01*
X027423Y014090D01*
X027423Y013984D01*
X027423Y014090D02*
X027316Y014197D01*
X027209Y014197D01*
X027102Y014090D01*
X027102Y013877D01*
X027209Y013770D01*
X029148Y013025D02*
X034648Y013025D01*
X034648Y016025D01*
X029148Y016025D01*
X029148Y013025D01*
X029148Y012900D02*
X034648Y012900D01*
X034648Y009900D01*
X029148Y009900D01*
X029148Y012900D01*
X029148Y016150D02*
X034648Y016150D01*
X034648Y019150D01*
X029148Y019150D01*
X029148Y016150D01*
X030886Y020749D02*
X030857Y020786D01*
X030825Y020821D01*
X030790Y020854D01*
X030753Y020884D01*
X030714Y020910D01*
X030673Y020933D01*
X030629Y020954D01*
X030585Y020970D01*
X030539Y020983D01*
X030493Y020992D01*
X030445Y020998D01*
X030398Y021000D01*
X029924Y020032D02*
X029954Y019997D01*
X029985Y019964D01*
X030020Y019934D01*
X030056Y019907D01*
X030094Y019883D01*
X030134Y019861D01*
X030176Y019843D01*
X030219Y019827D01*
X030263Y019815D01*
X030307Y019807D01*
X030353Y019802D01*
X030398Y019800D01*
X029918Y020760D02*
X029947Y020796D01*
X029979Y020830D01*
X030014Y020861D01*
X030050Y020889D01*
X030089Y020914D01*
X030130Y020937D01*
X030172Y020956D01*
X030215Y020972D01*
X030260Y020984D01*
X030306Y020993D01*
X030352Y020998D01*
X030398Y021000D01*
X030872Y020032D02*
X030842Y019997D01*
X030811Y019964D01*
X030776Y019934D01*
X030740Y019907D01*
X030702Y019883D01*
X030662Y019861D01*
X030620Y019843D01*
X030577Y019827D01*
X030533Y019815D01*
X030489Y019807D01*
X030443Y019802D01*
X030398Y019800D01*
X033273Y021000D02*
X033320Y020998D01*
X033368Y020992D01*
X033414Y020983D01*
X033460Y020970D01*
X033504Y020954D01*
X033548Y020933D01*
X033589Y020910D01*
X033628Y020884D01*
X033665Y020854D01*
X033700Y020821D01*
X033732Y020786D01*
X033761Y020749D01*
X033273Y019800D02*
X033228Y019802D01*
X033182Y019807D01*
X033138Y019815D01*
X033094Y019827D01*
X033051Y019843D01*
X033009Y019861D01*
X032969Y019883D01*
X032931Y019907D01*
X032895Y019934D01*
X032860Y019964D01*
X032829Y019997D01*
X032799Y020032D01*
X033273Y019800D02*
X033318Y019802D01*
X033364Y019807D01*
X033408Y019815D01*
X033452Y019827D01*
X033495Y019843D01*
X033537Y019861D01*
X033577Y019883D01*
X033615Y019907D01*
X033651Y019934D01*
X033686Y019964D01*
X033717Y019997D01*
X033747Y020032D01*
X033273Y021000D02*
X033227Y020998D01*
X033181Y020993D01*
X033135Y020984D01*
X033090Y020972D01*
X033047Y020956D01*
X033005Y020937D01*
X032964Y020914D01*
X032925Y020889D01*
X032889Y020861D01*
X032854Y020830D01*
X032822Y020796D01*
X032793Y020760D01*
X033595Y023075D02*
X033701Y023075D01*
X033194Y023463D02*
X033221Y023519D01*
X033252Y023573D01*
X033286Y023625D01*
X033323Y023675D01*
X034973Y023675D01*
X034701Y023075D02*
X034595Y023075D01*
X035098Y023472D02*
X035071Y023526D01*
X035041Y023577D01*
X035008Y023627D01*
X034973Y023675D01*
X035098Y022578D02*
X035069Y022521D01*
X035036Y022465D01*
X035001Y022412D01*
X034961Y022361D01*
X034919Y022313D01*
X034874Y022267D01*
X034827Y022224D01*
X034777Y022184D01*
X034724Y022147D01*
X034669Y022114D01*
X034613Y022083D01*
X034554Y022057D01*
X034494Y022034D01*
X034433Y022014D01*
X034371Y021999D01*
X034308Y021987D01*
X034244Y021979D01*
X034180Y021975D01*
X034116Y021975D01*
X034052Y021979D01*
X033988Y021987D01*
X033925Y021999D01*
X033863Y022014D01*
X033802Y022034D01*
X033742Y022057D01*
X033683Y022083D01*
X033627Y022114D01*
X033572Y022147D01*
X033519Y022184D01*
X033469Y022224D01*
X033422Y022267D01*
X033377Y022313D01*
X033335Y022361D01*
X033295Y022412D01*
X033260Y022465D01*
X033227Y022521D01*
X033198Y022578D01*
X036523Y022175D02*
X036523Y021425D01*
X036562Y021423D01*
X036601Y021417D01*
X036639Y021408D01*
X036676Y021395D01*
X036712Y021378D01*
X036745Y021358D01*
X036777Y021334D01*
X036806Y021308D01*
X036832Y021279D01*
X036856Y021247D01*
X036876Y021214D01*
X036893Y021178D01*
X036906Y021141D01*
X036915Y021103D01*
X036921Y021064D01*
X036923Y021025D01*
X036921Y020986D01*
X036915Y020947D01*
X036906Y020909D01*
X036893Y020872D01*
X036876Y020836D01*
X036856Y020803D01*
X036832Y020771D01*
X036806Y020742D01*
X036777Y020716D01*
X036745Y020692D01*
X036712Y020672D01*
X036676Y020655D01*
X036639Y020642D01*
X036601Y020633D01*
X036562Y020627D01*
X036523Y020625D01*
X036523Y019875D01*
X044523Y019875D01*
X044523Y022175D01*
X036523Y022175D01*
X036723Y018675D02*
X044323Y018675D01*
X044373Y018625D02*
X044373Y017925D01*
X043673Y017925D01*
X043673Y018625D01*
X044373Y018625D01*
X044323Y018675D02*
X044349Y018673D01*
X044375Y018668D01*
X044400Y018660D01*
X044423Y018648D01*
X044445Y018634D01*
X044464Y018616D01*
X044482Y018597D01*
X044496Y018575D01*
X044508Y018552D01*
X044516Y018527D01*
X044521Y018501D01*
X044523Y018475D01*
X044523Y018075D01*
X044521Y018049D01*
X044516Y018023D01*
X044508Y017998D01*
X044496Y017975D01*
X044482Y017953D01*
X044464Y017934D01*
X044445Y017916D01*
X044423Y017902D01*
X044400Y017890D01*
X044375Y017882D01*
X044349Y017877D01*
X044323Y017875D01*
X036723Y017875D01*
X036697Y017877D01*
X036671Y017882D01*
X036646Y017890D01*
X036623Y017902D01*
X036601Y017916D01*
X036582Y017934D01*
X036564Y017953D01*
X036550Y017975D01*
X036538Y017998D01*
X036530Y018023D01*
X036525Y018049D01*
X036523Y018075D01*
X036523Y018475D01*
X036525Y018501D01*
X036530Y018527D01*
X036538Y018552D01*
X036550Y018575D01*
X036564Y018597D01*
X036582Y018616D01*
X036601Y018634D01*
X036623Y018648D01*
X036646Y018660D01*
X036671Y018668D01*
X036697Y018673D01*
X036723Y018675D01*
X036723Y017425D02*
X044323Y017425D01*
X044373Y017375D02*
X044373Y016675D01*
X043673Y016675D01*
X043673Y017375D01*
X044373Y017375D01*
X044323Y017425D02*
X044349Y017423D01*
X044375Y017418D01*
X044400Y017410D01*
X044423Y017398D01*
X044445Y017384D01*
X044464Y017366D01*
X044482Y017347D01*
X044496Y017325D01*
X044508Y017302D01*
X044516Y017277D01*
X044521Y017251D01*
X044523Y017225D01*
X044523Y016825D01*
X044521Y016799D01*
X044516Y016773D01*
X044508Y016748D01*
X044496Y016725D01*
X044482Y016703D01*
X044464Y016684D01*
X044445Y016666D01*
X044423Y016652D01*
X044400Y016640D01*
X044375Y016632D01*
X044349Y016627D01*
X044323Y016625D01*
X036723Y016625D01*
X036697Y016627D01*
X036671Y016632D01*
X036646Y016640D01*
X036623Y016652D01*
X036601Y016666D01*
X036582Y016684D01*
X036564Y016703D01*
X036550Y016725D01*
X036538Y016748D01*
X036530Y016773D01*
X036525Y016799D01*
X036523Y016825D01*
X036523Y017225D01*
X036525Y017251D01*
X036530Y017277D01*
X036538Y017302D01*
X036550Y017325D01*
X036564Y017347D01*
X036582Y017366D01*
X036601Y017384D01*
X036623Y017398D01*
X036646Y017410D01*
X036671Y017418D01*
X036697Y017423D01*
X036723Y017425D01*
X036523Y015050D02*
X036523Y014300D01*
X036562Y014298D01*
X036601Y014292D01*
X036639Y014283D01*
X036676Y014270D01*
X036712Y014253D01*
X036745Y014233D01*
X036777Y014209D01*
X036806Y014183D01*
X036832Y014154D01*
X036856Y014122D01*
X036876Y014089D01*
X036893Y014053D01*
X036906Y014016D01*
X036915Y013978D01*
X036921Y013939D01*
X036923Y013900D01*
X036921Y013861D01*
X036915Y013822D01*
X036906Y013784D01*
X036893Y013747D01*
X036876Y013711D01*
X036856Y013678D01*
X036832Y013646D01*
X036806Y013617D01*
X036777Y013591D01*
X036745Y013567D01*
X036712Y013547D01*
X036676Y013530D01*
X036639Y013517D01*
X036601Y013508D01*
X036562Y013502D01*
X036523Y013500D01*
X036523Y012750D01*
X044523Y012750D01*
X044523Y015050D01*
X036523Y015050D01*
X036723Y011550D02*
X044323Y011550D01*
X044373Y011500D02*
X044373Y010800D01*
X043673Y010800D01*
X043673Y011500D01*
X044373Y011500D01*
X044323Y011550D02*
X044349Y011548D01*
X044375Y011543D01*
X044400Y011535D01*
X044423Y011523D01*
X044445Y011509D01*
X044464Y011491D01*
X044482Y011472D01*
X044496Y011450D01*
X044508Y011427D01*
X044516Y011402D01*
X044521Y011376D01*
X044523Y011350D01*
X044523Y010950D01*
X044521Y010924D01*
X044516Y010898D01*
X044508Y010873D01*
X044496Y010850D01*
X044482Y010828D01*
X044464Y010809D01*
X044445Y010791D01*
X044423Y010777D01*
X044400Y010765D01*
X044375Y010757D01*
X044349Y010752D01*
X044323Y010750D01*
X036723Y010750D01*
X036697Y010752D01*
X036671Y010757D01*
X036646Y010765D01*
X036623Y010777D01*
X036601Y010791D01*
X036582Y010809D01*
X036564Y010828D01*
X036550Y010850D01*
X036538Y010873D01*
X036530Y010898D01*
X036525Y010924D01*
X036523Y010950D01*
X036523Y011350D01*
X036525Y011376D01*
X036530Y011402D01*
X036538Y011427D01*
X036550Y011450D01*
X036564Y011472D01*
X036582Y011491D01*
X036601Y011509D01*
X036623Y011523D01*
X036646Y011535D01*
X036671Y011543D01*
X036697Y011548D01*
X036723Y011550D01*
X036723Y010300D02*
X044323Y010300D01*
X044373Y010250D02*
X043673Y010250D01*
X043673Y009550D01*
X044373Y009550D01*
X044373Y010250D01*
X044323Y010300D02*
X044349Y010298D01*
X044375Y010293D01*
X044400Y010285D01*
X044423Y010273D01*
X044445Y010259D01*
X044464Y010241D01*
X044482Y010222D01*
X044496Y010200D01*
X044508Y010177D01*
X044516Y010152D01*
X044521Y010126D01*
X044523Y010100D01*
X044523Y009700D01*
X044521Y009674D01*
X044516Y009648D01*
X044508Y009623D01*
X044496Y009600D01*
X044482Y009578D01*
X044464Y009559D01*
X044445Y009541D01*
X044423Y009527D01*
X044400Y009515D01*
X044375Y009507D01*
X044349Y009502D01*
X044323Y009500D01*
X036723Y009500D01*
X036697Y009502D01*
X036671Y009507D01*
X036646Y009515D01*
X036623Y009527D01*
X036601Y009541D01*
X036582Y009559D01*
X036564Y009578D01*
X036550Y009600D01*
X036538Y009623D01*
X036530Y009648D01*
X036525Y009674D01*
X036523Y009700D01*
X036523Y010100D01*
X036525Y010126D01*
X036530Y010152D01*
X036538Y010177D01*
X036550Y010200D01*
X036564Y010222D01*
X036582Y010241D01*
X036601Y010259D01*
X036623Y010273D01*
X036646Y010285D01*
X036671Y010293D01*
X036697Y010298D01*
X036723Y010300D01*
X036523Y007300D02*
X036523Y006550D01*
X036562Y006548D01*
X036601Y006542D01*
X036639Y006533D01*
X036676Y006520D01*
X036712Y006503D01*
X036745Y006483D01*
X036777Y006459D01*
X036806Y006433D01*
X036832Y006404D01*
X036856Y006372D01*
X036876Y006339D01*
X036893Y006303D01*
X036906Y006266D01*
X036915Y006228D01*
X036921Y006189D01*
X036923Y006150D01*
X036921Y006111D01*
X036915Y006072D01*
X036906Y006034D01*
X036893Y005997D01*
X036876Y005961D01*
X036856Y005928D01*
X036832Y005896D01*
X036806Y005867D01*
X036777Y005841D01*
X036745Y005817D01*
X036712Y005797D01*
X036676Y005780D01*
X036639Y005767D01*
X036601Y005758D01*
X036562Y005752D01*
X036523Y005750D01*
X036523Y005000D01*
X044523Y005000D01*
X044523Y007300D01*
X036523Y007300D01*
X036723Y003675D02*
X044323Y003675D01*
X044373Y003625D02*
X044373Y002925D01*
X043673Y002925D01*
X043673Y003625D01*
X044373Y003625D01*
X044323Y003675D02*
X044349Y003673D01*
X044375Y003668D01*
X044400Y003660D01*
X044423Y003648D01*
X044445Y003634D01*
X044464Y003616D01*
X044482Y003597D01*
X044496Y003575D01*
X044508Y003552D01*
X044516Y003527D01*
X044521Y003501D01*
X044523Y003475D01*
X044523Y003075D01*
X044521Y003049D01*
X044516Y003023D01*
X044508Y002998D01*
X044496Y002975D01*
X044482Y002953D01*
X044464Y002934D01*
X044445Y002916D01*
X044423Y002902D01*
X044400Y002890D01*
X044375Y002882D01*
X044349Y002877D01*
X044323Y002875D01*
X036723Y002875D01*
X036697Y002877D01*
X036671Y002882D01*
X036646Y002890D01*
X036623Y002902D01*
X036601Y002916D01*
X036582Y002934D01*
X036564Y002953D01*
X036550Y002975D01*
X036538Y002998D01*
X036530Y003023D01*
X036525Y003049D01*
X036523Y003075D01*
X036523Y003475D01*
X036525Y003501D01*
X036530Y003527D01*
X036538Y003552D01*
X036550Y003575D01*
X036564Y003597D01*
X036582Y003616D01*
X036601Y003634D01*
X036623Y003648D01*
X036646Y003660D01*
X036671Y003668D01*
X036697Y003673D01*
X036723Y003675D01*
X036723Y002550D02*
X044323Y002550D01*
X044373Y002500D02*
X044373Y001800D01*
X043673Y001800D01*
X043673Y002500D01*
X044373Y002500D01*
X044323Y002550D02*
X044349Y002548D01*
X044375Y002543D01*
X044400Y002535D01*
X044423Y002523D01*
X044445Y002509D01*
X044464Y002491D01*
X044482Y002472D01*
X044496Y002450D01*
X044508Y002427D01*
X044516Y002402D01*
X044521Y002376D01*
X044523Y002350D01*
X044523Y001950D01*
X044521Y001924D01*
X044516Y001898D01*
X044508Y001873D01*
X044496Y001850D01*
X044482Y001828D01*
X044464Y001809D01*
X044445Y001791D01*
X044423Y001777D01*
X044400Y001765D01*
X044375Y001757D01*
X044349Y001752D01*
X044323Y001750D01*
X036723Y001750D01*
X036697Y001752D01*
X036671Y001757D01*
X036646Y001765D01*
X036623Y001777D01*
X036601Y001791D01*
X036582Y001809D01*
X036564Y001828D01*
X036550Y001850D01*
X036538Y001873D01*
X036530Y001898D01*
X036525Y001924D01*
X036523Y001950D01*
X036523Y002350D01*
X036525Y002376D01*
X036530Y002402D01*
X036538Y002427D01*
X036550Y002450D01*
X036564Y002472D01*
X036582Y002491D01*
X036601Y002509D01*
X036623Y002523D01*
X036646Y002535D01*
X036671Y002543D01*
X036697Y002548D01*
X036723Y002550D01*
X008023Y021400D02*
X007773Y021150D01*
X007273Y021150D01*
X007023Y021400D01*
X006773Y021150D01*
X006273Y021150D01*
X006023Y021400D01*
X006023Y021900D01*
X006273Y022150D01*
X006773Y022150D01*
X007023Y021900D01*
X007273Y022150D01*
X007773Y022150D01*
X008023Y021900D01*
X008023Y021400D01*
X007023Y021400D02*
X007023Y021900D01*
D15*
X006661Y022405D02*
X006676Y022420D01*
X006676Y022480D01*
X006661Y022495D01*
X006615Y022495D01*
X006615Y022405D01*
X006661Y022405D01*
X006583Y022405D02*
X006583Y022495D01*
X006523Y022495D02*
X006583Y022405D01*
X006523Y022405D02*
X006523Y022495D01*
X006491Y022480D02*
X006476Y022495D01*
X006446Y022495D01*
X006431Y022480D01*
X006431Y022420D01*
X006446Y022405D01*
X006476Y022405D01*
X006491Y022420D01*
X006491Y022450D01*
X006461Y022450D01*
X006400Y022420D02*
X006385Y022420D01*
X006385Y022405D01*
X006400Y022405D01*
X006400Y022420D01*
X006400Y022405D02*
X006370Y022375D01*
X006338Y022405D02*
X006278Y022405D01*
X006308Y022405D02*
X006308Y022495D01*
X006278Y022465D01*
X007997Y022480D02*
X008012Y022495D01*
X008042Y022495D01*
X008057Y022480D01*
X008057Y022465D01*
X007997Y022405D01*
X008057Y022405D01*
X008089Y022375D02*
X008119Y022405D01*
X008104Y022405D01*
X008104Y022420D01*
X008119Y022420D01*
X008119Y022405D01*
X008150Y022435D02*
X008180Y022405D01*
X008210Y022435D01*
X008210Y022495D01*
X008242Y022480D02*
X008242Y022420D01*
X008257Y022405D01*
X008287Y022405D01*
X008302Y022420D01*
X008334Y022420D02*
X008349Y022405D01*
X008379Y022405D01*
X008394Y022420D01*
X008334Y022420D02*
X008334Y022480D01*
X008349Y022495D01*
X008379Y022495D01*
X008394Y022480D01*
X008302Y022480D02*
X008287Y022495D01*
X008257Y022495D01*
X008242Y022480D01*
X008150Y022495D02*
X008150Y022435D01*
D16*
X007247Y020850D02*
X007284Y020813D01*
X007284Y020740D01*
X007247Y020703D01*
X007137Y020703D01*
X007137Y020630D02*
X007137Y020850D01*
X007247Y020850D01*
X007210Y020703D02*
X007284Y020630D01*
X007063Y020630D02*
X006916Y020630D01*
X006916Y020850D01*
X007063Y020850D01*
X006989Y020740D02*
X006916Y020740D01*
X006842Y020630D02*
X006842Y020850D01*
X006695Y020850D02*
X006695Y020630D01*
X006768Y020703D01*
X006842Y020630D01*
X006621Y020667D02*
X006621Y020813D01*
X006584Y020850D01*
X006511Y020850D01*
X006474Y020813D01*
X006474Y020667D01*
X006511Y020630D01*
X006584Y020630D01*
X006621Y020667D01*
X006400Y020740D02*
X006363Y020703D01*
X006253Y020703D01*
X006253Y020630D02*
X006253Y020850D01*
X006363Y020850D01*
X006400Y020813D01*
X006400Y020740D01*
X010533Y019505D02*
X010606Y019505D01*
X010570Y019505D02*
X010570Y019285D01*
X010606Y019285D02*
X010533Y019285D01*
X010680Y019395D02*
X010827Y019395D01*
X010790Y019285D02*
X010790Y019505D01*
X010680Y019395D01*
X011283Y018630D02*
X011356Y018630D01*
X011320Y018630D02*
X011320Y018410D01*
X011356Y018410D02*
X011283Y018410D01*
X011430Y018447D02*
X011467Y018410D01*
X011540Y018410D01*
X011577Y018447D01*
X011577Y018483D01*
X011540Y018520D01*
X011504Y018520D01*
X011540Y018520D02*
X011577Y018557D01*
X011577Y018593D01*
X011540Y018630D01*
X011467Y018630D01*
X011430Y018593D01*
X014533Y021910D02*
X014606Y021910D01*
X014570Y021910D02*
X014570Y022130D01*
X014606Y022130D02*
X014533Y022130D01*
X014680Y022093D02*
X014717Y022130D01*
X014790Y022130D01*
X014827Y022093D01*
X014827Y022057D01*
X014680Y021910D01*
X014827Y021910D01*
X011452Y022285D02*
X011305Y022285D01*
X011379Y022285D02*
X011379Y022505D01*
X011305Y022432D01*
X011231Y022505D02*
X011158Y022505D01*
X011195Y022505D02*
X011195Y022285D01*
X011231Y022285D02*
X011158Y022285D01*
X012981Y025660D02*
X013055Y025733D01*
X013055Y025880D01*
X013129Y025843D02*
X013129Y025697D01*
X013166Y025660D01*
X013239Y025660D01*
X013276Y025697D01*
X013350Y025697D02*
X013387Y025660D01*
X013460Y025660D01*
X013497Y025697D01*
X013497Y025843D02*
X013460Y025880D01*
X013387Y025880D01*
X013350Y025843D01*
X013350Y025697D01*
X013276Y025843D02*
X013239Y025880D01*
X013166Y025880D01*
X013129Y025843D01*
X012908Y025880D02*
X012908Y025733D01*
X012981Y025660D01*
X012945Y026660D02*
X013018Y026660D01*
X013055Y026697D01*
X013055Y026770D01*
X012981Y026770D01*
X012908Y026697D02*
X012945Y026660D01*
X012908Y026697D02*
X012908Y026843D01*
X012945Y026880D01*
X013018Y026880D01*
X013055Y026843D01*
X013129Y026880D02*
X013276Y026660D01*
X013276Y026880D01*
X013350Y026880D02*
X013460Y026880D01*
X013497Y026843D01*
X013497Y026697D01*
X013460Y026660D01*
X013350Y026660D01*
X013350Y026880D01*
X013129Y026880D02*
X013129Y026660D01*
X013106Y027660D02*
X013033Y027660D01*
X013070Y027660D02*
X013070Y027880D01*
X013106Y027880D02*
X013033Y027880D01*
X013180Y027807D02*
X013254Y027880D01*
X013254Y027660D01*
X013327Y027660D02*
X013180Y027660D01*
X013180Y028660D02*
X013327Y028807D01*
X013327Y028843D01*
X013290Y028880D01*
X013217Y028880D01*
X013180Y028843D01*
X013106Y028880D02*
X013033Y028880D01*
X013070Y028880D02*
X013070Y028660D01*
X013106Y028660D02*
X013033Y028660D01*
X013180Y028660D02*
X013327Y028660D01*
X013290Y029660D02*
X013217Y029660D01*
X013180Y029697D01*
X013106Y029660D02*
X013033Y029660D01*
X013070Y029660D02*
X013070Y029880D01*
X013106Y029880D02*
X013033Y029880D01*
X013180Y029843D02*
X013217Y029880D01*
X013290Y029880D01*
X013327Y029843D01*
X013327Y029807D01*
X013290Y029770D01*
X013327Y029733D01*
X013327Y029697D01*
X013290Y029660D01*
X013290Y029770D02*
X013254Y029770D01*
X013290Y030660D02*
X013290Y030880D01*
X013180Y030770D01*
X013327Y030770D01*
X013106Y030660D02*
X013033Y030660D01*
X013070Y030660D02*
X013070Y030880D01*
X013106Y030880D02*
X013033Y030880D01*
X012923Y031196D02*
X012783Y031196D01*
X012783Y031266D01*
X012806Y031289D01*
X012853Y031289D01*
X012876Y031266D01*
X012876Y031196D01*
X012876Y031242D02*
X012923Y031289D01*
X012923Y031343D02*
X012783Y031343D01*
X012923Y031436D01*
X012783Y031436D01*
X012829Y031490D02*
X012783Y031537D01*
X012923Y031537D01*
X012923Y031490D02*
X012923Y031584D01*
X012923Y031638D02*
X012783Y031638D01*
X012853Y031661D02*
X012923Y031731D01*
X012876Y031638D02*
X012783Y031731D01*
X011673Y031731D02*
X011603Y031661D01*
X011626Y031638D02*
X011533Y031731D01*
X011533Y031638D02*
X011673Y031638D01*
X011650Y031584D02*
X011673Y031560D01*
X011673Y031514D01*
X011650Y031490D01*
X011556Y031584D01*
X011650Y031584D01*
X011650Y031490D02*
X011556Y031490D01*
X011533Y031514D01*
X011533Y031560D01*
X011556Y031584D01*
X011673Y031436D02*
X011673Y031343D01*
X011673Y031390D02*
X011533Y031390D01*
X011579Y031343D01*
X011533Y031289D02*
X011673Y031289D01*
X011533Y031196D01*
X011673Y031196D01*
X011673Y031142D02*
X011626Y031095D01*
X011626Y031118D02*
X011626Y031048D01*
X011673Y031048D02*
X011533Y031048D01*
X011533Y031118D01*
X011556Y031142D01*
X011603Y031142D01*
X011626Y031118D01*
X008297Y010890D02*
X008224Y010890D01*
X008187Y010853D01*
X008187Y010707D01*
X008224Y010670D01*
X008297Y010670D01*
X008334Y010707D01*
X008334Y010853D02*
X008297Y010890D01*
X008113Y010853D02*
X008076Y010890D01*
X008003Y010890D01*
X007966Y010853D01*
X007966Y010707D01*
X008003Y010670D01*
X008076Y010670D01*
X008113Y010707D01*
X007892Y010743D02*
X007892Y010890D01*
X007892Y010743D02*
X007818Y010670D01*
X007745Y010743D01*
X007745Y010890D01*
X007782Y009890D02*
X007745Y009853D01*
X007745Y009707D01*
X007782Y009670D01*
X007855Y009670D01*
X007892Y009707D01*
X007892Y009780D01*
X007818Y009780D01*
X007892Y009853D02*
X007855Y009890D01*
X007782Y009890D01*
X007966Y009890D02*
X008113Y009670D01*
X008113Y009890D01*
X008187Y009890D02*
X008297Y009890D01*
X008334Y009853D01*
X008334Y009707D01*
X008297Y009670D01*
X008187Y009670D01*
X008187Y009890D01*
X007966Y009890D02*
X007966Y009670D01*
X007951Y008890D02*
X007951Y008670D01*
X007915Y008670D02*
X007988Y008670D01*
X008062Y008670D02*
X008209Y008670D01*
X008135Y008670D02*
X008135Y008890D01*
X008062Y008817D01*
X007988Y008890D02*
X007915Y008890D01*
X007915Y007890D02*
X007988Y007890D01*
X007951Y007890D02*
X007951Y007670D01*
X007915Y007670D02*
X007988Y007670D01*
X008062Y007670D02*
X008209Y007817D01*
X008209Y007853D01*
X008172Y007890D01*
X008099Y007890D01*
X008062Y007853D01*
X008062Y007670D02*
X008209Y007670D01*
X008172Y006890D02*
X008209Y006853D01*
X008209Y006817D01*
X008172Y006780D01*
X008209Y006743D01*
X008209Y006707D01*
X008172Y006670D01*
X008099Y006670D01*
X008062Y006707D01*
X007988Y006670D02*
X007915Y006670D01*
X007951Y006670D02*
X007951Y006890D01*
X007915Y006890D02*
X007988Y006890D01*
X008062Y006853D02*
X008099Y006890D01*
X008172Y006890D01*
X008172Y006780D02*
X008135Y006780D01*
X008172Y005890D02*
X008062Y005780D01*
X008209Y005780D01*
X008172Y005670D02*
X008172Y005890D01*
X007988Y005890D02*
X007915Y005890D01*
X007951Y005890D02*
X007951Y005670D01*
X007915Y005670D02*
X007988Y005670D01*
D17*
X017149Y005775D02*
X017151Y005825D01*
X017157Y005874D01*
X017167Y005922D01*
X017180Y005970D01*
X017198Y006017D01*
X017219Y006062D01*
X017243Y006105D01*
X017271Y006146D01*
X017302Y006184D01*
X017336Y006221D01*
X017373Y006254D01*
X017412Y006284D01*
X017454Y006311D01*
X017497Y006335D01*
X017543Y006355D01*
X017590Y006371D01*
X017638Y006384D01*
X017686Y006393D01*
X017736Y006398D01*
X017785Y006399D01*
X017835Y006396D01*
X017884Y006389D01*
X017933Y006378D01*
X017980Y006364D01*
X018026Y006345D01*
X018071Y006323D01*
X018113Y006298D01*
X018154Y006269D01*
X018192Y006238D01*
X018227Y006203D01*
X018260Y006165D01*
X018289Y006126D01*
X018315Y006083D01*
X018338Y006039D01*
X018357Y005994D01*
X018373Y005946D01*
X018385Y005898D01*
X018393Y005849D01*
X018397Y005800D01*
X018397Y005750D01*
X018393Y005701D01*
X018385Y005652D01*
X018373Y005604D01*
X018357Y005556D01*
X018338Y005511D01*
X018315Y005467D01*
X018289Y005424D01*
X018260Y005385D01*
X018227Y005347D01*
X018192Y005312D01*
X018154Y005281D01*
X018113Y005252D01*
X018071Y005227D01*
X018026Y005205D01*
X017980Y005186D01*
X017933Y005172D01*
X017884Y005161D01*
X017835Y005154D01*
X017785Y005151D01*
X017736Y005152D01*
X017686Y005157D01*
X017638Y005166D01*
X017590Y005179D01*
X017543Y005195D01*
X017497Y005215D01*
X017454Y005239D01*
X017412Y005266D01*
X017373Y005296D01*
X017336Y005329D01*
X017302Y005366D01*
X017271Y005404D01*
X017243Y005445D01*
X017219Y005488D01*
X017198Y005533D01*
X017180Y005580D01*
X017167Y005628D01*
X017157Y005676D01*
X017151Y005725D01*
X017149Y005775D01*
X017149Y010275D02*
X017151Y010325D01*
X017157Y010374D01*
X017167Y010422D01*
X017180Y010470D01*
X017198Y010517D01*
X017219Y010562D01*
X017243Y010605D01*
X017271Y010646D01*
X017302Y010684D01*
X017336Y010721D01*
X017373Y010754D01*
X017412Y010784D01*
X017454Y010811D01*
X017497Y010835D01*
X017543Y010855D01*
X017590Y010871D01*
X017638Y010884D01*
X017686Y010893D01*
X017736Y010898D01*
X017785Y010899D01*
X017835Y010896D01*
X017884Y010889D01*
X017933Y010878D01*
X017980Y010864D01*
X018026Y010845D01*
X018071Y010823D01*
X018113Y010798D01*
X018154Y010769D01*
X018192Y010738D01*
X018227Y010703D01*
X018260Y010665D01*
X018289Y010626D01*
X018315Y010583D01*
X018338Y010539D01*
X018357Y010494D01*
X018373Y010446D01*
X018385Y010398D01*
X018393Y010349D01*
X018397Y010300D01*
X018397Y010250D01*
X018393Y010201D01*
X018385Y010152D01*
X018373Y010104D01*
X018357Y010056D01*
X018338Y010011D01*
X018315Y009967D01*
X018289Y009924D01*
X018260Y009885D01*
X018227Y009847D01*
X018192Y009812D01*
X018154Y009781D01*
X018113Y009752D01*
X018071Y009727D01*
X018026Y009705D01*
X017980Y009686D01*
X017933Y009672D01*
X017884Y009661D01*
X017835Y009654D01*
X017785Y009651D01*
X017736Y009652D01*
X017686Y009657D01*
X017638Y009666D01*
X017590Y009679D01*
X017543Y009695D01*
X017497Y009715D01*
X017454Y009739D01*
X017412Y009766D01*
X017373Y009796D01*
X017336Y009829D01*
X017302Y009866D01*
X017271Y009904D01*
X017243Y009945D01*
X017219Y009988D01*
X017198Y010033D01*
X017180Y010080D01*
X017167Y010128D01*
X017157Y010176D01*
X017151Y010225D01*
X017149Y010275D01*
X006892Y024764D02*
X006894Y024793D01*
X006900Y024821D01*
X006909Y024849D01*
X006922Y024875D01*
X006939Y024898D01*
X006958Y024920D01*
X006980Y024939D01*
X007005Y024954D01*
X007031Y024967D01*
X007059Y024975D01*
X007087Y024980D01*
X007116Y024981D01*
X007145Y024978D01*
X007173Y024971D01*
X007200Y024961D01*
X007226Y024947D01*
X007249Y024930D01*
X007270Y024910D01*
X007288Y024887D01*
X007303Y024862D01*
X007314Y024835D01*
X007322Y024807D01*
X007326Y024778D01*
X007326Y024750D01*
X007322Y024721D01*
X007314Y024693D01*
X007303Y024666D01*
X007288Y024641D01*
X007270Y024618D01*
X007249Y024598D01*
X007226Y024581D01*
X007200Y024567D01*
X007173Y024557D01*
X007145Y024550D01*
X007116Y024547D01*
X007087Y024548D01*
X007059Y024553D01*
X007031Y024561D01*
X007005Y024574D01*
X006980Y024589D01*
X006958Y024608D01*
X006939Y024630D01*
X006922Y024653D01*
X006909Y024679D01*
X006900Y024707D01*
X006894Y024735D01*
X006892Y024764D01*
X006892Y026536D02*
X006894Y026565D01*
X006900Y026593D01*
X006909Y026621D01*
X006922Y026647D01*
X006939Y026670D01*
X006958Y026692D01*
X006980Y026711D01*
X007005Y026726D01*
X007031Y026739D01*
X007059Y026747D01*
X007087Y026752D01*
X007116Y026753D01*
X007145Y026750D01*
X007173Y026743D01*
X007200Y026733D01*
X007226Y026719D01*
X007249Y026702D01*
X007270Y026682D01*
X007288Y026659D01*
X007303Y026634D01*
X007314Y026607D01*
X007322Y026579D01*
X007326Y026550D01*
X007326Y026522D01*
X007322Y026493D01*
X007314Y026465D01*
X007303Y026438D01*
X007288Y026413D01*
X007270Y026390D01*
X007249Y026370D01*
X007226Y026353D01*
X007200Y026339D01*
X007173Y026329D01*
X007145Y026322D01*
X007116Y026319D01*
X007087Y026320D01*
X007059Y026325D01*
X007031Y026333D01*
X007005Y026346D01*
X006980Y026361D01*
X006958Y026380D01*
X006939Y026402D01*
X006922Y026425D01*
X006909Y026451D01*
X006900Y026479D01*
X006894Y026507D01*
X006892Y026536D01*
X030524Y028900D02*
X030526Y028950D01*
X030532Y028999D01*
X030542Y029047D01*
X030555Y029095D01*
X030573Y029142D01*
X030594Y029187D01*
X030618Y029230D01*
X030646Y029271D01*
X030677Y029309D01*
X030711Y029346D01*
X030748Y029379D01*
X030787Y029409D01*
X030829Y029436D01*
X030872Y029460D01*
X030918Y029480D01*
X030965Y029496D01*
X031013Y029509D01*
X031061Y029518D01*
X031111Y029523D01*
X031160Y029524D01*
X031210Y029521D01*
X031259Y029514D01*
X031308Y029503D01*
X031355Y029489D01*
X031401Y029470D01*
X031446Y029448D01*
X031488Y029423D01*
X031529Y029394D01*
X031567Y029363D01*
X031602Y029328D01*
X031635Y029290D01*
X031664Y029251D01*
X031690Y029208D01*
X031713Y029164D01*
X031732Y029119D01*
X031748Y029071D01*
X031760Y029023D01*
X031768Y028974D01*
X031772Y028925D01*
X031772Y028875D01*
X031768Y028826D01*
X031760Y028777D01*
X031748Y028729D01*
X031732Y028681D01*
X031713Y028636D01*
X031690Y028592D01*
X031664Y028549D01*
X031635Y028510D01*
X031602Y028472D01*
X031567Y028437D01*
X031529Y028406D01*
X031488Y028377D01*
X031446Y028352D01*
X031401Y028330D01*
X031355Y028311D01*
X031308Y028297D01*
X031259Y028286D01*
X031210Y028279D01*
X031160Y028276D01*
X031111Y028277D01*
X031061Y028282D01*
X031013Y028291D01*
X030965Y028304D01*
X030918Y028320D01*
X030872Y028340D01*
X030829Y028364D01*
X030787Y028391D01*
X030748Y028421D01*
X030711Y028454D01*
X030677Y028491D01*
X030646Y028529D01*
X030618Y028570D01*
X030594Y028613D01*
X030573Y028658D01*
X030555Y028705D01*
X030542Y028753D01*
X030532Y028801D01*
X030526Y028850D01*
X030524Y028900D01*
X035024Y028900D02*
X035026Y028950D01*
X035032Y028999D01*
X035042Y029047D01*
X035055Y029095D01*
X035073Y029142D01*
X035094Y029187D01*
X035118Y029230D01*
X035146Y029271D01*
X035177Y029309D01*
X035211Y029346D01*
X035248Y029379D01*
X035287Y029409D01*
X035329Y029436D01*
X035372Y029460D01*
X035418Y029480D01*
X035465Y029496D01*
X035513Y029509D01*
X035561Y029518D01*
X035611Y029523D01*
X035660Y029524D01*
X035710Y029521D01*
X035759Y029514D01*
X035808Y029503D01*
X035855Y029489D01*
X035901Y029470D01*
X035946Y029448D01*
X035988Y029423D01*
X036029Y029394D01*
X036067Y029363D01*
X036102Y029328D01*
X036135Y029290D01*
X036164Y029251D01*
X036190Y029208D01*
X036213Y029164D01*
X036232Y029119D01*
X036248Y029071D01*
X036260Y029023D01*
X036268Y028974D01*
X036272Y028925D01*
X036272Y028875D01*
X036268Y028826D01*
X036260Y028777D01*
X036248Y028729D01*
X036232Y028681D01*
X036213Y028636D01*
X036190Y028592D01*
X036164Y028549D01*
X036135Y028510D01*
X036102Y028472D01*
X036067Y028437D01*
X036029Y028406D01*
X035988Y028377D01*
X035946Y028352D01*
X035901Y028330D01*
X035855Y028311D01*
X035808Y028297D01*
X035759Y028286D01*
X035710Y028279D01*
X035660Y028276D01*
X035611Y028277D01*
X035561Y028282D01*
X035513Y028291D01*
X035465Y028304D01*
X035418Y028320D01*
X035372Y028340D01*
X035329Y028364D01*
X035287Y028391D01*
X035248Y028421D01*
X035211Y028454D01*
X035177Y028491D01*
X035146Y028529D01*
X035118Y028570D01*
X035094Y028613D01*
X035073Y028658D01*
X035055Y028705D01*
X035042Y028753D01*
X035032Y028801D01*
X035026Y028850D01*
X035024Y028900D01*
X038399Y028900D02*
X038401Y028950D01*
X038407Y028999D01*
X038417Y029047D01*
X038430Y029095D01*
X038448Y029142D01*
X038469Y029187D01*
X038493Y029230D01*
X038521Y029271D01*
X038552Y029309D01*
X038586Y029346D01*
X038623Y029379D01*
X038662Y029409D01*
X038704Y029436D01*
X038747Y029460D01*
X038793Y029480D01*
X038840Y029496D01*
X038888Y029509D01*
X038936Y029518D01*
X038986Y029523D01*
X039035Y029524D01*
X039085Y029521D01*
X039134Y029514D01*
X039183Y029503D01*
X039230Y029489D01*
X039276Y029470D01*
X039321Y029448D01*
X039363Y029423D01*
X039404Y029394D01*
X039442Y029363D01*
X039477Y029328D01*
X039510Y029290D01*
X039539Y029251D01*
X039565Y029208D01*
X039588Y029164D01*
X039607Y029119D01*
X039623Y029071D01*
X039635Y029023D01*
X039643Y028974D01*
X039647Y028925D01*
X039647Y028875D01*
X039643Y028826D01*
X039635Y028777D01*
X039623Y028729D01*
X039607Y028681D01*
X039588Y028636D01*
X039565Y028592D01*
X039539Y028549D01*
X039510Y028510D01*
X039477Y028472D01*
X039442Y028437D01*
X039404Y028406D01*
X039363Y028377D01*
X039321Y028352D01*
X039276Y028330D01*
X039230Y028311D01*
X039183Y028297D01*
X039134Y028286D01*
X039085Y028279D01*
X039035Y028276D01*
X038986Y028277D01*
X038936Y028282D01*
X038888Y028291D01*
X038840Y028304D01*
X038793Y028320D01*
X038747Y028340D01*
X038704Y028364D01*
X038662Y028391D01*
X038623Y028421D01*
X038586Y028454D01*
X038552Y028491D01*
X038521Y028529D01*
X038493Y028570D01*
X038469Y028613D01*
X038448Y028658D01*
X038430Y028705D01*
X038417Y028753D01*
X038407Y028801D01*
X038401Y028850D01*
X038399Y028900D01*
X042899Y028900D02*
X042901Y028950D01*
X042907Y028999D01*
X042917Y029047D01*
X042930Y029095D01*
X042948Y029142D01*
X042969Y029187D01*
X042993Y029230D01*
X043021Y029271D01*
X043052Y029309D01*
X043086Y029346D01*
X043123Y029379D01*
X043162Y029409D01*
X043204Y029436D01*
X043247Y029460D01*
X043293Y029480D01*
X043340Y029496D01*
X043388Y029509D01*
X043436Y029518D01*
X043486Y029523D01*
X043535Y029524D01*
X043585Y029521D01*
X043634Y029514D01*
X043683Y029503D01*
X043730Y029489D01*
X043776Y029470D01*
X043821Y029448D01*
X043863Y029423D01*
X043904Y029394D01*
X043942Y029363D01*
X043977Y029328D01*
X044010Y029290D01*
X044039Y029251D01*
X044065Y029208D01*
X044088Y029164D01*
X044107Y029119D01*
X044123Y029071D01*
X044135Y029023D01*
X044143Y028974D01*
X044147Y028925D01*
X044147Y028875D01*
X044143Y028826D01*
X044135Y028777D01*
X044123Y028729D01*
X044107Y028681D01*
X044088Y028636D01*
X044065Y028592D01*
X044039Y028549D01*
X044010Y028510D01*
X043977Y028472D01*
X043942Y028437D01*
X043904Y028406D01*
X043863Y028377D01*
X043821Y028352D01*
X043776Y028330D01*
X043730Y028311D01*
X043683Y028297D01*
X043634Y028286D01*
X043585Y028279D01*
X043535Y028276D01*
X043486Y028277D01*
X043436Y028282D01*
X043388Y028291D01*
X043340Y028304D01*
X043293Y028320D01*
X043247Y028340D01*
X043204Y028364D01*
X043162Y028391D01*
X043123Y028421D01*
X043086Y028454D01*
X043052Y028491D01*
X043021Y028529D01*
X042993Y028570D01*
X042969Y028613D01*
X042948Y028658D01*
X042930Y028705D01*
X042917Y028753D01*
X042907Y028801D01*
X042901Y028850D01*
X042899Y028900D01*
D18*
X042724Y024630D02*
X042493Y024630D01*
X042493Y024170D01*
X042340Y024170D02*
X042033Y024170D01*
X042033Y024630D01*
X042340Y024630D01*
X042186Y024400D02*
X042033Y024400D01*
X041879Y024247D02*
X041879Y024554D01*
X041803Y024630D01*
X041573Y024630D01*
X041573Y024170D01*
X041803Y024170D01*
X041879Y024247D01*
X041419Y024170D02*
X041419Y024477D01*
X041266Y024630D01*
X041112Y024477D01*
X041112Y024170D01*
X040959Y024170D02*
X040652Y024170D01*
X040652Y024630D01*
X040959Y024630D01*
X041112Y024400D02*
X041419Y024400D01*
X040805Y024400D02*
X040652Y024400D01*
X040498Y024400D02*
X040191Y024400D01*
X040191Y024170D02*
X040191Y024630D01*
X040038Y024630D02*
X039731Y024630D01*
X039884Y024630D02*
X039884Y024170D01*
X039578Y024247D02*
X039578Y024630D01*
X039271Y024630D02*
X039271Y024247D01*
X039347Y024170D01*
X039501Y024170D01*
X039578Y024247D01*
X039117Y024400D02*
X039040Y024323D01*
X038810Y024323D01*
X038810Y024170D02*
X038810Y024630D01*
X039040Y024630D01*
X039117Y024554D01*
X039117Y024400D01*
X038657Y024170D02*
X038657Y024630D01*
X038350Y024630D02*
X038350Y024170D01*
X038196Y024170D02*
X038043Y024170D01*
X038120Y024170D02*
X038120Y024630D01*
X038196Y024630D02*
X038043Y024630D01*
X038350Y024630D02*
X038657Y024170D01*
X040498Y024170D02*
X040498Y024630D01*
X042493Y024323D02*
X042724Y024323D01*
X042800Y024400D01*
X042800Y024554D01*
X042724Y024630D01*
X042647Y024323D02*
X042800Y024170D01*
X035539Y024170D02*
X035386Y024323D01*
X035462Y024323D02*
X035232Y024323D01*
X035232Y024170D02*
X035232Y024630D01*
X035462Y024630D01*
X035539Y024554D01*
X035539Y024400D01*
X035462Y024323D01*
X035079Y024170D02*
X034772Y024170D01*
X034772Y024630D01*
X035079Y024630D01*
X034925Y024400D02*
X034772Y024400D01*
X034618Y024247D02*
X034618Y024554D01*
X034542Y024630D01*
X034311Y024630D01*
X034311Y024170D01*
X034542Y024170D01*
X034618Y024247D01*
X034158Y024170D02*
X034158Y024477D01*
X034004Y024630D01*
X033851Y024477D01*
X033851Y024170D01*
X033698Y024170D02*
X033391Y024170D01*
X033391Y024630D01*
X033698Y024630D01*
X033851Y024400D02*
X034158Y024400D01*
X033544Y024400D02*
X033391Y024400D01*
X033237Y024400D02*
X032930Y024400D01*
X032930Y024170D02*
X032930Y024630D01*
X032777Y024630D02*
X032470Y024630D01*
X032623Y024630D02*
X032623Y024170D01*
X032316Y024247D02*
X032316Y024630D01*
X032009Y024630D02*
X032009Y024247D01*
X032086Y024170D01*
X032240Y024170D01*
X032316Y024247D01*
X031856Y024400D02*
X031779Y024323D01*
X031549Y024323D01*
X031549Y024170D02*
X031549Y024630D01*
X031779Y024630D01*
X031856Y024554D01*
X031856Y024400D01*
X031396Y024630D02*
X031089Y024630D01*
X031242Y024630D02*
X031242Y024170D01*
X030935Y024247D02*
X030935Y024630D01*
X030628Y024630D02*
X030628Y024247D01*
X030705Y024170D01*
X030858Y024170D01*
X030935Y024247D01*
X030475Y024247D02*
X030475Y024554D01*
X030398Y024630D01*
X030245Y024630D01*
X030168Y024554D01*
X030168Y024247D01*
X030245Y024170D01*
X030398Y024170D01*
X030475Y024247D01*
X033237Y024170D02*
X033237Y024630D01*
X027836Y027900D02*
X027759Y027823D01*
X027529Y027823D01*
X027529Y027670D02*
X027529Y028130D01*
X027759Y028130D01*
X027836Y028054D01*
X027836Y027900D01*
X027376Y027747D02*
X027299Y027670D01*
X027146Y027670D01*
X027069Y027747D01*
X027069Y028054D01*
X027146Y028130D01*
X027299Y028130D01*
X027376Y028054D01*
X026915Y027747D02*
X026915Y027670D01*
X026839Y027670D01*
X026839Y027747D01*
X026915Y027747D01*
X026685Y027823D02*
X026685Y028130D01*
X026685Y027823D02*
X026532Y027670D01*
X026378Y027823D01*
X026378Y028130D01*
X026225Y028130D02*
X025918Y028130D01*
X025918Y027900D01*
X026071Y027977D01*
X026148Y027977D01*
X026225Y027900D01*
X026225Y027747D01*
X026148Y027670D01*
X025995Y027670D01*
X025918Y027747D01*
X010565Y030689D02*
X010104Y030996D01*
X010258Y031149D02*
X010104Y031303D01*
X010565Y031303D01*
X010565Y031456D02*
X010565Y031149D01*
X010565Y030996D02*
X010104Y030689D01*
X009431Y024684D02*
X009431Y024607D01*
X009354Y024607D01*
X009354Y024684D01*
X009431Y024684D01*
X006971Y019552D02*
X006664Y019552D01*
X006511Y019399D01*
X006664Y019246D01*
X006971Y019246D01*
X006971Y019092D02*
X006971Y018785D01*
X006971Y018939D02*
X006511Y018939D01*
X006664Y018785D01*
X006741Y019246D02*
X006741Y019552D01*
X013119Y011142D02*
X013273Y011142D01*
X013349Y011065D01*
X013349Y010835D01*
X013349Y010988D02*
X013503Y011142D01*
X013503Y010835D02*
X013042Y010835D01*
X013042Y011065D01*
X013119Y011142D01*
X013042Y010681D02*
X013042Y010374D01*
X013503Y010374D01*
X013503Y010681D01*
X013273Y010528D02*
X013273Y010374D01*
X013426Y010221D02*
X013119Y010221D01*
X013042Y010144D01*
X013042Y009914D01*
X013503Y009914D01*
X013503Y010144D01*
X013426Y010221D01*
X013503Y009760D02*
X013196Y009760D01*
X013042Y009607D01*
X013196Y009453D01*
X013503Y009453D01*
X013503Y009300D02*
X013503Y008993D01*
X013042Y008993D01*
X013042Y009300D01*
X013273Y009453D02*
X013273Y009760D01*
X013273Y009146D02*
X013273Y008993D01*
X013273Y008840D02*
X013273Y008533D01*
X013503Y008533D02*
X013042Y008533D01*
X013042Y008379D02*
X013503Y008379D01*
X013503Y008072D02*
X013042Y008072D01*
X013196Y008226D01*
X013042Y008379D01*
X013042Y008840D02*
X013503Y008840D01*
X013503Y007919D02*
X013349Y007765D01*
X013349Y007842D02*
X013349Y007612D01*
X013503Y007612D02*
X013042Y007612D01*
X013042Y007842D01*
X013119Y007919D01*
X013273Y007919D01*
X013349Y007842D01*
X013503Y007458D02*
X013503Y007151D01*
X013042Y007151D01*
X013042Y007458D01*
X013273Y007305D02*
X013273Y007151D01*
X013273Y006998D02*
X013273Y006691D01*
X013503Y006691D02*
X013042Y006691D01*
X013042Y006538D02*
X013042Y006231D01*
X013042Y006384D02*
X013503Y006384D01*
X013503Y006998D02*
X013042Y006998D01*
D19*
X028232Y009935D02*
X028232Y010355D01*
X028337Y010355D01*
X028758Y009935D01*
X028863Y009935D01*
X028758Y010580D02*
X028863Y010685D01*
X028863Y010895D01*
X028758Y011000D01*
X028653Y011000D01*
X028548Y010895D01*
X028548Y010685D01*
X028443Y010580D01*
X028337Y010580D01*
X028232Y010685D01*
X028232Y010895D01*
X028337Y011000D01*
X028443Y011224D02*
X028232Y011434D01*
X028863Y011434D01*
X028863Y011224D02*
X028863Y011644D01*
X028863Y013060D02*
X028758Y013060D01*
X028337Y013480D01*
X028232Y013480D01*
X028232Y013060D01*
X028337Y013705D02*
X028443Y013705D01*
X028548Y013810D01*
X028548Y014020D01*
X028653Y014125D01*
X028758Y014125D01*
X028863Y014020D01*
X028863Y013810D01*
X028758Y013705D01*
X028337Y013705D02*
X028232Y013810D01*
X028232Y014020D01*
X028337Y014125D01*
X028337Y014349D02*
X028232Y014454D01*
X028232Y014664D01*
X028337Y014769D01*
X028443Y014769D01*
X028863Y014349D01*
X028863Y014769D01*
X028863Y016185D02*
X028758Y016185D01*
X028337Y016605D01*
X028232Y016605D01*
X028232Y016185D01*
X028337Y016830D02*
X028443Y016830D01*
X028548Y016935D01*
X028548Y017145D01*
X028653Y017250D01*
X028758Y017250D01*
X028863Y017145D01*
X028863Y016935D01*
X028758Y016830D01*
X028337Y016830D02*
X028232Y016935D01*
X028232Y017145D01*
X028337Y017250D01*
X028337Y017474D02*
X028232Y017579D01*
X028232Y017789D01*
X028337Y017894D01*
X028443Y017894D01*
X028548Y017789D01*
X028653Y017894D01*
X028758Y017894D01*
X028863Y017789D01*
X028863Y017579D01*
X028758Y017474D01*
X028548Y017684D02*
X028548Y017789D01*
X022505Y028266D02*
X022085Y028266D01*
X022295Y028266D02*
X022295Y028897D01*
X022085Y028687D01*
X021860Y028897D02*
X021440Y028477D01*
X021545Y028582D02*
X021860Y028266D01*
X021440Y028266D02*
X021440Y028897D01*
D20*
X025705Y029119D02*
X025705Y028490D01*
X026335Y028490D01*
X028461Y028490D02*
X029091Y028490D01*
X029091Y034119D01*
X025705Y034119D01*
X025705Y030990D01*
X008348Y020525D02*
X008350Y020551D01*
X008356Y020577D01*
X008365Y020601D01*
X008378Y020624D01*
X008395Y020644D01*
X008414Y020662D01*
X008436Y020677D01*
X008459Y020688D01*
X008484Y020696D01*
X008510Y020700D01*
X008536Y020700D01*
X008562Y020696D01*
X008587Y020688D01*
X008611Y020677D01*
X008632Y020662D01*
X008651Y020644D01*
X008668Y020624D01*
X008681Y020601D01*
X008690Y020577D01*
X008696Y020551D01*
X008698Y020525D01*
X008696Y020499D01*
X008690Y020473D01*
X008681Y020449D01*
X008668Y020426D01*
X008651Y020406D01*
X008632Y020388D01*
X008610Y020373D01*
X008587Y020362D01*
X008562Y020354D01*
X008536Y020350D01*
X008510Y020350D01*
X008484Y020354D01*
X008459Y020362D01*
X008435Y020373D01*
X008414Y020388D01*
X008395Y020406D01*
X008378Y020426D01*
X008365Y020449D01*
X008356Y020473D01*
X008350Y020499D01*
X008348Y020525D01*
X007312Y020025D02*
X007314Y020094D01*
X007320Y020163D01*
X007330Y020232D01*
X007343Y020299D01*
X007361Y020366D01*
X007382Y020432D01*
X007408Y020496D01*
X007436Y020559D01*
X007469Y020620D01*
X007504Y020680D01*
X007543Y020737D01*
X007586Y020792D01*
X007631Y020844D01*
X007679Y020893D01*
X007730Y020940D01*
X007784Y020984D01*
X007839Y021025D01*
X007898Y021062D01*
X007958Y021096D01*
X008020Y021127D01*
X008084Y021153D01*
X008149Y021177D01*
X008215Y021196D01*
X008283Y021212D01*
X008351Y021224D01*
X008419Y021232D01*
X008488Y021236D01*
X008558Y021236D01*
X008627Y021232D01*
X008695Y021224D01*
X008763Y021212D01*
X008831Y021196D01*
X008897Y021177D01*
X008962Y021153D01*
X009026Y021127D01*
X009088Y021096D01*
X009148Y021062D01*
X009207Y021025D01*
X009262Y020984D01*
X009316Y020940D01*
X009367Y020893D01*
X009415Y020844D01*
X009460Y020792D01*
X009503Y020737D01*
X009542Y020680D01*
X009577Y020620D01*
X009610Y020559D01*
X009638Y020496D01*
X009664Y020432D01*
X009685Y020366D01*
X009703Y020299D01*
X009716Y020232D01*
X009726Y020163D01*
X009732Y020094D01*
X009734Y020025D01*
X009732Y019956D01*
X009726Y019887D01*
X009716Y019818D01*
X009703Y019751D01*
X009685Y019684D01*
X009664Y019618D01*
X009638Y019554D01*
X009610Y019491D01*
X009577Y019430D01*
X009542Y019370D01*
X009503Y019313D01*
X009460Y019258D01*
X009415Y019206D01*
X009367Y019157D01*
X009316Y019110D01*
X009262Y019066D01*
X009207Y019025D01*
X009148Y018988D01*
X009088Y018954D01*
X009026Y018923D01*
X008962Y018897D01*
X008897Y018873D01*
X008831Y018854D01*
X008763Y018838D01*
X008695Y018826D01*
X008627Y018818D01*
X008558Y018814D01*
X008488Y018814D01*
X008419Y018818D01*
X008351Y018826D01*
X008283Y018838D01*
X008215Y018854D01*
X008149Y018873D01*
X008084Y018897D01*
X008020Y018923D01*
X007958Y018954D01*
X007898Y018988D01*
X007839Y019025D01*
X007784Y019066D01*
X007730Y019110D01*
X007679Y019157D01*
X007631Y019206D01*
X007586Y019258D01*
X007543Y019313D01*
X007504Y019370D01*
X007469Y019430D01*
X007436Y019491D01*
X007408Y019554D01*
X007382Y019618D01*
X007361Y019684D01*
X007343Y019751D01*
X007330Y019818D01*
X007320Y019887D01*
X007314Y019956D01*
X007312Y020025D01*
X008348Y019525D02*
X008350Y019551D01*
X008356Y019577D01*
X008365Y019601D01*
X008378Y019624D01*
X008395Y019644D01*
X008414Y019662D01*
X008436Y019677D01*
X008459Y019688D01*
X008484Y019696D01*
X008510Y019700D01*
X008536Y019700D01*
X008562Y019696D01*
X008587Y019688D01*
X008611Y019677D01*
X008632Y019662D01*
X008651Y019644D01*
X008668Y019624D01*
X008681Y019601D01*
X008690Y019577D01*
X008696Y019551D01*
X008698Y019525D01*
X008696Y019499D01*
X008690Y019473D01*
X008681Y019449D01*
X008668Y019426D01*
X008651Y019406D01*
X008632Y019388D01*
X008610Y019373D01*
X008587Y019362D01*
X008562Y019354D01*
X008536Y019350D01*
X008510Y019350D01*
X008484Y019354D01*
X008459Y019362D01*
X008435Y019373D01*
X008414Y019388D01*
X008395Y019406D01*
X008378Y019426D01*
X008365Y019449D01*
X008356Y019473D01*
X008350Y019499D01*
X008348Y019525D01*
X006360Y023288D02*
X005967Y023288D01*
X005967Y028012D01*
X006360Y028012D01*
X007542Y027225D02*
X007542Y024075D01*
D21*
X030288Y018130D02*
X030288Y017470D01*
X032148Y017270D02*
X032148Y017940D01*
X032148Y014815D02*
X032148Y014145D01*
X030288Y014345D02*
X030288Y015005D01*
X030288Y011880D02*
X030288Y011220D01*
X032148Y011020D02*
X032148Y011690D01*
D22*
X033948Y012470D02*
X033950Y012485D01*
X033955Y012499D01*
X033964Y012511D01*
X033976Y012521D01*
X033989Y012527D01*
X034004Y012530D01*
X034019Y012529D01*
X034034Y012524D01*
X034046Y012516D01*
X034057Y012505D01*
X034064Y012492D01*
X034068Y012478D01*
X034068Y012462D01*
X034064Y012448D01*
X034057Y012435D01*
X034046Y012424D01*
X034034Y012416D01*
X034019Y012411D01*
X034004Y012410D01*
X033989Y012413D01*
X033976Y012419D01*
X033964Y012429D01*
X033955Y012441D01*
X033950Y012455D01*
X033948Y012470D01*
X033948Y015595D02*
X033950Y015610D01*
X033955Y015624D01*
X033964Y015636D01*
X033976Y015646D01*
X033989Y015652D01*
X034004Y015655D01*
X034019Y015654D01*
X034034Y015649D01*
X034046Y015641D01*
X034057Y015630D01*
X034064Y015617D01*
X034068Y015603D01*
X034068Y015587D01*
X034064Y015573D01*
X034057Y015560D01*
X034046Y015549D01*
X034034Y015541D01*
X034019Y015536D01*
X034004Y015535D01*
X033989Y015538D01*
X033976Y015544D01*
X033964Y015554D01*
X033955Y015566D01*
X033950Y015580D01*
X033948Y015595D01*
X033948Y018720D02*
X033950Y018735D01*
X033955Y018749D01*
X033964Y018761D01*
X033976Y018771D01*
X033989Y018777D01*
X034004Y018780D01*
X034019Y018779D01*
X034034Y018774D01*
X034046Y018766D01*
X034057Y018755D01*
X034064Y018742D01*
X034068Y018728D01*
X034068Y018712D01*
X034064Y018698D01*
X034057Y018685D01*
X034046Y018674D01*
X034034Y018666D01*
X034019Y018661D01*
X034004Y018660D01*
X033989Y018663D01*
X033976Y018669D01*
X033964Y018679D01*
X033955Y018691D01*
X033950Y018705D01*
X033948Y018720D01*
D23*
X037273Y025475D02*
X037273Y025575D01*
M02*
