G75*
%MOIN*%
%OFA0B0*%
%FSLAX24Y24*%
%IPPOS*%
%LPD*%
%AMOC8*
5,1,8,0,0,1.08239X$1,22.5*
%
%ADD10C,0.0160*%
%ADD11C,0.0000*%
%ADD12C,0.0060*%
%ADD13R,0.0240X0.0340*%
%ADD14C,0.0050*%
%ADD15C,0.0040*%
%ADD16R,0.0150X0.0200*%
%ADD17R,0.0200X0.0800*%
%ADD18R,0.0750X0.0200*%
D10*
X005898Y000275D02*
X005898Y032021D01*
X045268Y032021D01*
X045268Y000275D01*
X005898Y000275D01*
D11*
X017149Y005775D02*
X017151Y005825D01*
X017157Y005874D01*
X017167Y005922D01*
X017180Y005970D01*
X017198Y006017D01*
X017219Y006062D01*
X017243Y006105D01*
X017271Y006146D01*
X017302Y006184D01*
X017336Y006221D01*
X017373Y006254D01*
X017412Y006284D01*
X017454Y006311D01*
X017497Y006335D01*
X017543Y006355D01*
X017590Y006371D01*
X017638Y006384D01*
X017686Y006393D01*
X017736Y006398D01*
X017785Y006399D01*
X017835Y006396D01*
X017884Y006389D01*
X017933Y006378D01*
X017980Y006364D01*
X018026Y006345D01*
X018071Y006323D01*
X018113Y006298D01*
X018154Y006269D01*
X018192Y006238D01*
X018227Y006203D01*
X018260Y006165D01*
X018289Y006126D01*
X018315Y006083D01*
X018338Y006039D01*
X018357Y005994D01*
X018373Y005946D01*
X018385Y005898D01*
X018393Y005849D01*
X018397Y005800D01*
X018397Y005750D01*
X018393Y005701D01*
X018385Y005652D01*
X018373Y005604D01*
X018357Y005556D01*
X018338Y005511D01*
X018315Y005467D01*
X018289Y005424D01*
X018260Y005385D01*
X018227Y005347D01*
X018192Y005312D01*
X018154Y005281D01*
X018113Y005252D01*
X018071Y005227D01*
X018026Y005205D01*
X017980Y005186D01*
X017933Y005172D01*
X017884Y005161D01*
X017835Y005154D01*
X017785Y005151D01*
X017736Y005152D01*
X017686Y005157D01*
X017638Y005166D01*
X017590Y005179D01*
X017543Y005195D01*
X017497Y005215D01*
X017454Y005239D01*
X017412Y005266D01*
X017373Y005296D01*
X017336Y005329D01*
X017302Y005366D01*
X017271Y005404D01*
X017243Y005445D01*
X017219Y005488D01*
X017198Y005533D01*
X017180Y005580D01*
X017167Y005628D01*
X017157Y005676D01*
X017151Y005725D01*
X017149Y005775D01*
X017149Y010275D02*
X017151Y010325D01*
X017157Y010374D01*
X017167Y010422D01*
X017180Y010470D01*
X017198Y010517D01*
X017219Y010562D01*
X017243Y010605D01*
X017271Y010646D01*
X017302Y010684D01*
X017336Y010721D01*
X017373Y010754D01*
X017412Y010784D01*
X017454Y010811D01*
X017497Y010835D01*
X017543Y010855D01*
X017590Y010871D01*
X017638Y010884D01*
X017686Y010893D01*
X017736Y010898D01*
X017785Y010899D01*
X017835Y010896D01*
X017884Y010889D01*
X017933Y010878D01*
X017980Y010864D01*
X018026Y010845D01*
X018071Y010823D01*
X018113Y010798D01*
X018154Y010769D01*
X018192Y010738D01*
X018227Y010703D01*
X018260Y010665D01*
X018289Y010626D01*
X018315Y010583D01*
X018338Y010539D01*
X018357Y010494D01*
X018373Y010446D01*
X018385Y010398D01*
X018393Y010349D01*
X018397Y010300D01*
X018397Y010250D01*
X018393Y010201D01*
X018385Y010152D01*
X018373Y010104D01*
X018357Y010056D01*
X018338Y010011D01*
X018315Y009967D01*
X018289Y009924D01*
X018260Y009885D01*
X018227Y009847D01*
X018192Y009812D01*
X018154Y009781D01*
X018113Y009752D01*
X018071Y009727D01*
X018026Y009705D01*
X017980Y009686D01*
X017933Y009672D01*
X017884Y009661D01*
X017835Y009654D01*
X017785Y009651D01*
X017736Y009652D01*
X017686Y009657D01*
X017638Y009666D01*
X017590Y009679D01*
X017543Y009695D01*
X017497Y009715D01*
X017454Y009739D01*
X017412Y009766D01*
X017373Y009796D01*
X017336Y009829D01*
X017302Y009866D01*
X017271Y009904D01*
X017243Y009945D01*
X017219Y009988D01*
X017198Y010033D01*
X017180Y010080D01*
X017167Y010128D01*
X017157Y010176D01*
X017151Y010225D01*
X017149Y010275D01*
X006892Y024764D02*
X006894Y024793D01*
X006900Y024821D01*
X006909Y024849D01*
X006922Y024875D01*
X006939Y024898D01*
X006958Y024920D01*
X006980Y024939D01*
X007005Y024954D01*
X007031Y024967D01*
X007059Y024975D01*
X007087Y024980D01*
X007116Y024981D01*
X007145Y024978D01*
X007173Y024971D01*
X007200Y024961D01*
X007226Y024947D01*
X007249Y024930D01*
X007270Y024910D01*
X007288Y024887D01*
X007303Y024862D01*
X007314Y024835D01*
X007322Y024807D01*
X007326Y024778D01*
X007326Y024750D01*
X007322Y024721D01*
X007314Y024693D01*
X007303Y024666D01*
X007288Y024641D01*
X007270Y024618D01*
X007249Y024598D01*
X007226Y024581D01*
X007200Y024567D01*
X007173Y024557D01*
X007145Y024550D01*
X007116Y024547D01*
X007087Y024548D01*
X007059Y024553D01*
X007031Y024561D01*
X007005Y024574D01*
X006980Y024589D01*
X006958Y024608D01*
X006939Y024630D01*
X006922Y024653D01*
X006909Y024679D01*
X006900Y024707D01*
X006894Y024735D01*
X006892Y024764D01*
X006892Y026536D02*
X006894Y026565D01*
X006900Y026593D01*
X006909Y026621D01*
X006922Y026647D01*
X006939Y026670D01*
X006958Y026692D01*
X006980Y026711D01*
X007005Y026726D01*
X007031Y026739D01*
X007059Y026747D01*
X007087Y026752D01*
X007116Y026753D01*
X007145Y026750D01*
X007173Y026743D01*
X007200Y026733D01*
X007226Y026719D01*
X007249Y026702D01*
X007270Y026682D01*
X007288Y026659D01*
X007303Y026634D01*
X007314Y026607D01*
X007322Y026579D01*
X007326Y026550D01*
X007326Y026522D01*
X007322Y026493D01*
X007314Y026465D01*
X007303Y026438D01*
X007288Y026413D01*
X007270Y026390D01*
X007249Y026370D01*
X007226Y026353D01*
X007200Y026339D01*
X007173Y026329D01*
X007145Y026322D01*
X007116Y026319D01*
X007087Y026320D01*
X007059Y026325D01*
X007031Y026333D01*
X007005Y026346D01*
X006980Y026361D01*
X006958Y026380D01*
X006939Y026402D01*
X006922Y026425D01*
X006909Y026451D01*
X006900Y026479D01*
X006894Y026507D01*
X006892Y026536D01*
X030524Y028900D02*
X030526Y028950D01*
X030532Y028999D01*
X030542Y029047D01*
X030555Y029095D01*
X030573Y029142D01*
X030594Y029187D01*
X030618Y029230D01*
X030646Y029271D01*
X030677Y029309D01*
X030711Y029346D01*
X030748Y029379D01*
X030787Y029409D01*
X030829Y029436D01*
X030872Y029460D01*
X030918Y029480D01*
X030965Y029496D01*
X031013Y029509D01*
X031061Y029518D01*
X031111Y029523D01*
X031160Y029524D01*
X031210Y029521D01*
X031259Y029514D01*
X031308Y029503D01*
X031355Y029489D01*
X031401Y029470D01*
X031446Y029448D01*
X031488Y029423D01*
X031529Y029394D01*
X031567Y029363D01*
X031602Y029328D01*
X031635Y029290D01*
X031664Y029251D01*
X031690Y029208D01*
X031713Y029164D01*
X031732Y029119D01*
X031748Y029071D01*
X031760Y029023D01*
X031768Y028974D01*
X031772Y028925D01*
X031772Y028875D01*
X031768Y028826D01*
X031760Y028777D01*
X031748Y028729D01*
X031732Y028681D01*
X031713Y028636D01*
X031690Y028592D01*
X031664Y028549D01*
X031635Y028510D01*
X031602Y028472D01*
X031567Y028437D01*
X031529Y028406D01*
X031488Y028377D01*
X031446Y028352D01*
X031401Y028330D01*
X031355Y028311D01*
X031308Y028297D01*
X031259Y028286D01*
X031210Y028279D01*
X031160Y028276D01*
X031111Y028277D01*
X031061Y028282D01*
X031013Y028291D01*
X030965Y028304D01*
X030918Y028320D01*
X030872Y028340D01*
X030829Y028364D01*
X030787Y028391D01*
X030748Y028421D01*
X030711Y028454D01*
X030677Y028491D01*
X030646Y028529D01*
X030618Y028570D01*
X030594Y028613D01*
X030573Y028658D01*
X030555Y028705D01*
X030542Y028753D01*
X030532Y028801D01*
X030526Y028850D01*
X030524Y028900D01*
X035024Y028900D02*
X035026Y028950D01*
X035032Y028999D01*
X035042Y029047D01*
X035055Y029095D01*
X035073Y029142D01*
X035094Y029187D01*
X035118Y029230D01*
X035146Y029271D01*
X035177Y029309D01*
X035211Y029346D01*
X035248Y029379D01*
X035287Y029409D01*
X035329Y029436D01*
X035372Y029460D01*
X035418Y029480D01*
X035465Y029496D01*
X035513Y029509D01*
X035561Y029518D01*
X035611Y029523D01*
X035660Y029524D01*
X035710Y029521D01*
X035759Y029514D01*
X035808Y029503D01*
X035855Y029489D01*
X035901Y029470D01*
X035946Y029448D01*
X035988Y029423D01*
X036029Y029394D01*
X036067Y029363D01*
X036102Y029328D01*
X036135Y029290D01*
X036164Y029251D01*
X036190Y029208D01*
X036213Y029164D01*
X036232Y029119D01*
X036248Y029071D01*
X036260Y029023D01*
X036268Y028974D01*
X036272Y028925D01*
X036272Y028875D01*
X036268Y028826D01*
X036260Y028777D01*
X036248Y028729D01*
X036232Y028681D01*
X036213Y028636D01*
X036190Y028592D01*
X036164Y028549D01*
X036135Y028510D01*
X036102Y028472D01*
X036067Y028437D01*
X036029Y028406D01*
X035988Y028377D01*
X035946Y028352D01*
X035901Y028330D01*
X035855Y028311D01*
X035808Y028297D01*
X035759Y028286D01*
X035710Y028279D01*
X035660Y028276D01*
X035611Y028277D01*
X035561Y028282D01*
X035513Y028291D01*
X035465Y028304D01*
X035418Y028320D01*
X035372Y028340D01*
X035329Y028364D01*
X035287Y028391D01*
X035248Y028421D01*
X035211Y028454D01*
X035177Y028491D01*
X035146Y028529D01*
X035118Y028570D01*
X035094Y028613D01*
X035073Y028658D01*
X035055Y028705D01*
X035042Y028753D01*
X035032Y028801D01*
X035026Y028850D01*
X035024Y028900D01*
X038399Y028900D02*
X038401Y028950D01*
X038407Y028999D01*
X038417Y029047D01*
X038430Y029095D01*
X038448Y029142D01*
X038469Y029187D01*
X038493Y029230D01*
X038521Y029271D01*
X038552Y029309D01*
X038586Y029346D01*
X038623Y029379D01*
X038662Y029409D01*
X038704Y029436D01*
X038747Y029460D01*
X038793Y029480D01*
X038840Y029496D01*
X038888Y029509D01*
X038936Y029518D01*
X038986Y029523D01*
X039035Y029524D01*
X039085Y029521D01*
X039134Y029514D01*
X039183Y029503D01*
X039230Y029489D01*
X039276Y029470D01*
X039321Y029448D01*
X039363Y029423D01*
X039404Y029394D01*
X039442Y029363D01*
X039477Y029328D01*
X039510Y029290D01*
X039539Y029251D01*
X039565Y029208D01*
X039588Y029164D01*
X039607Y029119D01*
X039623Y029071D01*
X039635Y029023D01*
X039643Y028974D01*
X039647Y028925D01*
X039647Y028875D01*
X039643Y028826D01*
X039635Y028777D01*
X039623Y028729D01*
X039607Y028681D01*
X039588Y028636D01*
X039565Y028592D01*
X039539Y028549D01*
X039510Y028510D01*
X039477Y028472D01*
X039442Y028437D01*
X039404Y028406D01*
X039363Y028377D01*
X039321Y028352D01*
X039276Y028330D01*
X039230Y028311D01*
X039183Y028297D01*
X039134Y028286D01*
X039085Y028279D01*
X039035Y028276D01*
X038986Y028277D01*
X038936Y028282D01*
X038888Y028291D01*
X038840Y028304D01*
X038793Y028320D01*
X038747Y028340D01*
X038704Y028364D01*
X038662Y028391D01*
X038623Y028421D01*
X038586Y028454D01*
X038552Y028491D01*
X038521Y028529D01*
X038493Y028570D01*
X038469Y028613D01*
X038448Y028658D01*
X038430Y028705D01*
X038417Y028753D01*
X038407Y028801D01*
X038401Y028850D01*
X038399Y028900D01*
X042899Y028900D02*
X042901Y028950D01*
X042907Y028999D01*
X042917Y029047D01*
X042930Y029095D01*
X042948Y029142D01*
X042969Y029187D01*
X042993Y029230D01*
X043021Y029271D01*
X043052Y029309D01*
X043086Y029346D01*
X043123Y029379D01*
X043162Y029409D01*
X043204Y029436D01*
X043247Y029460D01*
X043293Y029480D01*
X043340Y029496D01*
X043388Y029509D01*
X043436Y029518D01*
X043486Y029523D01*
X043535Y029524D01*
X043585Y029521D01*
X043634Y029514D01*
X043683Y029503D01*
X043730Y029489D01*
X043776Y029470D01*
X043821Y029448D01*
X043863Y029423D01*
X043904Y029394D01*
X043942Y029363D01*
X043977Y029328D01*
X044010Y029290D01*
X044039Y029251D01*
X044065Y029208D01*
X044088Y029164D01*
X044107Y029119D01*
X044123Y029071D01*
X044135Y029023D01*
X044143Y028974D01*
X044147Y028925D01*
X044147Y028875D01*
X044143Y028826D01*
X044135Y028777D01*
X044123Y028729D01*
X044107Y028681D01*
X044088Y028636D01*
X044065Y028592D01*
X044039Y028549D01*
X044010Y028510D01*
X043977Y028472D01*
X043942Y028437D01*
X043904Y028406D01*
X043863Y028377D01*
X043821Y028352D01*
X043776Y028330D01*
X043730Y028311D01*
X043683Y028297D01*
X043634Y028286D01*
X043585Y028279D01*
X043535Y028276D01*
X043486Y028277D01*
X043436Y028282D01*
X043388Y028291D01*
X043340Y028304D01*
X043293Y028320D01*
X043247Y028340D01*
X043204Y028364D01*
X043162Y028391D01*
X043123Y028421D01*
X043086Y028454D01*
X043052Y028491D01*
X043021Y028529D01*
X042993Y028570D01*
X042969Y028613D01*
X042948Y028658D01*
X042930Y028705D01*
X042917Y028753D01*
X042907Y028801D01*
X042901Y028850D01*
X042899Y028900D01*
D12*
X018298Y014075D02*
X018298Y013475D01*
X018296Y013458D01*
X018292Y013441D01*
X018285Y013425D01*
X018275Y013411D01*
X018262Y013398D01*
X018248Y013388D01*
X018232Y013381D01*
X018215Y013377D01*
X018198Y013375D01*
X016598Y013375D01*
X016581Y013377D01*
X016564Y013381D01*
X016548Y013388D01*
X016534Y013398D01*
X016521Y013411D01*
X016511Y013425D01*
X016504Y013441D01*
X016500Y013458D01*
X016498Y013475D01*
X016498Y014075D01*
X016500Y014092D01*
X016504Y014109D01*
X016511Y014125D01*
X016521Y014139D01*
X016534Y014152D01*
X016548Y014162D01*
X016564Y014169D01*
X016581Y014173D01*
X016598Y014175D01*
X018198Y014175D01*
X018215Y014173D01*
X018232Y014169D01*
X018248Y014162D01*
X018262Y014152D01*
X018275Y014139D01*
X018285Y014125D01*
X018292Y014109D01*
X018296Y014092D01*
X018298Y014075D01*
X017648Y013775D02*
X017398Y013775D01*
X017398Y014025D01*
X017298Y014025D01*
X017398Y013775D02*
X017398Y013525D01*
X017398Y013775D02*
X016998Y014025D01*
X016998Y013525D01*
X017398Y013775D01*
X016798Y013775D01*
X016273Y013050D02*
X016323Y013000D01*
X017723Y013000D01*
X017773Y013050D01*
X017923Y013050D01*
X017940Y013048D01*
X017957Y013044D01*
X017973Y013037D01*
X017987Y013027D01*
X018000Y013014D01*
X018010Y013000D01*
X018017Y012984D01*
X018021Y012967D01*
X018023Y012950D01*
X018023Y012350D01*
X018021Y012333D01*
X018017Y012316D01*
X018010Y012300D01*
X018000Y012286D01*
X017987Y012273D01*
X017973Y012263D01*
X017957Y012256D01*
X017940Y012252D01*
X017923Y012250D01*
X017773Y012250D01*
X017723Y012300D01*
X016323Y012300D01*
X016273Y012250D01*
X016123Y012250D01*
X016106Y012252D01*
X016089Y012256D01*
X016073Y012263D01*
X016059Y012273D01*
X016046Y012286D01*
X016036Y012300D01*
X016029Y012316D01*
X016025Y012333D01*
X016023Y012350D01*
X016023Y012950D01*
X016025Y012967D01*
X016029Y012984D01*
X016036Y013000D01*
X016046Y013014D01*
X016059Y013027D01*
X016073Y013037D01*
X016089Y013044D01*
X016106Y013048D01*
X016123Y013050D01*
X016273Y013050D01*
X012498Y009650D02*
X011798Y009650D01*
X011781Y009648D01*
X011764Y009644D01*
X011748Y009637D01*
X011734Y009627D01*
X011721Y009614D01*
X011711Y009600D01*
X011704Y009584D01*
X011700Y009567D01*
X011698Y009550D01*
X011698Y009400D01*
X011748Y009350D01*
X011748Y007450D01*
X011698Y007400D01*
X011698Y007250D01*
X011700Y007233D01*
X011704Y007216D01*
X011711Y007200D01*
X011721Y007186D01*
X011734Y007173D01*
X011748Y007163D01*
X011764Y007156D01*
X011781Y007152D01*
X011798Y007150D01*
X012498Y007150D01*
X012515Y007152D01*
X012532Y007156D01*
X012548Y007163D01*
X012562Y007173D01*
X012575Y007186D01*
X012585Y007200D01*
X012592Y007216D01*
X012596Y007233D01*
X012598Y007250D01*
X012598Y007400D01*
X012548Y007450D01*
X012548Y009350D01*
X012598Y009400D01*
X012598Y009550D01*
X012596Y009567D01*
X012592Y009584D01*
X012585Y009600D01*
X012575Y009614D01*
X012562Y009627D01*
X012548Y009637D01*
X012532Y009644D01*
X012515Y009648D01*
X012498Y009650D01*
X006773Y003350D02*
X019273Y003350D01*
X019303Y003348D01*
X019333Y003343D01*
X019362Y003334D01*
X019389Y003321D01*
X019415Y003306D01*
X019439Y003287D01*
X019460Y003266D01*
X019479Y003242D01*
X019494Y003216D01*
X019507Y003189D01*
X019516Y003160D01*
X019521Y003130D01*
X019523Y003100D01*
X019523Y001200D01*
X019521Y001170D01*
X019516Y001140D01*
X019507Y001111D01*
X019494Y001084D01*
X019479Y001058D01*
X019460Y001034D01*
X019439Y001013D01*
X019415Y000994D01*
X019389Y000979D01*
X019362Y000966D01*
X019333Y000957D01*
X019303Y000952D01*
X019273Y000950D01*
X006773Y000950D01*
X006743Y000952D01*
X006713Y000957D01*
X006684Y000966D01*
X006657Y000979D01*
X006631Y000994D01*
X006607Y001013D01*
X006586Y001034D01*
X006567Y001058D01*
X006552Y001084D01*
X006539Y001111D01*
X006530Y001140D01*
X006525Y001170D01*
X006523Y001200D01*
X006523Y003100D01*
X006525Y003130D01*
X006530Y003160D01*
X006539Y003189D01*
X006552Y003216D01*
X006567Y003242D01*
X006586Y003266D01*
X006607Y003287D01*
X006631Y003306D01*
X006657Y003321D01*
X006684Y003334D01*
X006713Y003343D01*
X006743Y003348D01*
X006773Y003350D01*
D13*
X012148Y006980D03*
X012148Y009820D03*
D14*
X011598Y008961D02*
X011148Y008961D01*
X011148Y009111D02*
X011148Y008810D01*
X011148Y008650D02*
X011298Y008500D01*
X011298Y008575D02*
X011298Y008350D01*
X011148Y008350D02*
X011598Y008350D01*
X011598Y008575D01*
X011523Y008650D01*
X011373Y008650D01*
X011298Y008575D01*
X011448Y008810D02*
X011598Y008961D01*
X013887Y013550D02*
X014187Y013550D01*
X014037Y013550D02*
X014037Y014000D01*
X014187Y013850D01*
X014348Y013925D02*
X014423Y014000D01*
X014648Y014000D01*
X014648Y013550D01*
X014423Y013550D01*
X014348Y013625D01*
X014348Y013925D01*
X014533Y014350D02*
X014833Y014350D01*
X014533Y014650D01*
X014533Y014725D01*
X014608Y014800D01*
X014758Y014800D01*
X014833Y014725D01*
X014993Y014800D02*
X015294Y014800D01*
X015144Y014800D02*
X015144Y014350D01*
X015713Y014397D02*
X015654Y014417D01*
X015597Y014440D01*
X015540Y014467D01*
X015486Y014498D01*
X015433Y014531D01*
X015383Y014568D01*
X015334Y014607D01*
X015289Y014650D01*
X015245Y014695D01*
X015205Y014742D01*
X015167Y014792D01*
X015132Y014844D01*
X015101Y014898D01*
X015073Y014953D01*
X015048Y015010D01*
X015027Y015069D01*
X015009Y015129D01*
X014994Y015190D01*
X014984Y015251D01*
X014977Y015313D01*
X014973Y015375D01*
X014974Y015438D01*
X014978Y015500D01*
X015136Y015500D01*
X015198Y016050D02*
X016847Y016050D01*
X016910Y015500D02*
X017068Y015500D01*
X016136Y015500D02*
X015910Y015500D01*
X015198Y016050D02*
X015163Y016002D01*
X015130Y015952D01*
X015099Y015900D01*
X015072Y015846D01*
X015048Y015791D01*
X015028Y015734D01*
X015010Y015677D01*
X014996Y015619D01*
X014985Y015560D01*
X014978Y015500D01*
X016333Y014397D02*
X016393Y014417D01*
X016452Y014441D01*
X016509Y014469D01*
X016564Y014500D01*
X016618Y014535D01*
X016669Y014572D01*
X016718Y014613D01*
X016764Y014657D01*
X016808Y014703D01*
X016849Y014752D01*
X016887Y014803D01*
X016921Y014856D01*
X016953Y014912D01*
X016980Y014969D01*
X017005Y015028D01*
X017025Y015088D01*
X017043Y015149D01*
X017056Y015211D01*
X017065Y015274D01*
X017071Y015337D01*
X017073Y015401D01*
X017071Y015465D01*
X017065Y015528D01*
X017056Y015591D01*
X017042Y015653D01*
X017025Y015714D01*
X017004Y015774D01*
X016980Y015833D01*
X016952Y015890D01*
X016920Y015946D01*
X016885Y015999D01*
X016848Y016050D01*
X018998Y003975D02*
X018998Y003525D01*
X019148Y003525D02*
X018848Y003525D01*
X019148Y003825D02*
X018998Y003975D01*
X007348Y000700D02*
X007273Y000775D01*
X007123Y000775D01*
X007048Y000700D01*
X007048Y000625D01*
X007348Y000325D01*
X007048Y000325D01*
X006887Y000400D02*
X006812Y000325D01*
X006662Y000325D01*
X006587Y000400D01*
X006587Y000475D01*
X006662Y000550D01*
X006887Y000550D01*
X006887Y000400D01*
X006887Y000550D02*
X006737Y000700D01*
X006587Y000775D01*
D15*
X016128Y011770D02*
X016362Y011770D01*
X016128Y012004D01*
X016128Y012062D01*
X016187Y012120D01*
X016304Y012120D01*
X016362Y012062D01*
X016488Y012062D02*
X016488Y011945D01*
X016546Y011887D01*
X016721Y011887D01*
X016604Y011887D02*
X016488Y011770D01*
X016721Y011770D02*
X016721Y012120D01*
X016546Y012120D01*
X016488Y012062D01*
D16*
X015948Y012650D03*
X018098Y012650D03*
D17*
X018048Y013775D03*
D18*
X018673Y013775D03*
X016123Y013775D03*
M02*
