%
M48
M72
T01C0.0315
T02C0.0320
T03C0.0354
T04C0.0360
T05C0.0394
T06C0.0400
T07C0.0433
T08C0.0470
T09C0.0520
T10C0.0551
T11C0.0591
T12C0.0866
T13C0.1248
T14C0.1260
%
T01
X11898Y20525
X10898Y20525
X13273Y18650
X12273Y18650
X13648Y20525
X14648Y20525
X12273Y22400
X13273Y22400
T02
X12148Y6400
X12148Y10400
X15523Y12650
X18523Y12650
X19398Y13775
X15398Y13775
X37023Y4650
X38023Y4650
X43023Y4650
X44023Y4650
X39023Y4650
X40023Y4650
X42023Y4650
X41023Y4650
X44023Y7650
X43023Y7650
X42023Y7650
X41023Y7650
X40023Y7650
X39023Y7650
X38023Y7650
X37023Y7650
X37023Y12400
X38023Y12400
X43023Y12400
X44023Y12400
X39023Y12400
X40023Y12400
X42023Y12400
X41023Y12400
X44023Y15400
X43023Y15400
X42023Y15400
X41023Y15400
X40023Y15400
X39023Y15400
X38023Y15400
X37023Y15400
X37023Y19525
X38023Y19525
X43023Y19525
X44023Y19525
X39023Y19525
X40023Y19525
X42023Y19525
X41023Y19525
X44023Y22525
X43023Y22525
X42023Y22525
X41023Y22525
X40023Y22525
X39023Y22525
X38023Y22525
X37023Y22525
X44023Y3275
X43023Y3275
X42023Y3275
X41023Y3275
X40023Y3275
X39023Y3275
X38023Y3275
X37023Y3275
X44023Y2150
X43023Y2150
X42023Y2150
X41023Y2150
X40023Y2150
X39023Y2150
X38023Y2150
X37023Y2150
X44023Y11150
X43023Y11150
X42023Y11150
X41023Y11150
X40023Y11150
X39023Y11150
X38023Y11150
X37023Y11150
X44023Y9900
X43023Y9900
X42023Y9900
X41023Y9900
X40023Y9900
X39023Y9900
X38023Y9900
X37023Y9900
X44023Y18275
X43023Y18275
X42023Y18275
X41023Y18275
X40023Y18275
X39023Y18275
X38023Y18275
X37023Y18275
X44023Y17025
X43023Y17025
X42023Y17025
X41023Y17025
X40023Y17025
X39023Y17025
X38023Y17025
X37023Y17025
X33148Y23025
X35148Y23025
X34148Y23025
X16523Y15400
X16023Y14650
X15523Y15400
X29898Y16650
X30898Y16650
X31898Y16650
X32898Y16650
X33898Y16650
X29898Y18650
X30898Y18650
X31898Y18650
X33898Y18650
X32898Y18650
X29898Y13525
X30898Y13525
X31898Y13525
X32898Y13525
X33898Y13525
X29898Y15525
X30898Y15525
X31898Y15525
X33898Y15525
X32898Y15525
X29898Y10400
X30898Y10400
X31898Y10400
X32898Y10400
X33898Y10400
X29898Y12400
X30898Y12400
X31898Y12400
X33898Y12400
X32898Y12400
X12273Y31275
X12273Y30275
X12273Y29275
X12273Y28275
X12273Y27275
X12273Y26275
X12273Y25275
X12273Y24275
X11023Y31275
X11023Y30275
X11023Y29275
X11023Y28275
X11023Y27275
X11023Y26275
X11023Y25275
X11023Y24275
X29273Y26900
X28773Y27650
X28273Y26900
X26773Y26775
X26273Y27525
X25773Y26775
X37273Y25025
X37273Y26025
X29898Y20400
X30898Y20400
X32773Y20400
X33773Y20400
T03
X14273Y9775
X15273Y9275
X14273Y8775
X15273Y8275
X14273Y7775
X15273Y7275
X14273Y6775
X15273Y6275
X39523Y25400
X40023Y26400
X40523Y25400
X41023Y26400
X41523Y25400
X42023Y26400
X42523Y25400
X43023Y26400
X31648Y25400
X32148Y26400
X32648Y25400
X33148Y26400
X33648Y25400
X34148Y26400
X34648Y25400
X35148Y26400
X6935Y30275
X7723Y30275
X8510Y30275
X9297Y30275
T04
X19023Y2650
X19023Y1650
X18023Y2650
X18023Y1650
X17023Y2650
X17023Y1650
X16023Y2650
X16023Y1650
X15023Y2650
X15023Y1650
X14023Y2650
X14023Y1650
X13023Y2650
X13023Y1650
X12023Y2650
X12023Y1650
X11023Y2650
X11023Y1650
X10023Y2650
X10023Y1650
X9023Y2650
X9023Y1650
X8023Y2650
X8023Y1650
X7023Y2650
X7023Y1650
X8093Y27028
X8093Y26094
X8093Y25206
X8093Y24272
T05
X27398Y28805
X27398Y31206
X25508Y30025
T06
X6898Y10775
X6898Y9775
X6898Y8775
X6898Y7775
X6898Y6775
X6898Y5775
X18023Y15400
X19023Y15400
X23771Y21570
X23771Y22570
X27398Y25275
X28398Y25275
X29398Y25275
X27523Y22650
X28523Y22650
X29523Y22650
X13773Y15400
X12773Y15400
X11773Y15400
X10773Y15400
X9773Y15400
X8773Y15400
X7773Y15400
X6773Y15400
X6523Y21650
X7523Y21650
X14273Y25775
X14273Y26775
X14273Y27775
X14273Y28775
X14273Y29775
X14273Y30775
T07
X7109Y26536
X7109Y24764
T08
X17302Y29896
X19302Y29896
X21302Y29896
X23302Y29896
T09
X19444Y20131
X21794Y20931
X17094Y20931
X17094Y25731
X21794Y25731
T10
X7681Y19525
X9365Y20525
T11
X6648Y31346
X6648Y29204
X9404Y31346
X9404Y29204
T12
X7148Y23367
X7148Y27933
T13
X17773Y10275
X17773Y5775
X39023Y28900
X43523Y28900
X31148Y28900
X35648Y28900
T14
X35398Y5775
X26148Y12400
X35547Y20605
X23773Y25150
X23773Y19525
X14273Y24150
X9023Y22650
M30
